<svg width="18" height="18" viewBox="0 0 18 18" fill="none" xmlns="http://www.w3.org/2000/svg">
<path d="M6.6 6.6V5.85C6.18578 5.85 5.85 6.18578 5.85 6.6H6.6ZM6.67969 6.6H7.42969C7.42969 6.18578 7.0939 5.85 6.67969 5.85V6.6ZM11.4 6.6V5.85C10.9858 5.85 10.65 6.18578 10.65 6.6H11.4ZM11.4708 6.6H12.2208C12.2208 6.18578 11.8851 5.85 11.4708 5.85V6.6ZM6.67969 6.66406V7.41406C7.0939 7.41406 7.42969 7.07827 7.42969 6.66406H6.67969ZM6.6 6.66406H5.85C5.85 7.07827 6.18578 7.41406 6.6 7.41406V6.66406ZM11.4708 6.66406V7.41406C11.8851 7.41406 12.2208 7.07827 12.2208 6.66406H11.4708ZM11.4 6.66406H10.65C10.65 7.07827 10.9858 7.41406 11.4 7.41406V6.66406ZM6.86434 11.0379C6.64632 10.6857 6.18408 10.5769 5.83188 10.7949C5.47968 11.0129 5.3709 11.4752 5.58891 11.8274L6.86434 11.0379ZM12.4111 11.8274C12.6291 11.4752 12.5203 11.0129 12.1681 10.7949C11.8159 10.5769 11.3537 10.6857 11.1357 11.0379L12.4111 11.8274ZM16.25 9C16.25 13.0041 13.0041 16.25 9 16.25V17.75C13.8325 17.75 17.75 13.8325 17.75 9H16.25ZM9 16.25C4.99593 16.25 1.75 13.0041 1.75 9H0.25C0.25 13.8325 4.16751 17.75 9 17.75V16.25ZM1.75 9C1.75 4.99593 4.99593 1.75 9 1.75V0.25C4.16751 0.25 0.25 4.16751 0.25 9H1.75ZM9 1.75C13.0041 1.75 16.25 4.99593 16.25 9H17.75C17.75 4.16751 13.8325 0.25 9 0.25V1.75ZM6.6 7.35H6.67969V5.85H6.6V7.35ZM11.4 7.35H11.4708V5.85H11.4V7.35ZM5.92969 6.6V6.66406H7.42969V6.6H5.92969ZM6.67969 5.91406H6.6V7.41406H6.67969V5.91406ZM7.35 6.66406V6.6H5.85V6.66406H7.35ZM10.7208 6.6V6.66406H12.2208V6.6H10.7208ZM11.4708 5.91406H11.4V7.41406H11.4708V5.91406ZM12.15 6.66406V6.6H10.65V6.66406H12.15ZM9 12.25C8.11107 12.25 7.32026 11.7744 6.86434 11.0379L5.58891 11.8274C6.29956 12.9754 7.557 13.75 9 13.75V12.25ZM11.1357 11.0379C10.6797 11.7744 9.88893 12.25 9 12.25V13.75C10.443 13.75 11.7004 12.9754 12.4111 11.8274L11.1357 11.0379Z" fill="#0059FF"/>
</svg>
