<svg width="48" height="48" viewBox="0 0 48 48" fill="none" xmlns="http://www.w3.org/2000/svg">
<circle cx="24" cy="24" r="23.75" stroke="#CCCCCC" stroke-width="0.5"/>
<path d="M28.7292 10.1455C28.844 11.6442 28.37 13.1287 27.408 14.2836C26.9473 14.8566 26.3626 15.3175 25.698 15.6318C25.0333 15.946 24.306 16.1054 23.5709 16.0978C23.524 15.3771 23.6196 14.6542 23.8522 13.9704C24.0849 13.2867 24.45 12.6555 24.9267 12.1129C25.9018 11.0023 27.2594 10.2999 28.7292 10.1455Z" fill="black"/>
<path d="M31.4103 21.0536C30.9219 21.9142 30.659 22.8844 30.6463 23.8739C30.6475 24.9869 30.9763 26.0749 31.5917 27.0023C32.2071 27.9297 33.0819 28.6555 34.107 29.089C33.704 30.3983 33.0965 31.6356 32.3069 32.7551C31.2467 34.3412 30.135 35.8907 28.3705 35.9194C27.5314 35.9387 26.9649 35.6974 26.3747 35.446C25.759 35.1837 25.1174 34.9104 24.1135 34.9104C23.0487 34.9104 22.3784 35.1925 21.732 35.4646C21.1733 35.6997 20.6324 35.9273 19.8702 35.9589C18.1898 36.0212 16.9056 34.2661 15.8068 32.695C13.6105 29.4863 11.9004 23.6525 14.1931 19.683C14.7224 18.7319 15.489 17.9341 16.4183 17.3674C17.3475 16.8006 18.4078 16.4843 19.4956 16.4491C20.4487 16.4295 21.3632 16.7969 22.1649 17.1189C22.7781 17.3652 23.3253 17.585 23.7735 17.585C24.1674 17.585 24.6993 17.3739 25.3193 17.1278C26.2959 16.7402 27.4908 16.266 28.7085 16.3938C29.6417 16.423 30.5553 16.6694 31.3766 17.1134C32.1979 17.5574 32.9044 18.1869 33.44 18.9517C32.597 19.47 31.8988 20.193 31.4103 21.0536Z" fill="black"/>
</svg>
