<svg width="188" height="189" viewBox="0 0 188 189" fill="none" xmlns="http://www.w3.org/2000/svg">
<rect width="187.5" height="187.5" rx="93.75" fill="#2F364D"/>
<path d="M106.418 151.655C107.05 151.297 107.771 151.956 107.47 152.618L106.283 155.229C106.149 155.525 106.22 155.874 106.46 156.093L108.577 158.029C109.113 158.519 108.708 159.409 107.986 159.327L105.136 159.005C104.813 158.969 104.504 159.144 104.369 159.44L103.182 162.051C102.881 162.713 101.91 162.603 101.765 161.891L101.19 159.081C101.125 158.763 100.862 158.522 100.539 158.486L97.6892 158.164C96.9673 158.082 96.7715 157.125 97.4035 156.766L99.8986 155.352C100.181 155.191 100.329 154.867 100.263 154.549L99.689 151.739C99.5434 151.027 100.394 150.545 100.93 151.035L103.047 152.971C103.286 153.19 103.64 153.23 103.923 153.07L106.418 151.655Z" fill="#FFDA79"/>
<path d="M63.4651 11.1786C63.3497 10.6621 63.9627 10.2996 64.3597 10.6497L65.9269 12.0317C66.1045 12.1882 66.3626 12.2127 66.5664 12.0922L68.365 11.0287C68.8206 10.7594 69.3547 11.2304 69.1445 11.7161L68.3144 13.6337C68.2204 13.8509 68.2769 14.104 68.4545 14.2605L70.0217 15.6425C70.4187 15.9926 70.1358 16.6461 69.6089 16.5962L67.5286 16.3994C67.293 16.3771 67.0698 16.509 66.9758 16.7263L66.1457 18.6439C65.9355 19.1296 65.2265 19.0625 65.1111 18.5459L64.6555 16.5067C64.6039 16.2757 64.4094 16.1042 64.1738 16.0819L62.0935 15.885C61.5666 15.8352 61.4113 15.1402 61.8669 14.8708L63.6656 13.8073C63.8693 13.6868 63.9723 13.4489 63.9207 13.2179L63.4651 11.1786Z" fill="#FFDA79"/>
<path d="M173.876 101.69C174.231 101.326 174.843 101.629 174.77 102.131L174.482 104.116C174.449 104.34 174.565 104.561 174.769 104.661L176.567 105.549C177.022 105.774 176.924 106.45 176.423 106.536L174.447 106.874C174.223 106.913 174.049 107.091 174.017 107.316L173.728 109.3C173.655 109.803 172.981 109.918 172.745 109.469L171.812 107.694C171.707 107.493 171.483 107.382 171.26 107.421L169.283 107.76C168.783 107.845 168.465 107.241 168.819 106.877L170.219 105.441C170.378 105.279 170.413 105.032 170.308 104.831L169.375 103.056C169.138 102.607 169.615 102.117 170.071 102.342L171.869 103.23C172.073 103.33 172.318 103.288 172.476 103.126L173.876 101.69Z" fill="#FFDA79"/>
<path d="M86.1261 42.4399C86.4806 42.0762 87.0934 42.3787 87.0203 42.8813L86.7319 44.8656C86.6992 45.0904 86.815 45.3106 87.0186 45.4112L88.8166 46.2987C89.2721 46.5235 89.1738 47.1998 88.6732 47.2856L86.6969 47.6244C86.473 47.6628 86.2993 47.841 86.2666 48.0657L85.9781 50.05C85.905 50.5526 85.2315 50.6681 84.9952 50.2185L84.0622 48.4437C83.9566 48.2426 83.7334 48.1325 83.5096 48.1708L81.5332 48.5096C81.0327 48.5955 80.7147 47.9906 81.0692 47.6269L82.469 46.1911C82.6275 46.0285 82.6633 45.7823 82.5576 45.5812L81.6247 43.8063C81.3884 43.3568 81.8654 42.8674 82.3209 43.0922L84.1189 43.9798C84.3226 44.0803 84.5678 44.0383 84.7264 43.8756L86.1261 42.4399Z" fill="#FFDA79"/>
<path d="M125.126 8.6899C125.481 8.32623 126.093 8.62871 126.02 9.13132L125.732 11.1156C125.699 11.3404 125.815 11.5606 126.019 11.6612L127.817 12.5487C128.272 12.7735 128.174 13.4498 127.673 13.5356L125.697 13.8744C125.473 13.9128 125.299 14.091 125.267 14.3157L124.978 16.3C124.905 16.8026 124.231 16.9181 123.995 16.4685L123.062 14.6937C122.957 14.4926 122.733 14.3825 122.51 14.4208L120.533 14.7596C120.033 14.8455 119.715 14.2406 120.069 13.8769L121.469 12.4411C121.628 12.2785 121.663 12.0323 121.558 11.8312L120.625 10.0563C120.388 9.60675 120.865 9.11743 121.321 9.34225L123.119 10.2298C123.323 10.3303 123.568 10.2883 123.726 10.1256L125.126 8.6899Z" fill="#FFDA79"/>
<path d="M167.356 72.1594C167.522 71.9889 167.81 72.1307 167.775 72.3663L167.64 73.2965C167.625 73.4019 167.679 73.5051 167.774 73.5523L168.617 73.9683C168.831 74.0737 168.785 74.3907 168.55 74.431L167.624 74.5898C167.519 74.6078 167.437 74.6913 167.422 74.7967L167.287 75.7269C167.252 75.9625 166.937 76.0166 166.826 75.8059L166.389 74.9738C166.339 74.8796 166.234 74.828 166.129 74.846L165.203 75.0048C164.968 75.045 164.819 74.7615 164.985 74.591L165.642 73.9179C165.716 73.8417 165.733 73.7262 165.683 73.632L165.246 72.7999C165.135 72.5892 165.359 72.3598 165.572 72.4652L166.415 72.8813C166.511 72.9284 166.626 72.9087 166.7 72.8324L167.356 72.1594Z" fill="#FFDA79"/>
<path d="M135.856 162.159C136.022 161.989 136.31 162.131 136.275 162.366L136.14 163.297C136.125 163.402 136.179 163.505 136.274 163.552L137.117 163.968C137.331 164.074 137.285 164.391 137.05 164.431L136.124 164.59C136.019 164.608 135.937 164.691 135.922 164.797L135.787 165.727C135.752 165.963 135.437 166.017 135.326 165.806L134.889 164.974C134.839 164.88 134.734 164.828 134.629 164.846L133.703 165.005C133.468 165.045 133.319 164.761 133.485 164.591L134.142 163.918C134.216 163.842 134.233 163.726 134.183 163.632L133.746 162.8C133.635 162.589 133.859 162.36 134.072 162.465L134.915 162.881C135.011 162.928 135.126 162.909 135.2 162.832L135.856 162.159Z" fill="#FFDA79"/>
<path d="M131.356 41.4094C131.522 41.2389 131.81 41.3807 131.775 41.6163L131.64 42.5465C131.625 42.6519 131.679 42.7551 131.774 42.8023L132.617 43.2183C132.831 43.3237 132.785 43.6407 132.55 43.681L131.624 43.8398C131.519 43.8578 131.437 43.9413 131.422 44.0467L131.287 44.9769C131.252 45.2125 130.937 45.2666 130.826 45.0559L130.389 44.2238C130.339 44.1296 130.234 44.078 130.129 44.096L129.203 44.2548C128.968 44.295 128.819 44.0115 128.985 43.841L129.642 43.1679C129.716 43.0917 129.733 42.9762 129.683 42.882L129.246 42.0499C129.135 41.8392 129.359 41.6098 129.572 41.7152L130.415 42.1313C130.511 42.1784 130.626 42.1587 130.7 42.0824L131.356 41.4094Z" fill="#FFDA79"/>
<path d="M138.106 36.1594C138.272 35.9889 138.56 36.1307 138.525 36.3663L138.39 37.2965C138.375 37.4019 138.429 37.5051 138.524 37.5523L139.367 37.9683C139.581 38.0737 139.535 38.3907 139.3 38.431L138.374 38.5898C138.269 38.6078 138.187 38.6913 138.172 38.7967L138.037 39.7269C138.002 39.9625 137.687 40.0166 137.576 39.8059L137.139 38.9738C137.089 38.8796 136.984 38.828 136.879 38.846L135.953 39.0048C135.718 39.045 135.569 38.7615 135.735 38.591L136.392 37.9179C136.466 37.8417 136.483 37.7262 136.433 37.632L135.996 36.7999C135.885 36.5892 136.109 36.3598 136.322 36.4652L137.165 36.8813C137.261 36.9284 137.376 36.9087 137.45 36.8324L138.106 36.1594Z" fill="#FFDA79"/>
<path d="M47.3561 30.9094C47.5223 30.7389 47.8095 30.8807 47.7753 31.1163L47.64 32.0465C47.6247 32.1519 47.679 32.2551 47.7745 32.3023L48.6173 32.7183C48.8308 32.8237 48.7847 33.1407 48.5501 33.181L47.6236 33.3398C47.5187 33.3578 47.4372 33.4413 47.4219 33.5467L47.2867 34.4769C47.2524 34.7125 46.9367 34.7666 46.8259 34.5559L46.3886 33.7238C46.339 33.6296 46.2344 33.578 46.1295 33.596L45.203 33.7548C44.9683 33.795 44.8193 33.5115 44.9855 33.341L45.6417 32.6679C45.716 32.5917 45.7328 32.4762 45.6832 32.382L45.2459 31.5499C45.1351 31.3392 45.3587 31.1098 45.5722 31.2152L46.4151 31.6313C46.5106 31.6784 46.6256 31.6587 46.6999 31.5824L47.3561 30.9094Z" fill="#FFDA79"/>
<path d="M176.58 55.6336C176.879 55.3273 177.395 55.582 177.333 56.0053L177.09 57.6762C177.063 57.8655 177.16 58.051 177.332 58.1356L178.846 58.883C179.229 59.0723 179.146 59.6418 178.725 59.7141L177.061 59.9994C176.872 60.0317 176.726 60.1817 176.698 60.371L176.455 62.042C176.394 62.4652 175.827 62.5624 175.628 62.1839L174.842 60.6892C174.753 60.5199 174.565 60.4272 174.377 60.4595L172.712 60.7448C172.291 60.8171 172.023 60.3077 172.322 60.0015L173.5 58.7924C173.634 58.6555 173.664 58.4481 173.575 58.2788L172.79 56.7842C172.591 56.4056 172.992 55.9936 173.376 56.1829L174.89 56.9303C175.061 57.015 175.268 56.9795 175.401 56.8426L176.58 55.6336Z" fill="#FFDA79"/>
<path d="M59.5801 156.134C59.8786 155.827 60.3946 156.082 60.3331 156.505L60.0902 158.176C60.0627 158.366 60.1601 158.551 60.3317 158.636L61.8457 159.383C62.2293 159.572 62.1465 160.142 61.7249 160.214L60.0607 160.499C59.8722 160.532 59.7259 160.682 59.6984 160.871L59.4555 162.542C59.3939 162.965 58.8267 163.062 58.6277 162.684L57.8421 161.189C57.7531 161.02 57.5652 160.927 57.3767 160.96L55.7125 161.245C55.291 161.317 55.0232 160.808 55.3218 160.501L56.5005 159.292C56.634 159.155 56.6641 158.948 56.5751 158.779L55.7895 157.284C55.5905 156.906 55.9922 156.494 56.3757 156.683L57.8898 157.43C58.0613 157.515 58.2679 157.48 58.4014 157.343L59.5801 156.134Z" fill="#FFDA79"/>
<path d="M42.1061 160.659C42.2723 160.489 42.5595 160.631 42.5253 160.866L42.39 161.797C42.3747 161.902 42.429 162.005 42.5245 162.052L43.3673 162.468C43.5808 162.574 43.5347 162.891 43.3001 162.931L42.3736 163.09C42.2687 163.108 42.1872 163.191 42.1719 163.297L42.0367 164.227C42.0024 164.463 41.6867 164.517 41.5759 164.306L41.1386 163.474C41.089 163.38 40.9844 163.328 40.8795 163.346L39.953 163.505C39.7183 163.545 39.5693 163.261 39.7355 163.091L40.3917 162.418C40.466 162.342 40.4828 162.226 40.4332 162.132L39.9959 161.3C39.8851 161.089 40.1087 160.86 40.3222 160.965L41.1651 161.381C41.2606 161.428 41.3756 161.409 41.4499 161.332L42.1061 160.659Z" fill="#FFDA79"/>
<path d="M20.3561 49.6594C20.5223 49.4889 20.8095 49.6307 20.7753 49.8663L20.64 50.7965C20.6247 50.9019 20.679 51.0051 20.7745 51.0523L21.6173 51.4683C21.8308 51.5737 21.7847 51.8907 21.5501 51.931L20.6236 52.0898C20.5187 52.1078 20.4372 52.1913 20.4219 52.2967L20.2867 53.2269C20.2524 53.4625 19.9367 53.5166 19.8259 53.3059L19.3886 52.4738C19.339 52.3796 19.2344 52.328 19.1295 52.346L18.203 52.5048C17.9683 52.545 17.8193 52.2615 17.9855 52.091L18.6417 51.4179C18.716 51.3417 18.7328 51.2262 18.6832 51.132L18.2459 50.2999C18.1351 50.0892 18.3587 49.8598 18.5722 49.9652L19.4151 50.3813C19.5106 50.4284 19.6256 50.4087 19.6999 50.3324L20.3561 49.6594Z" fill="#FFDA79"/>
<path fill-rule="evenodd" clip-rule="evenodd" d="M138.032 156.416C137.68 156.385 137.325 156.297 136.981 156.147L115.131 146.602C108.608 143.752 108.044 137.489 110.757 131.252C113.469 125.014 118.43 121.165 124.953 124.014L139.268 130.268L147.743 118.898C148.882 117.37 150.785 116.859 151.993 117.756L165.118 127.505C166.326 128.403 166.382 130.369 165.243 131.896L149.984 152.366C146.423 157.145 142.071 157.99 138.032 156.416Z" fill="#E8E8E8"/>
<path fill-rule="evenodd" clip-rule="evenodd" d="M30.881 140.015C29.9228 141.176 30.3355 143.102 31.8028 144.318L51.4627 160.607C56.4087 164.705 61.1586 164.14 64.8242 161.083L82.4282 153.688C88.9906 150.931 89.6261 144.684 86.9812 138.417C84.3362 132.151 79.4126 128.239 72.8501 130.996L57.6158 137.396L45.6824 127.508C44.2151 126.292 42.2489 126.247 41.2907 127.408L30.881 140.015Z" fill="#E8E8E8"/>
<path d="M68.6862 152.055C67.825 139.773 69.8632 127.261 80.1255 126.541L108.617 124.544C118.88 123.824 123.673 131.437 124.534 143.72L125.05 179.913C125.056 182.149 123.369 184.129 120.95 184.727C105.746 188.482 92.1634 189.434 76.584 187.838C74.1325 187.586 71.2502 185.895 70.9057 183.71L68.6862 152.055Z" fill="#FAFAFA"/>
<path d="M81.8989 118.469C81.5723 113.812 84.3675 109.822 88.142 109.557L97.7102 108.886C101.485 108.621 104.809 112.182 105.136 116.84L105.727 125.272C106.054 129.93 103.259 133.92 99.4841 134.184L89.9159 134.855C86.1413 135.12 82.8167 131.559 82.4902 126.902L81.8989 118.469Z" fill="#FFAB48"/>
<path d="M136.385 105.286C135.813 112.932 128.902 118.647 120.949 118.052C112.997 117.456 107.014 110.775 107.587 103.129C108.16 95.4837 115.071 89.7685 123.023 90.3641C130.976 90.9598 136.958 97.6407 136.385 105.286Z" fill="#FF9C27"/>
<path d="M84.1911 97.0247C83.6184 104.67 76.7075 110.386 68.755 109.79C60.8026 109.194 54.8201 102.513 55.3928 94.8677C55.9655 87.222 62.8764 81.5068 70.8288 82.1024C78.7812 82.6981 84.7637 89.379 84.1911 97.0247Z" fill="#ED8000"/>
<path d="M130.434 97.0233C129.112 114.664 111.815 127.749 91.7987 126.25C71.7825 124.75 54.8862 106.66 64.0849 94.6549C59.1077 75.484 76.5673 60.8686 96.5835 62.3678C116.6 63.867 131.755 79.3828 130.434 97.0233Z" fill="#FFBA68"/>
<path d="M130.674 97.1035C129.346 114.832 111.667 127.96 91.187 126.426C70.7068 124.892 53.396 106.687 62.7907 94.6331C57.6726 75.3581 75.5154 60.6921 95.9955 62.2261C116.476 63.7601 132.002 79.3752 130.674 97.1035Z" fill="#FFBA68"/>
<mask id="mask0_1544_74711" style="mask-type:alpha" maskUnits="userSpaceOnUse" x="60" y="62" width="71" height="65">
<path d="M130.674 97.1035C129.346 114.832 111.667 127.96 91.187 126.426C70.7068 124.892 53.396 106.687 62.7907 94.6331C57.6726 75.3581 75.5154 60.6921 95.9955 62.2261C116.476 63.7601 132.002 79.3752 130.674 97.1035Z" fill="#FFBA68"/>
</mask>
<g mask="url(#mask0_1544_74711)">
<path fill-rule="evenodd" clip-rule="evenodd" d="M99.9102 106.893C94.9678 109.655 89.2917 110.915 83.6355 110.504V110.504C83.0281 110.46 82.6069 109.991 82.6946 109.458C82.7823 108.924 83.3458 108.527 83.9531 108.571V108.571C89.1112 108.946 94.2874 107.798 98.7945 105.279V105.279C99.3251 104.983 100.005 105.104 100.313 105.549C100.621 105.995 100.441 106.597 99.9102 106.893V106.893Z" fill="#A75A00"/>
<path d="M128.451 113.783C127.892 121.242 121.106 126.814 113.293 126.229C105.481 125.644 99.6001 119.123 100.159 111.664C100.717 104.204 107.504 98.6318 115.317 99.217C123.129 99.8022 129.01 106.323 128.451 113.783Z" fill="#FF9A24"/>
<path d="M75.3428 107.629C74.7841 115.088 67.9977 120.661 60.185 120.076C52.3723 119.491 46.4917 112.969 47.0504 105.51C47.6091 98.0509 54.3955 92.4784 62.2082 93.0636C70.0209 93.6487 75.9014 100.17 75.3428 107.629Z" fill="#FF9A24"/>
</g>
<path d="M87.985 103.204C87.9249 104.006 87.2 104.605 86.366 104.543C85.5319 104.48 84.9044 103.779 84.9645 102.977C85.0246 102.176 85.7494 101.576 86.5835 101.639C87.4176 101.701 88.045 102.402 87.985 103.204Z" fill="black"/>
<path d="M82.4927 96.2023C82.3784 97.7286 80.9334 98.8646 79.2653 98.7397C77.5971 98.6147 76.3375 97.2761 76.4518 95.7498C76.5661 94.2236 78.0111 93.0875 79.6793 93.2125C81.3474 93.3374 82.607 94.676 82.4927 96.2023Z" fill="black"/>
<path fill-rule="evenodd" clip-rule="evenodd" d="M81.3127 92.142C81.5707 92.6685 81.3165 93.2812 80.745 93.5106C80.4344 93.6352 79.9578 93.9023 79.6066 94.2539C79.2577 94.6033 79.1458 94.9117 79.1969 95.1916C79.3007 95.7592 78.8835 96.2903 78.2651 96.3778C77.6468 96.4653 77.0613 96.0761 76.9576 95.5086C76.7485 94.3651 77.3159 93.446 77.9219 92.8393C78.5256 92.2348 79.2794 91.8172 79.8108 91.6039C80.3823 91.3746 81.0547 91.6155 81.3127 92.142Z" fill="black"/>
<path d="M101.931 99.1093C101.816 100.636 100.371 101.772 98.7033 101.647C97.0351 101.522 95.7755 100.183 95.8898 98.6568C96.0041 97.1305 97.4491 95.9945 99.1172 96.1195C100.785 96.2444 102.045 97.583 101.931 99.1093Z" fill="black"/>
<path fill-rule="evenodd" clip-rule="evenodd" d="M100.751 95.049C101.009 95.5755 100.755 96.1882 100.183 96.4176C99.8724 96.5422 99.3958 96.8093 99.0446 97.1609C98.6957 97.5102 98.5838 97.8187 98.6349 98.0986C98.7387 98.6662 98.3215 99.1972 97.7031 99.2848C97.0847 99.3723 96.4993 98.9831 96.3956 98.4155C96.1865 97.2721 96.7539 96.353 97.3599 95.7463C97.9636 95.1418 98.7174 94.7241 99.2488 94.5109C99.8203 94.2816 100.493 94.5225 100.751 95.049Z" fill="black"/>
<path fill-rule="evenodd" clip-rule="evenodd" d="M78.9691 88.1145C77.8723 88.1772 76.9496 88.643 76.4684 89.0248C76.0183 89.3819 75.3501 89.3184 74.9759 88.8831C74.6016 88.4477 74.6631 87.8053 75.1132 87.4482C75.8865 86.8347 77.2237 86.1708 78.8293 86.079C80.4832 85.9844 82.3532 86.5032 84.0818 88.1638C84.4974 88.563 84.5001 89.2085 84.0879 89.6056C83.6757 90.0027 83.0047 90.001 82.5891 89.6018C81.2928 88.3566 80.0177 88.0545 78.9691 88.1145Z" fill="#905A09"/>
<path fill-rule="evenodd" clip-rule="evenodd" d="M100.588 91.3996C99.4897 91.4063 98.5444 91.8245 98.0444 92.1812C97.5767 92.5149 96.9126 92.4175 96.561 91.9636C96.2095 91.5097 96.3037 90.8713 96.7714 90.5376C97.575 89.9642 98.9442 89.3694 100.552 89.3596C102.209 89.3495 104.05 89.963 105.692 91.7095C106.087 92.1294 106.056 92.7742 105.624 93.1498C105.192 93.5254 104.522 93.4894 104.128 93.0696C102.897 91.7599 101.639 91.3932 100.588 91.3996Z" fill="#905A09"/>
<path d="M84.5558 53.8996C94.5778 59.1646 103.11 48.2944 120.337 64.3238C125.527 64.3144 118.986 51.7439 128.292 60.3087C135.123 66.5963 128.323 67.3746 125.215 66.354C136.888 75.9502 138.48 105.195 123.48 100.999C105.285 95.9086 112.561 70.8661 107.101 76.1622C101.641 81.4583 66.2681 95.0454 58.7675 91.1011C53.4876 88.3246 54.3616 80.8473 60.1354 79.3974C59.5421 78.5595 55.7192 78.6986 55.2355 73.3699C54.7517 68.0413 68.1149 60.4445 73.5993 58.8858C74.2452 53.359 73.9573 48.3318 84.5558 53.8996Z" fill="black"/>
<path d="M71.8671 126.155C71.9381 123.37 74.3409 121.221 77.1161 121.46L95.2734 123.023L114.05 122.393C116.81 122.3 119.078 124.55 119.008 127.311V127.311C118.952 129.472 117.458 131.33 115.358 131.847L100.285 135.559C96.3624 136.525 92.2478 136.379 88.403 135.138L75.2157 130.88C73.1754 130.222 71.8124 128.298 71.8671 126.155V126.155Z" fill="#D7D7D7"/>
<path d="M78.522 147.95C78.6862 143.811 82.1746 140.589 86.3134 140.753L107.297 141.586C111.436 141.75 114.658 145.238 114.494 149.377L113.959 162.867C113.794 167.006 110.306 170.228 106.167 170.063L85.1837 169.231C81.0448 169.067 77.8227 165.579 77.9869 161.44L78.522 147.95Z" fill="#D7D7D7"/>
<path d="M82.7656 154.498C82.8395 152.636 84.4093 151.186 86.2718 151.26L92.267 151.498C94.1295 151.572 95.5795 153.141 95.5056 155.004V155.004C95.4317 156.866 93.862 158.316 91.9995 158.242L86.0042 158.005C84.1417 157.931 82.6917 156.361 82.7656 154.498V154.498Z" fill="#BBBBBB"/>
<path d="M82.7656 154.498C82.8395 152.636 84.4093 151.186 86.2718 151.26V151.26C88.1343 151.334 89.5842 152.904 89.5103 154.766V154.766C89.4364 156.629 87.8667 158.078 86.0042 158.005V158.005C84.1417 157.931 82.6917 156.361 82.7656 154.498V154.498Z" fill="#7E7E7E"/>
<path fill-rule="evenodd" clip-rule="evenodd" d="M102.547 141.811C102.945 141.696 103.361 141.925 103.476 142.323C103.532 142.517 103.553 142.783 103.565 143.026C103.577 143.296 103.582 143.633 103.58 144.016C103.575 144.785 103.545 145.776 103.499 146.876C103.407 149.078 103.251 151.741 103.107 153.988C103.009 155.52 102.321 156.949 101.196 157.988L99.652 159.414C98.7753 160.224 98.2562 161.349 98.2089 162.542L97.9681 168.612C97.9517 169.026 97.6029 169.348 97.189 169.332C96.7751 169.316 96.4529 168.967 96.4693 168.553L96.7101 162.482C96.7732 160.892 97.4653 159.392 98.6343 158.313L100.178 156.886C101.023 156.106 101.537 155.036 101.61 153.892C101.754 151.649 101.909 148.999 102.001 146.814C102.046 145.72 102.076 144.75 102.08 144.008C102.082 143.636 102.077 143.33 102.066 143.097C102.061 142.981 102.054 142.89 102.046 142.822C102.039 142.761 102.034 142.737 102.034 142.737C102.034 142.737 102.035 142.738 102.035 142.74C101.92 142.343 102.149 141.927 102.547 141.811Z" fill="#B1B1B1"/>
<ellipse cx="94.0975" cy="94.115" rx="39.1295" ry="30.1629" transform="rotate(2.19926 94.0975 94.115)" fill="white" fill-opacity="0.4"/>
<path fill-rule="evenodd" clip-rule="evenodd" d="M86.9197 75.0611C87.0185 76.0919 86.2629 77.0076 85.2321 77.1064C82.1993 77.3969 78.5151 78.7213 75.3009 80.4697C73.7077 81.3362 72.2776 82.2814 71.1413 83.2083C69.9794 84.1562 69.2307 84.9992 68.8747 85.6356C68.3691 86.5394 67.2267 86.8622 66.3229 86.3566C65.4192 85.8511 65.0964 84.7086 65.6019 83.8049C66.2896 82.5756 67.4484 81.3813 68.771 80.3025C70.1192 79.2027 71.7506 78.1319 73.509 77.1755C76.998 75.2777 81.1776 73.7276 84.8744 73.3734C85.9052 73.2747 86.8209 74.0303 86.9197 75.0611Z" fill="white"/>
<rect x="59.5508" y="108.318" width="12.149" height="28.5" rx="6.07448" transform="rotate(177.576 59.5508 108.318)" fill="#E5E5E5"/>
<path fill-rule="evenodd" clip-rule="evenodd" d="M95.6614 130.124C121.054 131.099 142.361 113.109 143.25 89.9419C144.14 66.775 124.276 47.204 98.8832 46.2288C73.4903 45.2537 52.184 63.2436 51.2944 86.4105C50.4047 109.577 70.2685 129.148 95.6614 130.124ZM67.4624 78.2682C79.8214 69.8916 100.185 64.1805 122.943 80.6879C128.382 84.6333 130.918 91.3197 130.661 98.0343C130.386 105.19 126.957 112.022 120.747 115.589C107.463 123.219 88.7952 128.892 68.0384 114.266C61.8625 109.915 59.1181 102.326 59.408 94.7769C59.6567 88.3011 62.0978 81.9042 67.4624 78.2682Z" fill="#FAFAFA"/>
<path d="M62.0579 88.4549C62.2578 87.651 63.0716 87.1614 63.8756 87.3613L64.6034 87.5423C65.4073 87.7423 65.897 88.5561 65.697 89.36L65.516 90.0879C65.316 90.8918 64.5022 91.3814 63.6983 91.1815L62.9705 91.0004C62.1665 90.8005 61.6769 89.9867 61.8768 89.1827L62.0579 88.4549Z" fill="white"/>
<path fill-rule="evenodd" clip-rule="evenodd" d="M144.441 65.3728C142.84 64.9422 141.612 63.536 141.49 61.7888C141.335 59.585 142.997 57.6733 145.2 57.5188C147.404 57.3643 149.316 59.0255 149.47 61.2292C149.621 63.3735 148.052 65.2414 145.937 65.4829L144.488 84.9937L142.992 84.8825L144.441 65.3728Z" fill="#ACACAC"/>
<rect x="126.867" y="79.4503" width="20.25" height="32.25" rx="10.125" transform="rotate(2.19926 126.867 79.4503)" fill="#E5E5E5"/>
<rect x="130.674" y="79.5897" width="16.5" height="28.5" rx="8.25" transform="rotate(2.19926 130.674 79.5897)" fill="#FAFAFA"/>
<path d="M15.0054 91.1121C23.2705 91.2642 27.514 101.624 21.821 102.67C16.1281 103.717 26.1947 87.9418 32.3633 102.404" stroke="#5991FF" stroke-width="3" stroke-linecap="round"/>
<path fill-rule="evenodd" clip-rule="evenodd" d="M32.745 92.1929C32.0414 91.7556 31.8261 90.831 32.264 90.1278L33.1507 88.7039C33.7982 87.664 33.478 86.2967 32.436 85.6525C30.2365 84.2927 29.3672 81.5271 30.3934 79.1538L31.196 77.2976C31.5247 76.5373 32.4079 76.1871 33.1687 76.5153C33.9294 76.8435 34.2796 77.7259 33.9509 78.4862L33.1483 80.3423C32.7125 81.3502 33.0817 82.5246 34.0157 83.1021C36.4694 84.619 37.2234 87.8388 35.6986 90.2876L34.8119 91.7115C34.374 92.4147 33.4486 92.6303 32.745 92.1929Z" fill="#F97F7F"/>
<rect x="10.5918" y="68.8817" width="3.80063" height="7.05831" rx="1.90031" transform="rotate(25.979 10.5918 68.8817)" fill="#5991FF"/>
<rect x="39.1226" y="96.7317" width="2.2876" height="4.24839" rx="1.1438" transform="rotate(101.402 39.1226 96.7317)" fill="#FFC266"/>
<rect x="27.8398" y="70.3817" width="2.2876" height="4.24839" rx="1.1438" transform="rotate(10.8393 27.8398 70.3817)" fill="#FFC266"/>
<rect x="6.75" y="85.5026" width="2.2876" height="4.24839" rx="1.1438" transform="rotate(-44.5764 6.75 85.5026)" fill="#F97F7F"/>
<path fill-rule="evenodd" clip-rule="evenodd" d="M19.9387 130.746C19.8873 132.535 21.138 134.058 22.8317 134.406C22.2173 135.035 21.8286 135.888 21.8014 136.837C21.7545 138.469 22.7921 139.88 24.2612 140.379C23.8029 140.967 23.5212 141.701 23.4981 142.503C23.4406 144.507 25.0184 146.179 27.0224 146.236L37.9832 146.551C38.423 146.564 38.8468 146.497 39.2411 146.365C46.1985 146.359 51.9343 140.819 52.1354 133.818C52.2269 130.634 51.4672 127.799 49.9069 125.597C47.3701 122.017 43.7778 118.723 43.2007 114.373L43.0789 113.455L-nan -nanL-nan -nanL43.0789 113.455C42.5091 111.28 41.5451 108.736 39.3164 108.436C38.4384 108.317 37.5837 108.592 36.9021 109.431C35.4361 111.235 36.0971 115.065 36.9021 117.48C37.7071 119.895 30.9037 120.199 30.9037 120.199L24.6049 120.018C22.57 119.96 20.8729 121.562 20.8145 123.597C20.7659 125.289 21.865 126.747 23.4062 127.224C21.522 127.306 19.9937 128.832 19.9387 130.746Z" fill="#FAFAFA"/>
<path fill-rule="evenodd" clip-rule="evenodd" d="M23.1654 127.639C23.1734 127.361 23.4048 127.143 23.6823 127.151L32.302 127.398C32.7495 127.411 33.2801 127.493 33.7301 127.816C34.2162 128.165 34.7277 128.712 34.9745 129.466C35.226 130.234 35.1829 131.157 34.6555 132.202C34.5304 132.45 34.2281 132.55 33.9803 132.425C33.7324 132.3 33.6329 131.997 33.758 131.75C34.181 130.911 34.1777 130.263 34.0191 129.779C33.8559 129.28 33.5073 128.894 33.144 128.633C32.9324 128.481 32.6396 128.414 32.2731 128.403L23.6535 128.156C23.376 128.148 23.1575 127.916 23.1654 127.639Z" fill="#E5E5E5"/>
<path fill-rule="evenodd" clip-rule="evenodd" d="M26.1455 120.733C26.1535 120.456 26.3849 120.237 26.6624 120.245L34.4098 120.468C34.8938 120.481 35.4829 120.576 35.9513 120.971C36.3859 121.337 36.8193 121.886 37.0176 122.621C37.2181 123.364 37.1656 124.25 36.7008 125.257C36.5844 125.509 36.2858 125.619 36.0338 125.502C35.7817 125.386 35.6717 125.087 35.7881 124.835C36.1663 124.016 36.1789 123.371 36.047 122.883C35.913 122.386 35.6164 122.003 35.3039 121.74C35.0944 121.564 34.7827 121.484 34.381 121.472L26.6335 121.25C26.356 121.242 26.1375 121.011 26.1455 120.733Z" fill="#E5E5E5"/>
<path fill-rule="evenodd" clip-rule="evenodd" d="M25.6173 140.308C25.6253 140.031 25.8567 139.812 26.1342 139.82L33.3066 140.026C33.8493 140.042 34.4463 140.153 34.9622 140.496C35.5291 140.872 36.0964 141.412 36.3533 142.148C36.6191 142.909 36.5208 143.785 35.932 144.746C35.787 144.983 35.4775 145.057 35.2408 144.912C35.0041 144.767 34.9298 144.458 35.0748 144.221C35.5391 143.463 35.5513 142.9 35.4042 142.479C35.2483 142.033 34.8794 141.647 34.4063 141.333C34.1044 141.133 33.7162 141.044 33.2777 141.031L26.1053 140.825C25.8278 140.817 25.6094 140.586 25.6173 140.308Z" fill="#E5E5E5"/>
<path fill-rule="evenodd" clip-rule="evenodd" d="M36.9492 124.177C37.165 124.002 37.4815 124.036 37.6561 124.251L40.447 127.701L40.4416 127.887C40.4113 128.943 40.641 130.574 41.4179 131.997C42.184 133.401 43.4734 134.594 45.6031 134.871C45.8784 134.907 46.0725 135.159 46.0367 135.434C46.0009 135.71 45.7487 135.904 45.4734 135.868C42.9689 135.542 41.4265 134.111 40.5355 132.479C39.7006 130.949 39.4302 129.237 39.4338 128.047L36.8746 124.884C36.7 124.668 36.7334 124.351 36.9492 124.177Z" fill="#E5E5E5"/>
<path fill-rule="evenodd" clip-rule="evenodd" d="M23.4621 134.086C23.4701 133.808 23.7015 133.59 23.979 133.598L33.2135 133.863C33.7007 133.877 34.2453 133.976 34.7157 134.295C35.2486 134.657 35.8391 135.214 36.1023 135.947C36.3815 136.724 36.2597 137.608 35.5276 138.498C35.3513 138.712 35.0345 138.743 34.8201 138.567C34.6057 138.39 34.5749 138.074 34.7512 137.859C35.2861 137.209 35.3016 136.691 35.1561 136.286C34.9947 135.837 34.5988 135.431 34.1515 135.127C33.8998 134.957 33.5696 134.879 33.1846 134.868L23.9501 134.603C23.6726 134.595 23.4541 134.363 23.4621 134.086Z" fill="#E5E5E5"/>
<path fill-rule="evenodd" clip-rule="evenodd" d="M174.968 106.835C176.173 108.234 176.021 110.352 174.628 111.565L172.843 113.12C174.07 112.735 175.463 113.086 176.358 114.125C177.563 115.524 177.411 117.642 176.018 118.855L172.269 122.121C172.542 122.293 172.795 122.508 173.017 122.766C174.222 124.166 174.07 126.283 172.677 127.496L165.06 134.131C164.754 134.397 164.414 134.597 164.057 134.734C159.102 138.798 151.802 138.191 147.591 133.301C143.938 129.06 143.789 122.965 146.886 118.583L147.4 109.988C147.528 107.845 149.328 106.458 151.419 106.891C153.326 107.285 154.817 109.056 154.968 110.99L163.086 103.919C164.501 102.687 166.639 102.841 167.863 104.262C168.873 105.435 168.944 107.104 168.143 108.344L170.264 106.497C171.657 105.284 173.763 105.435 174.968 106.835Z" fill="#FAFAFA"/>
<path fill-rule="evenodd" clip-rule="evenodd" d="M170.221 122.407C170.054 122.213 169.763 122.192 169.57 122.36L164.582 126.704C164.204 127.033 163.844 127.462 163.676 128.009C163.491 128.61 163.401 129.328 163.646 130.005C163.899 130.705 164.479 131.275 165.457 131.618C165.698 131.703 165.961 131.575 166.045 131.332C166.13 131.09 166.003 130.825 165.762 130.741C164.99 130.47 164.654 130.074 164.514 129.687C164.366 129.276 164.404 128.785 164.559 128.283C164.657 127.963 164.882 127.672 165.187 127.406L170.174 123.063C170.367 122.895 170.388 122.601 170.221 122.407Z" fill="#E5E5E5"/>
<path fill-rule="evenodd" clip-rule="evenodd" d="M154.24 114.493C153.985 114.495 153.779 114.704 153.781 114.96L153.798 119.057L153.91 119.187C154.545 119.923 155.329 121.224 155.603 122.695C155.873 124.146 155.649 125.753 154.295 127.196C154.12 127.382 154.128 127.676 154.313 127.852C154.499 128.027 154.791 128.019 154.966 127.832C156.558 126.136 156.824 124.211 156.51 122.524C156.216 120.942 155.414 119.56 154.72 118.712L154.704 114.955C154.703 114.699 154.495 114.492 154.24 114.493Z" fill="#E5E5E5"/>
<path fill-rule="evenodd" clip-rule="evenodd" d="M170.398 114.617C170.543 114.784 170.525 115.037 170.358 115.182L164.716 120.083C164.549 120.228 164.297 120.211 164.152 120.044C164.007 119.877 164.024 119.624 164.191 119.479L169.833 114.577C170 114.432 170.253 114.45 170.398 114.617Z" fill="#E5E5E5"/>
<path fill-rule="evenodd" clip-rule="evenodd" d="M166.415 110.259C166.56 110.426 166.542 110.679 166.375 110.824L159.525 116.776C159.358 116.921 159.105 116.903 158.96 116.736C158.815 116.569 158.832 116.317 158.999 116.172L165.85 110.219C166.017 110.074 166.27 110.092 166.415 110.259Z" fill="#E5E5E5"/>
<path fill-rule="evenodd" clip-rule="evenodd" d="M161.121 118.01C159.129 116.62 156.93 115.851 155.527 115.571C155.31 115.528 155.169 115.317 155.213 115.1C155.256 114.883 155.467 114.742 155.684 114.786C157.181 115.084 159.486 115.892 161.579 117.353C163.675 118.815 165.589 120.955 166.229 123.922C166.276 124.138 166.139 124.351 165.923 124.397C165.706 124.444 165.493 124.307 165.447 124.09C164.862 121.383 163.111 119.398 161.121 118.01Z" fill="#E5E5E5"/>
</svg>
