<svg width="332" height="307" viewBox="0 0 332 307" fill="none" xmlns="http://www.w3.org/2000/svg">
<ellipse cx="120.815" cy="121.908" rx="120.815" ry="121.323" fill="#F5F8FF"/>
<path d="M148.862 196.766C146.272 194.782 143.144 194.493 141.874 196.12L128.079 213.793C126.81 215.42 127.88 218.347 130.469 220.331L165.17 246.91C175.529 254.845 184.034 252.931 189.113 246.424C194.192 239.917 193.922 231.281 183.563 223.346L148.862 196.766Z" fill="#FFAE4E"/>
<path d="M220.156 207.876C222.127 205.276 222.399 202.146 220.766 200.884L203.021 187.182C201.387 185.921 198.466 187.007 196.496 189.607L170.098 224.446C162.217 234.846 164.176 243.341 170.71 248.386C177.243 253.431 185.878 253.115 193.758 242.715L220.156 207.876Z" fill="#FFAE4E"/>
<path fill-rule="evenodd" clip-rule="evenodd" d="M145.776 140.825C142.98 142.849 142.369 146.741 144.41 149.519L148.323 154.841C146.205 153.219 143.184 153.099 140.916 154.741C138.459 156.519 137.716 159.762 139.012 162.383C137.526 162.213 135.975 162.574 134.672 163.518C132.43 165.14 131.615 167.983 132.475 170.46C131.207 170.455 129.927 170.837 128.825 171.635C126.072 173.628 125.47 177.461 127.48 180.196L138.478 195.158C138.919 195.758 139.449 196.256 140.038 196.645C147.295 205.93 160.716 207.868 170.335 200.906C178.679 194.867 181.47 184.077 177.694 174.996L180.322 159.483C180.977 155.614 178.305 152.401 174.353 152.307C170.75 152.22 167.327 154.756 166.254 158.136L154.534 142.191C152.493 139.413 148.571 138.802 145.776 140.825Z" fill="#FFBA68"/>
<path fill-rule="evenodd" clip-rule="evenodd" d="M148.434 155.814C148.83 155.528 149.385 155.615 149.673 156.008L158.299 167.742C158.764 168.374 159.227 169.201 159.256 170.176C159.286 171.188 159.075 172.435 158.311 173.539C157.533 174.665 156.245 175.554 154.298 175.928C153.817 176.02 153.352 175.708 153.258 175.23C153.165 174.753 153.479 174.291 153.959 174.199C155.508 173.901 156.366 173.24 156.848 172.542C157.344 171.824 157.505 170.974 157.483 170.226C157.47 169.774 157.249 169.299 156.866 168.779L148.241 157.044C147.952 156.651 148.039 156.101 148.434 155.814Z" fill="#FF9C27"/>
<path fill-rule="evenodd" clip-rule="evenodd" d="M133.963 172.172C134.358 171.886 134.913 171.972 135.202 172.365L142.37 182.117C142.934 182.885 143.428 183.834 143.502 184.92C143.58 186.064 143.436 187.376 142.706 188.476C141.951 189.614 140.666 190.381 138.768 190.587C138.281 190.639 137.843 190.29 137.789 189.807C137.735 189.323 138.087 188.889 138.573 188.836C140.058 188.675 140.817 188.121 141.225 187.506C141.658 186.853 141.797 185.982 141.732 185.037C141.69 184.408 141.395 183.777 140.938 183.154L133.77 173.402C133.481 173.009 133.567 172.458 133.963 172.172Z" fill="#FF9C27"/>
<path fill-rule="evenodd" clip-rule="evenodd" d="M166.115 164.62C166.592 164.732 166.887 165.206 166.775 165.679L165.045 172.98L164.78 173.172C163.333 174.219 161.384 176.206 160.284 178.707C159.199 181.172 158.94 184.115 160.78 187.235C161.028 187.654 160.886 188.194 160.464 188.439C160.041 188.684 159.498 188.543 159.25 188.123C157.072 184.432 157.389 180.883 158.658 178C159.844 175.305 161.862 173.174 163.467 171.947L165.048 165.274C165.161 164.801 165.638 164.508 166.115 164.62Z" fill="#FF9C27"/>
<path fill-rule="evenodd" clip-rule="evenodd" d="M140.08 162.868C140.475 162.582 141.03 162.669 141.319 163.062L150.559 175.633C151.066 176.322 151.519 177.185 151.577 178.183C151.641 179.269 151.499 180.63 150.78 181.736C150.016 182.91 148.694 183.652 146.74 183.594C146.25 183.58 145.865 183.174 145.879 182.688C145.893 182.202 146.301 181.819 146.791 181.834C148.203 181.876 148.903 181.373 149.289 180.779C149.721 180.117 149.859 179.187 149.807 178.283C149.776 177.755 149.528 177.216 149.127 176.67L139.887 164.098C139.598 163.705 139.684 163.155 140.08 162.868Z" fill="#FF9C27"/>
<path d="M276.821 214.157C275.317 211.277 275.575 208.168 277.397 207.213L297.186 196.841C299.008 195.887 301.703 197.448 303.206 200.328L323.351 238.922C329.364 250.444 326.005 258.42 318.719 262.239C311.433 266.057 302.979 264.273 296.965 252.752L276.821 214.157Z" fill="#FFAE4E"/>
<path d="M208.349 234.201C206.452 236.368 202.96 236.409 200.548 234.292L174.348 211.29C171.936 209.172 171.518 205.699 173.415 203.531L198.825 174.487C206.411 165.816 220.381 165.653 230.028 174.122C239.675 182.591 241.345 196.486 233.76 205.156L208.349 234.201Z" fill="#4C8BFF"/>
<path d="M273.347 233.603C274.883 236.039 278.327 236.622 281.038 234.906L310.496 216.255C313.207 214.538 314.159 211.172 312.623 208.736L292.035 176.095C285.889 166.351 272.114 164.018 261.268 170.886C250.422 177.753 246.612 191.219 252.759 200.963L273.347 233.603Z" fill="#4C8BFF"/>
<path d="M195.289 206.583C195.289 185.529 200.248 164.43 217.79 164.43H266.492C284.034 164.43 291.279 177.99 291.279 199.044L287.841 260.845C287.583 264.66 284.478 267.835 280.291 268.565C253.982 273.152 230.765 273.152 204.455 268.565C200.315 267.843 195.614 264.613 195.289 260.845V206.583Z" fill="#4C8BFF"/>
<path d="M222.506 152.419C221.217 144.564 225.333 137.348 231.7 136.304L247.839 133.655C254.206 132.61 260.413 138.132 261.702 145.988L264.036 160.212C265.325 168.068 261.209 175.283 254.842 176.328L238.702 178.976C232.336 180.021 226.129 174.5 224.84 166.644L222.506 152.419Z" fill="#FFAB48"/>
<path d="M312.11 111.247C314.227 124.148 305.065 136.391 291.647 138.593C278.228 140.795 265.634 132.122 263.517 119.221C261.4 106.32 270.562 94.0763 283.98 91.8743C297.399 89.6724 309.993 98.3457 312.11 111.247Z" fill="#FF9C27"/>
<path d="M222.294 118.486C224.411 131.387 215.25 143.63 201.831 145.832C188.412 148.034 175.818 139.361 173.701 126.46C171.584 113.558 180.746 101.315 194.165 99.1131C207.583 96.9112 220.177 105.584 222.294 118.486Z" fill="#ED8000"/>
<path d="M298.933 99.9389C303.818 129.705 280.398 158.328 246.623 163.87C212.849 169.412 177.591 146.207 188.022 122.621C172.085 92.8448 195.16 61.6206 228.935 56.0783C262.709 50.536 294.049 70.173 298.933 99.9389Z" fill="#FFBA68"/>
<path d="M299.363 99.9755C304.272 129.889 280.237 158.737 245.68 164.407C211.122 170.078 175.132 146.849 185.868 123.104C169.656 93.2116 193.346 61.75 227.903 56.0792C262.461 50.4085 294.455 70.0615 299.363 99.9755Z" fill="#FFBA68"/>
<mask id="mask0_1511_58365" style="mask-type:alpha" maskUnits="userSpaceOnUse" x="180" y="55" width="120" height="111">
<path d="M299.363 99.9755C304.272 129.889 280.237 158.737 245.68 164.407C211.122 170.078 175.132 146.849 185.868 123.104C169.656 93.2116 193.346 61.75 227.903 56.0792C262.461 50.4085 294.455 70.0615 299.363 99.9755Z" fill="#FFBA68"/>
</mask>
<g mask="url(#mask0_1511_58365)">
<path d="M302.367 128.51C304.432 141.096 295.42 153.053 282.237 155.217C269.054 157.38 256.693 148.93 254.627 136.344C252.562 123.757 261.575 111.801 274.757 109.637C287.94 107.474 300.301 115.924 302.367 128.51Z" fill="#FF9A24"/>
<path d="M211.883 139.609C213.949 152.196 204.936 164.152 191.753 166.316C178.571 168.479 166.209 160.029 164.144 147.443C162.079 134.857 171.091 122.9 184.274 120.736C197.457 118.573 209.818 127.023 211.883 139.609Z" fill="#FF9A24"/>
</g>
<path d="M231.059 127.205C231.281 128.558 230.32 129.842 228.913 130.073C227.506 130.304 226.185 129.394 225.963 128.041C225.741 126.688 226.701 125.404 228.109 125.173C229.516 124.942 230.837 125.852 231.059 127.205Z" fill="#030303"/>
<path d="M219.15 117.804C219.573 120.379 217.634 122.841 214.819 123.303C212.004 123.765 209.38 122.052 208.957 119.477C208.534 116.901 210.474 114.439 213.288 113.977C216.103 113.515 218.728 115.228 219.15 117.804Z" fill="#030303"/>
<path fill-rule="evenodd" clip-rule="evenodd" d="M215.566 111.548C216.205 112.317 216.029 113.434 215.174 114.044C214.709 114.375 214.027 115.009 213.586 115.732C213.147 116.451 213.086 117.007 213.283 117.451C213.682 118.35 213.204 119.397 212.214 119.79C211.224 120.183 210.098 119.773 209.698 118.874C208.893 117.063 209.465 115.312 210.226 114.063C210.984 112.819 212.066 111.825 212.861 111.258C213.716 110.649 214.927 110.779 215.566 111.548Z" fill="#030303"/>
<path d="M252.529 114.826C252.952 117.402 251.012 119.864 248.198 120.326C245.383 120.788 242.758 119.074 242.336 116.499C241.913 113.924 243.852 111.461 246.667 110.999C249.482 110.538 252.106 112.251 252.529 114.826Z" fill="#030303"/>
<path fill-rule="evenodd" clip-rule="evenodd" d="M248.945 108.57C249.584 109.339 249.408 110.457 248.553 111.066C248.088 111.397 247.405 112.031 246.964 112.755C246.526 113.474 246.464 114.03 246.662 114.473C247.061 115.372 246.583 116.419 245.593 116.812C244.603 117.206 243.477 116.795 243.077 115.896C242.272 114.085 242.844 112.334 243.605 111.086C244.363 109.842 245.445 108.847 246.24 108.281C247.095 107.672 248.306 107.801 248.945 108.57Z" fill="#030303"/>
<path fill-rule="evenodd" clip-rule="evenodd" d="M221.185 138.627C230.706 140.22 240.542 138.979 249.387 135.068C250.336 134.648 250.743 133.654 250.296 132.848C249.848 132.042 248.716 131.729 247.766 132.149C239.701 135.715 230.731 136.846 222.048 135.394C221.026 135.223 220.004 135.808 219.765 136.7C219.527 137.593 220.162 138.455 221.185 138.627Z" fill="#A75A00"/>
<path fill-rule="evenodd" clip-rule="evenodd" d="M211.452 106.126C209.665 106.689 208.335 107.845 207.7 108.678C207.105 109.456 205.974 109.631 205.173 109.068C204.372 108.505 204.205 107.418 204.799 106.639C205.821 105.301 207.753 103.644 210.369 102.82C213.063 101.971 216.371 102.046 219.924 104.067C220.778 104.552 221.053 105.618 220.537 106.447C220.022 107.276 218.912 107.554 218.058 107.069C215.394 105.553 213.16 105.588 211.452 106.126Z" fill="#905A09"/>
<path fill-rule="evenodd" clip-rule="evenodd" d="M248.365 101.317C246.578 101.88 245.248 103.037 244.613 103.869C244.018 104.648 242.887 104.823 242.086 104.26C241.285 103.697 241.118 102.609 241.712 101.831C242.734 100.493 244.666 98.8353 247.282 98.0112C249.976 97.1624 253.284 97.2369 256.837 99.2579C257.691 99.7438 257.966 100.81 257.451 101.639C256.935 102.468 255.826 102.746 254.971 102.26C252.307 100.744 250.073 100.779 248.365 101.317Z" fill="#905A09"/>
<path d="M206.146 44.1497C225.485 48.943 235.643 26.8995 271.754 47.0148C280.644 44.842 267.922 15.1511 283.263 31.1566C295.536 43.961 286.693 48.8871 280.948 48.442C304.896 59.9194 319.638 109.022 292.206 108.116C258.931 107.017 261.113 61.3799 253.931 72.6615C246.748 83.9431 191.705 121.766 177.23 118.172C167.04 115.642 165.466 102.555 174.766 97.6882C173.405 96.5089 166.91 98.3346 163.892 89.4682C160.874 80.6019 180.657 62.1205 189.416 57.1885C188.252 47.5155 185.694 39.0806 206.146 44.1497Z" fill="#030303"/>
<path fill-rule="evenodd" clip-rule="evenodd" d="M266.826 165.467C269.034 167.158 269.453 170.317 267.762 172.525L266.014 174.807C260.696 181.752 252.448 185.824 243.701 185.824C235.285 185.824 227.312 182.053 221.973 175.547L219.602 172.657C217.839 170.508 218.152 167.336 220.301 165.572C222.45 163.809 225.622 164.121 227.386 166.271L229.757 169.16C233.183 173.336 238.3 175.756 243.701 175.756C249.314 175.756 254.608 173.143 258.021 168.686L259.769 166.403C261.459 164.196 264.619 163.777 266.826 165.467Z" fill="#337AFF"/>
<path fill-rule="evenodd" clip-rule="evenodd" d="M200.657 189.549C201.305 189.771 201.651 190.477 201.429 191.125C197.917 201.392 197.359 213.893 197.358 226.306C197.358 226.992 196.803 227.547 196.117 227.547C195.432 227.547 194.876 226.992 194.876 226.306C194.876 213.894 195.421 201.019 199.08 190.322C199.302 189.673 200.008 189.327 200.657 189.549Z" fill="#337AFF"/>
<path fill-rule="evenodd" clip-rule="evenodd" d="M267.894 193.655C268.56 193.493 269.231 193.902 269.393 194.569C269.827 196.358 270.185 198.08 270.535 199.765C271.271 203.309 271.973 206.688 273.28 210.186C275.169 215.241 278.31 220.441 284.659 226.167C285.168 226.626 285.208 227.411 284.749 227.92C284.29 228.429 283.505 228.469 282.996 228.01C276.361 222.026 272.987 216.495 270.955 211.055C269.581 207.378 268.813 203.691 268.055 200.048C267.713 198.406 267.373 196.773 266.98 195.154C266.819 194.488 267.228 193.817 267.894 193.655Z" fill="#337AFF"/>
<path fill-rule="evenodd" clip-rule="evenodd" d="M193.251 289.63C189.457 292.186 187.339 296.335 186.525 299.361C186.346 300.024 186.738 300.705 187.399 300.883C188.06 301.06 188.74 300.666 188.919 300.004C189.63 297.364 191.48 293.815 194.631 291.692C197.687 289.634 202.175 288.774 208.56 291.82C215.646 295.2 221.323 294.256 225.495 291.534C229.58 288.87 232.086 284.597 233.166 281.476C233.39 280.827 233.048 280.12 232.401 279.896C231.754 279.673 231.047 280.017 230.823 280.666C229.868 283.425 227.643 287.171 224.146 289.452C220.737 291.676 215.98 292.605 209.63 289.575C202.577 286.211 197.141 287.01 193.251 289.63Z" fill="#030303"/>
<rect width="54.615" height="36.563" rx="18.2815" transform="matrix(-1 0 0 1 274.076 253.8)" fill="#393939"/>
<path d="M208.53 187.996C208.53 181.379 203.189 176.015 196.6 176.015H71.5107C64.9217 176.015 59.5803 181.379 59.5803 187.996V263.752C59.5803 270.368 64.9217 275.732 71.5107 275.732H196.6C203.189 275.732 208.53 270.368 208.53 263.752V187.996Z" fill="#BEBEBE"/>
<rect width="148.834" height="24.1551" rx="12.0775" transform="matrix(-1 0 0 1 208.53 280.184)" fill="#BEBEBE"/>
<rect width="58.878" height="27.0608" rx="13.5304" transform="matrix(4.35285e-08 1 1 -4.3895e-08 114.865 231.874)" fill="#AAAAAA"/>
<path fill-rule="evenodd" clip-rule="evenodd" d="M199.509 197.528C198.886 197.528 198.382 198.035 198.382 198.66V254.19C198.382 257.503 196.708 260.59 193.938 262.389C192.365 263.411 190.531 263.954 188.658 263.954H155.911C155.289 263.954 154.784 264.461 154.784 265.087C154.784 265.712 155.289 266.219 155.911 266.219H188.658C190.966 266.219 193.224 265.549 195.162 264.291C198.575 262.075 200.637 258.271 200.637 254.19V198.66C200.637 198.035 200.132 197.528 199.509 197.528Z" fill="#A3A3A3"/>
<path fill-rule="evenodd" clip-rule="evenodd" d="M45.9113 121.4C34.2658 121.4 24.8252 130.88 24.8252 142.575V172.219C24.8252 183.913 34.2658 193.393 45.9113 193.393H93.5594C97.7769 198.13 104.208 202.85 113.703 206.202C114.408 206.451 115.002 205.233 114.434 204.745C111.188 201.958 107.935 197.9 106.973 192.988C116.642 191.06 123.93 182.494 123.93 172.219V142.575C123.93 130.88 114.49 121.4 102.844 121.4H45.9113Z" fill="#337AFF"/>
<path d="M266.11 270.266C262.865 270.428 260.149 268.888 260.043 266.826L258.893 244.419C258.787 242.356 261.332 240.553 264.578 240.391L308.059 238.216C321.039 237.567 326.88 243.979 327.304 252.229C327.727 260.479 322.572 267.442 309.591 268.091L266.11 270.266Z" fill="#FFAE4E"/>
<path fill-rule="evenodd" clip-rule="evenodd" d="M243.611 242.044L235.701 247.512C233.804 248.824 232.692 251.241 232.872 253.665C232.977 255.078 233.514 256.37 234.39 257.321L234.824 257.793C234.866 257.838 234.908 257.883 234.951 257.927L230.638 267.328C229.313 270.215 230.571 273.635 233.447 274.965C235.192 275.773 237.132 275.625 238.684 274.739C238.307 277.338 239.776 279.934 242.329 280.874C244.874 281.811 247.658 280.793 249.047 278.579C249.243 280.508 250.421 282.287 252.303 283.158C254.609 284.224 257.261 283.598 258.871 281.793C259.433 282.811 260.311 283.666 261.445 284.191C264.277 285.501 267.631 284.257 268.935 281.413L276.071 265.858C276.358 265.234 276.521 264.585 276.573 263.937C280.808 253.938 276.38 242.303 266.486 237.726C258.513 234.038 249.378 236.037 243.611 242.044Z" fill="#FFBA68"/>
<path fill-rule="evenodd" clip-rule="evenodd" d="M260.323 281.454C259.901 281.547 259.484 281.28 259.391 280.856C259.215 280.053 259.073 278.713 259.189 277.216C259.304 275.72 259.682 274.009 260.591 272.507C260.816 272.137 261.297 272.019 261.666 272.245C262.034 272.47 262.152 272.953 261.927 273.324C261.186 274.546 260.851 275.993 260.748 277.338C260.644 278.682 260.775 279.866 260.918 280.518C261.011 280.942 260.745 281.361 260.323 281.454Z" fill="#FF9C27"/>
<path fill-rule="evenodd" clip-rule="evenodd" d="M250.006 278.612C249.577 278.66 249.19 278.35 249.142 277.919C249.051 277.101 249.051 275.754 249.324 274.278C249.597 272.802 250.152 271.14 251.215 269.744C251.477 269.4 251.968 269.334 252.311 269.597C252.654 269.86 252.719 270.353 252.457 270.698C251.592 271.835 251.106 273.238 250.861 274.564C250.617 275.889 250.622 277.081 250.696 277.745C250.744 278.176 250.435 278.564 250.006 278.612Z" fill="#FF9C27"/>
<path fill-rule="evenodd" clip-rule="evenodd" d="M240.357 273.092C239.926 273.11 239.561 272.774 239.543 272.341C239.508 271.518 239.6 270.175 239.973 268.721C240.345 267.267 241.013 265.648 242.168 264.328C242.453 264.002 242.947 263.97 243.271 264.256C243.596 264.543 243.628 265.039 243.342 265.364C242.402 266.439 241.822 267.806 241.487 269.112C241.152 270.417 241.077 271.607 241.105 272.274C241.124 272.707 240.789 273.073 240.357 273.092Z" fill="#FF9C27"/>
<path d="M114.011 158.759L113.285 154.372V151.375H115.695V154.372L114.984 158.759H114.011ZM114.475 162.344C113.98 162.344 113.625 162.23 113.409 162.004C113.203 161.777 113.1 161.499 113.1 161.169V160.799C113.1 160.469 113.203 160.191 113.409 159.964C113.625 159.738 113.98 159.624 114.475 159.624C114.969 159.624 115.319 159.738 115.525 159.964C115.741 160.191 115.85 160.469 115.85 160.799V161.169C115.85 161.499 115.741 161.777 115.525 162.004C115.319 162.23 114.969 162.344 114.475 162.344Z" fill="white"/>
<path d="M103.809 162.158V151.375H111.147V153.46H106.157V155.669H110.436V157.74H106.157V160.072H111.147V162.158H103.809Z" fill="white"/>
<path d="M99.2819 153.46V162.158H96.9336V153.46H94.0137V151.375H102.202V153.46H99.2819Z" fill="white"/>
<path d="M85.4014 162.158V151.375H92.7398V153.46H87.7497V155.669H92.0291V157.74H87.7497V160.072H92.7398V162.158H85.4014Z" fill="white"/>
<path d="M77.209 162.158V151.375H79.5573V160.072H83.6668V162.158H77.209Z" fill="white"/>
<path d="M67.0693 162.158V151.375H72.1676C72.6723 151.375 73.1255 151.462 73.5271 151.637C73.9288 151.802 74.2687 152.034 74.5468 152.332C74.8352 152.631 75.0566 152.997 75.2111 153.429C75.3656 153.852 75.4429 154.315 75.4429 154.82C75.4429 155.335 75.3656 155.803 75.2111 156.226C75.0566 156.648 74.8352 157.008 74.5468 157.307C74.2687 157.606 73.9288 157.843 73.5271 158.018C73.1255 158.183 72.6723 158.265 72.1676 158.265H69.4176V162.158H67.0693ZM69.4176 156.226H71.8895C72.2397 156.226 72.5126 156.138 72.7083 155.963C72.9143 155.778 73.0173 155.51 73.0173 155.16V154.48C73.0173 154.13 72.9143 153.867 72.7083 153.692C72.5126 153.507 72.2397 153.414 71.8895 153.414H69.4176V156.226Z" fill="white"/>
<path d="M62.4776 155.082H62.4313L61.6434 156.658L59.5423 160.474L57.4875 156.674L56.6687 154.974H56.6223V162.158H54.4131V151.375H56.9004L59.5423 156.426H59.5732L62.1841 151.375H64.6869V162.158H62.4776V155.082Z" fill="white"/>
<path d="M47.7088 162.344C46.9981 162.344 46.3492 162.226 45.7621 161.989C45.1751 161.752 44.6755 161.402 44.2636 160.938C43.8516 160.465 43.5323 159.883 43.3057 159.193C43.0791 158.492 42.9658 157.684 42.9658 156.767C42.9658 155.85 43.0791 155.047 43.3057 154.357C43.5323 153.657 43.8516 153.075 44.2636 152.611C44.6755 152.137 45.1751 151.782 45.7621 151.545C46.3492 151.308 46.9981 151.19 47.7088 151.19C48.4194 151.19 49.0683 151.308 49.6554 151.545C50.2424 151.782 50.742 152.137 51.1539 152.611C51.5659 153.075 51.8852 153.657 52.1118 154.357C52.3384 155.047 52.4517 155.85 52.4517 156.767C52.4517 157.684 52.3384 158.492 52.1118 159.193C51.8852 159.883 51.5659 160.465 51.1539 160.938C50.742 161.402 50.2424 161.752 49.6554 161.989C49.0683 162.226 48.4194 162.344 47.7088 162.344ZM47.7088 160.259C48.4194 160.259 48.9704 160.027 49.3618 159.563C49.7635 159.1 49.9644 158.436 49.9644 157.571V155.964C49.9644 155.099 49.7635 154.434 49.3618 153.971C48.9704 153.507 48.4194 153.276 47.7088 153.276C46.9981 153.276 46.4419 153.507 46.0402 153.971C45.6488 154.434 45.4532 155.099 45.4532 155.964V157.571C45.4532 158.436 45.6488 159.1 46.0402 159.563C46.4419 160.027 46.9981 160.259 47.7088 160.259Z" fill="white"/>
<path d="M37.8734 162.344C37.1422 162.344 36.483 162.231 35.8959 162.004C35.3089 161.768 34.8093 161.423 34.3974 160.969C33.9854 160.506 33.6661 159.934 33.4395 159.254C33.2129 158.564 33.0996 157.761 33.0996 156.844C33.0996 155.938 33.2129 155.135 33.4395 154.434C33.6661 153.724 33.9854 153.131 34.3974 152.658C34.8093 152.174 35.3089 151.808 35.8959 151.561C36.483 151.314 37.1422 151.19 37.8734 151.19C38.8725 151.19 39.6965 151.396 40.3453 151.808C40.9942 152.21 41.5143 152.848 41.9057 153.724L39.8819 154.774C39.7377 154.321 39.5111 153.961 39.2021 153.693C38.9034 153.415 38.4605 153.276 37.8734 153.276C37.1834 153.276 36.6272 153.502 36.2049 153.955C35.7929 154.398 35.5869 155.047 35.5869 155.902V157.632C35.5869 158.487 35.7929 159.141 36.2049 159.594C36.6272 160.037 37.1834 160.259 37.8734 160.259C38.4502 160.259 38.9086 160.104 39.2484 159.795C39.5986 159.476 39.8561 159.095 40.0209 158.652L41.9366 159.764C41.5349 160.588 41.0045 161.227 40.3453 161.68C39.6965 162.123 38.8725 162.344 37.8734 162.344Z" fill="white"/>
</svg>
