<svg width="48" height="48" viewBox="0 0 48 48" fill="none" xmlns="http://www.w3.org/2000/svg">
<circle cx="24" cy="24" r="23.75" stroke="#CCCCCC" stroke-width="0.5"/>
<g clip-path="url(#clip0_534_17488)">
<path d="M24.4812 13.4399C17.852 13.4399 12.48 17.686 12.48 22.9266C12.48 26.3361 14.7562 29.3273 18.173 30.998C17.9225 31.9342 17.2634 34.3928 17.1321 34.9181C16.9692 35.5698 17.3704 35.5625 17.6331 35.3875C17.8398 35.2488 20.921 33.1526 22.2512 32.2504C22.9734 32.3574 23.7176 32.4133 24.4788 32.4133C31.1056 32.4133 36.48 28.1673 36.48 22.9266C36.48 17.686 31.108 13.4399 24.4812 13.4399Z" fill="#371D1E"/>
<path d="M16.1083 21.1804H17.3436C17.3436 21.1804 17.3509 24.5728 17.3436 25.3632C17.3436 25.9395 18.6277 25.9468 18.6277 25.3705L18.6325 21.2242C18.6325 21.2242 19.0459 21.2266 19.8606 21.2266C20.6291 21.2266 20.6291 20.018 19.8606 20.018C18.9949 20.018 16.1034 19.9937 16.1034 19.9937C15.3787 19.9937 15.3811 21.178 16.1034 21.178" fill="#FAE100"/>
<mask id="mask0_534_17488" style="mask-type:luminance" maskUnits="userSpaceOnUse" x="15" y="19" width="6" height="7">
<path d="M16.1083 21.1804H17.3436C17.3436 21.1804 17.3509 24.5728 17.3436 25.3632C17.3436 25.9395 18.6277 25.9468 18.6277 25.3705L18.6325 21.2242C18.6325 21.2242 19.0459 21.2266 19.8606 21.2266C20.6291 21.2266 20.6291 20.018 19.8606 20.018C18.9949 20.018 16.1034 19.9937 16.1034 19.9937C15.3787 19.9937 15.3811 21.178 16.1034 21.178" fill="white"/>
</mask>
<g mask="url(#mask0_534_17488)">
<path d="M20.6315 19.9961H15.3811V25.9493H20.6315V19.9961Z" fill="#FAE100"/>
</g>
<path d="M22.0201 21.3994L22.7084 23.554H21.276L22.0201 21.3994ZM21.2492 20.3902C20.9453 21.0589 19.8485 24.2203 19.4837 25.0593C19.2211 25.6648 20.3568 26.1585 20.6194 25.553L20.8674 24.6897H23.1266C23.1266 24.6897 23.0488 24.7262 23.3479 25.5165C23.5911 26.1585 24.7657 25.7135 24.5201 25.0715C24.1723 24.1547 22.9734 20.8571 22.7546 20.3902C22.6549 20.1737 22.2925 20.0205 21.9423 20.0205C21.6529 20.0205 21.3684 20.1275 21.2492 20.3902Z" fill="#FAE100"/>
<mask id="mask1_534_17488" style="mask-type:luminance" maskUnits="userSpaceOnUse" x="19" y="20" width="6" height="6">
<path d="M22.0201 21.3994L22.7084 23.554H21.276L22.0201 21.3994ZM21.2492 20.3902C20.9453 21.0589 19.8485 24.2203 19.4837 25.0593C19.2211 25.6648 20.3568 26.1585 20.6194 25.553L20.8674 24.6897H23.1266C23.1266 24.6897 23.0488 24.7262 23.3479 25.5165C23.5911 26.1585 24.7657 25.7135 24.5201 25.0715C24.1723 24.1547 22.9734 20.8571 22.7546 20.3902C22.6549 20.1737 22.2925 20.0205 21.9423 20.0205C21.6529 20.0205 21.3684 20.1275 21.2492 20.3902Z" fill="white"/>
</mask>
<g mask="url(#mask1_534_17488)">
<path d="M24.7681 20.0205H19.2211V26.1609H24.7681V20.0205Z" fill="#FAE100"/>
</g>
<path d="M24.9553 20.5896C24.9553 21.6644 24.9626 25.1274 24.9626 25.1274C24.9626 25.1274 24.8629 25.8156 25.4539 25.8156C26.0448 25.8156 27.3531 25.8083 27.9343 25.8083C28.5156 25.8083 28.5107 24.5729 27.9319 24.5729C27.3531 24.5729 26.2928 24.5656 26.2928 24.5656C26.2928 24.5656 26.2977 21.3629 26.2953 20.5847C26.2953 20.2078 25.9597 20.0205 25.6265 20.0205C25.2934 20.0205 24.9578 20.2102 24.9578 20.5871" fill="#FAE100"/>
<mask id="mask2_534_17488" style="mask-type:luminance" maskUnits="userSpaceOnUse" x="24" y="20" width="5" height="6">
<path d="M24.9553 20.5896C24.9553 21.6644 24.9626 25.1274 24.9626 25.1274C24.9626 25.1274 24.8629 25.8156 25.4539 25.8156C26.0448 25.8156 27.3531 25.8083 27.9343 25.8083C28.5156 25.8083 28.5107 24.5729 27.9319 24.5729C27.3531 24.5729 26.2928 24.5656 26.2928 24.5656C26.2928 24.5656 26.2977 21.3629 26.2953 20.5847C26.2953 20.2078 25.9597 20.0205 25.6265 20.0205C25.2934 20.0205 24.9578 20.2102 24.9578 20.5871" fill="white"/>
</mask>
<g mask="url(#mask2_534_17488)">
<path d="M28.5131 20.0205H24.8629V25.8132H28.5131V20.0205Z" fill="#FAE100"/>
</g>
<path d="M28.6688 20.4169C28.6809 20.8887 28.6542 25.1469 28.6542 25.463C28.6542 25.9615 29.9236 25.9591 29.9212 25.463C29.9212 24.8842 29.9212 23.7875 29.9212 23.7875L30.2932 23.4883L31.9226 25.7111C32.2509 26.1464 33.2869 25.3609 32.9586 24.9256L31.2295 22.6469C31.2295 22.6469 32.4041 21.3775 32.8662 20.9179C33.1361 20.6504 32.2995 19.8065 32.0296 20.0765C31.767 20.3367 29.9285 22.1776 29.9285 22.1776C29.9285 22.1776 29.9455 21.0224 29.9285 20.3829C29.9212 20.1397 29.6245 20.0229 29.3205 20.0229C28.9946 20.0229 28.6615 20.1567 28.6688 20.4169Z" fill="#FAE100"/>
<mask id="mask3_534_17488" style="mask-type:luminance" maskUnits="userSpaceOnUse" x="28" y="20" width="6" height="6">
<path d="M28.6688 20.4169C28.6809 20.8887 28.6542 25.1469 28.6542 25.463C28.6542 25.9615 29.9236 25.9591 29.9212 25.463C29.9212 24.8842 29.9212 23.7875 29.9212 23.7875L30.2932 23.4883L31.9226 25.7111C32.2509 26.1464 33.2869 25.3609 32.9586 24.9256L31.2295 22.6469C31.2295 22.6469 32.4041 21.3775 32.8662 20.9179C33.1361 20.6504 32.2995 19.8065 32.0296 20.0765C31.767 20.3367 29.9285 22.1776 29.9285 22.1776C29.9285 22.1776 29.9455 21.0224 29.9285 20.3829C29.9212 20.1397 29.6245 20.0229 29.3205 20.0229C28.9946 20.0229 28.6615 20.1567 28.6688 20.4169Z" fill="white"/>
</mask>
<g mask="url(#mask3_534_17488)">
<path d="M33.2893 19.8091H28.6542V26.1441H33.2893V19.8091Z" fill="#FAE100"/>
</g>
</g>
<defs>
<clipPath id="clip0_534_17488">
<rect width="24" height="22.0497" fill="white" transform="translate(12.48 13.4399)"/>
</clipPath>
</defs>
</svg>
