<svg width="312" height="43" viewBox="0 0 312 43" fill="none" xmlns="http://www.w3.org/2000/svg">
<path opacity="0.5" d="M188.569 0.662109L171.918 0.662109V42.7754H188.569V0.662109Z" fill="#0059FF"/>
<path opacity="0.5" d="M215.046 30.3875L171.918 30.3875V42.7375L215.046 42.7375V30.3875Z" fill="#0059FF"/>
<path opacity="0.5" d="M14.5918 0.775391H43.1386V28.8526H14.475C6.48936 28.8526 0 22.5853 0 14.8729C0 7.09392 6.53712 0.775391 14.5918 0.775391Z" fill="#0059FF"/>
<path opacity="0.5" d="M28.6641 42.8914L0.000539281 42.8914L0.000539281 14.8141L28.5474 14.8141C36.602 14.8193 43.1392 21.1327 43.1392 28.9117C43.1392 36.6292 36.6498 42.8914 28.6641 42.8914Z" fill="#0059FF"/>
<path opacity="0.5" d="M66.195 0.775391H49.5444V42.8887H66.195V0.775391Z" fill="#0059FF"/>
<path opacity="0.5" d="M92.6724 0.775391H49.5444V13.1255H92.6724V0.775391Z" fill="#0059FF"/>
<path opacity="0.5" d="M82.8508 17.832H49.5444V29.9771H82.8508V17.832Z" fill="#0059FF"/>
<path opacity="0.5" d="M86.0723 42.8887H107.753V0.775391L86.0723 42.8887Z" fill="#0059FF"/>
<path opacity="0.72" d="M107.754 42.8887H129.44L107.754 0.775391V42.8887Z" fill="#0059FF"/>
<path opacity="0.5" d="M136.172 37.0761C140.115 40.7402 145.458 43.0001 151.358 43.0001C157.683 43.0001 163.366 40.3968 167.367 36.2562L152.191 21.6001L136.167 37.0761H136.172Z" fill="#0059FF"/>
<path opacity="0.5" d="M151.36 0.6604C145.581 0.6604 140.339 2.83832 136.423 6.36911L152.198 21.6043L167.15 7.16341C163.16 3.16116 157.568 0.6604 151.365 0.6604L151.36 0.6604Z" fill="#0059FF"/>
<path opacity="0.72" d="M136.422 6.3667C132.135 10.2306 129.439 15.7189 129.439 21.8274C129.439 27.9358 132.029 33.2243 136.173 37.0728L152.197 21.5968L136.422 6.36157V6.3667Z" fill="#0059FF"/>
<path opacity="0.5" d="M312 21.1658C312 23.9922 311.437 26.7909 310.344 29.4022C309.25 32.0135 307.648 34.3862 305.628 36.3848C303.608 38.3834 301.209 39.9688 298.57 41.0504C295.931 42.132 293.102 42.6887 290.245 42.6887C287.388 42.6887 284.559 42.132 281.919 41.0504C279.28 39.9688 276.882 38.3834 274.862 36.3848C272.842 34.3862 271.239 32.0135 270.146 29.4022C269.052 26.791 268.49 23.9922 268.49 21.1658L290.245 21.1658L312 21.1658Z" fill="#0059FF"/>
<path opacity="0.5" d="M290.775 42.6831C287.849 42.6831 284.951 42.1397 282.247 41.0838C279.543 40.0279 277.086 38.4803 275.017 36.5293C272.948 34.5783 271.306 32.2621 270.186 29.713C269.066 27.1639 268.49 24.4318 268.49 21.6726C268.49 18.9135 269.066 16.1814 270.186 13.6323C271.306 11.0831 272.948 8.76695 275.017 6.81595C277.086 4.86494 279.543 3.31732 282.247 2.26144C284.951 1.20556 287.849 0.662108 290.775 0.662108L290.775 21.6726L290.775 42.6831Z" fill="#0059FF"/>
<path opacity="0.5" d="M262.653 21.008C262.653 23.8345 262.09 26.6332 260.997 29.2445C259.904 31.8558 258.301 34.2285 256.281 36.2271C254.261 38.2257 251.863 39.811 249.223 40.8927C246.584 41.9743 243.755 42.531 240.898 42.531C238.041 42.531 235.212 41.9743 232.573 40.8927C229.933 39.811 227.535 38.2257 225.515 36.2271C223.495 34.2285 221.892 31.8558 220.799 29.2445C219.706 26.6332 219.143 23.8345 219.143 21.008L240.898 21.008L262.653 21.008Z" fill="#0059FF"/>
<path opacity="0.5" d="M262.653 21.0105C262.653 16.855 261.377 12.7929 258.987 9.33771C256.596 5.88255 253.199 3.18958 249.223 1.59934C245.248 0.00910352 240.874 -0.406975 236.654 0.403721C232.434 1.21442 228.557 3.21547 225.515 6.15385C222.472 9.09222 220.401 12.8359 219.561 16.9116C218.722 20.9872 219.152 25.2117 220.799 29.0509C222.446 32.8901 225.234 36.1715 228.812 38.4801C232.389 40.7888 236.595 42.021 240.898 42.021V21.0105H262.653Z" fill="#0059FF"/>
</svg>
