<svg width="200" height="200" viewBox="0 0 200 200" fill="none" xmlns="http://www.w3.org/2000/svg">
<ellipse cx="94" cy="88.3067" rx="73" ry="73.3067" fill="#F5F8FF"/>
<path fill-rule="evenodd" clip-rule="evenodd" d="M52.1589 90.905C51.4474 90.3986 51.2817 89.4121 51.7887 88.7016C54.0756 85.4973 54.3675 83.4141 54.0831 82.1859C53.9892 81.7802 53.8192 81.4141 53.584 81.0883C52.8091 81.8776 51.9047 82.4941 50.9061 82.8122C49.1349 83.3763 47.2905 82.92 45.8713 81.3326C45.1938 80.5749 44.6476 79.5036 45.035 78.3287C45.3947 77.2379 46.3661 76.6913 47.1109 76.4325C48.6586 75.8947 50.8301 75.9987 52.7088 76.7093C52.7206 76.7137 52.7324 76.7182 52.7442 76.7227C53.7629 74.4281 53.9485 71.3457 52.3431 68.602C51.9023 67.8487 52.1564 66.8812 52.9107 66.4411C53.6649 66.001 54.6337 66.2549 55.0745 67.0082C57.367 70.9264 56.9773 75.2829 55.4424 78.4169C56.2401 79.1988 56.8718 80.2067 57.1654 81.4745C57.7438 83.9722 56.8909 86.9965 54.365 90.5357C53.858 91.2461 52.8703 91.4115 52.1589 90.905ZM50.7118 79.4037C49.791 79.2005 48.9219 79.2173 48.3527 79.3574C48.9184 79.9219 49.4351 79.9642 49.9445 79.802C50.1835 79.7259 50.4434 79.5939 50.7118 79.4037ZM48.0529 78.9847C48.0535 78.9848 48.0566 78.9908 48.0603 79.0024C48.0541 78.9904 48.0522 78.9846 48.0529 78.9847ZM47.9267 79.5181C47.9198 79.5247 47.9155 79.5277 47.9152 79.5275C47.9148 79.5273 47.9182 79.524 47.9267 79.5181Z" fill="#5991FF"/>
<path fill-rule="evenodd" clip-rule="evenodd" d="M62.4723 84.3576C62.4796 83.4845 63.1932 82.7833 64.0662 82.7913L65.8338 82.8075C67.1248 82.8193 68.1792 81.7808 68.1868 80.4898C68.203 77.7647 70.214 75.4647 72.9123 75.0854L75.0227 74.7886C75.8871 74.6671 76.687 75.2694 76.8092 76.134C76.9315 76.9985 76.3299 77.7979 75.4654 77.9194L73.355 78.2161C72.2092 78.3773 71.3552 79.354 71.3483 80.5112C71.3303 83.5512 68.8474 85.9968 65.8076 85.969L64.0399 85.9528C63.1669 85.9448 62.4651 85.2306 62.4723 84.3576Z" fill="#F97F7F"/>
<path d="M70.3422 54.5683C70.8555 55.5481 70.4774 56.7584 69.4977 57.2717C68.518 57.785 67.3076 57.4068 66.7944 56.4271L65.2011 53.3861C64.6878 52.4064 65.066 51.196 66.0457 50.6828C67.0254 50.1695 68.2357 50.5476 68.749 51.5273L70.3422 54.5683Z" fill="#5991FF"/>
<path d="M61.4774 91.4531C61.705 92.0788 61.3822 92.7704 60.7566 92.9979C60.131 93.2254 59.4393 92.9027 59.2118 92.2771L58.5056 90.3351C58.2781 89.7095 58.6008 89.0178 59.2264 88.7903C59.8521 88.5628 60.5437 88.8855 60.7712 89.5112L61.4774 91.4531Z" fill="#FFC266"/>
<path d="M78.2741 68.3967C78.8975 68.163 79.5922 68.479 79.8259 69.1023C80.0595 69.7257 79.7436 70.4205 79.1202 70.6541L77.1853 71.3794C76.5619 71.613 75.8672 71.2971 75.6335 70.6737C75.3999 70.0503 75.7158 69.3556 76.3392 69.1219L78.2741 68.3967Z" fill="#FFC266"/>
<path d="M53.9315 58.4687C54.093 57.8229 54.7474 57.4302 55.3933 57.5917C56.0391 57.7532 56.4318 58.4076 56.2703 59.0535L55.7691 61.0581C55.6076 61.704 54.9531 62.0966 54.3073 61.9352C53.6615 61.7737 53.2688 61.1192 53.4303 60.4734L53.9315 58.4687Z" fill="#F97F7F"/>
<path d="M92.9992 144.139C93.7848 142.901 95.2732 142.435 96.3236 143.099L107.736 150.311C108.786 150.975 109.001 152.517 108.215 153.755L97.6894 170.348C94.547 175.302 89.8098 175.247 85.608 172.592C81.4062 169.936 79.3309 165.686 82.4733 160.732L92.9992 144.139Z" fill="#FFAE4E"/>
<path d="M148.069 146.518C147.385 144.678 147.775 142.833 148.94 142.399L161.588 137.68C162.752 137.245 164.25 138.385 164.933 140.226L174.086 164.887C176.819 172.249 174.201 176.776 169.544 178.514C164.887 180.251 159.955 178.542 157.222 171.179L148.069 146.518Z" fill="#FFAE4E"/>
<path d="M109.739 162.687C108.593 163.996 106.483 164.021 105.026 162.742L89.1945 148.843C87.7373 147.564 87.4849 145.465 88.6308 144.155L103.985 126.606C108.568 121.367 117.009 121.268 122.838 126.385C128.667 131.503 129.677 139.898 125.093 145.137L109.739 162.687Z" fill="#4C8BFF"/>
<path d="M149.013 162.326C149.941 163.797 152.022 164.15 153.66 163.112L171.459 151.843C173.098 150.806 173.673 148.772 172.745 147.3L160.305 127.577C156.591 121.69 148.268 120.28 141.714 124.43C135.161 128.579 132.859 136.715 136.573 142.603L149.013 162.326Z" fill="#4C8BFF"/>
<path d="M101.849 145.975C101.849 133.45 104.845 120.897 115.445 120.897H144.872C155.471 120.897 159.849 128.964 159.849 141.49L157.771 178.257C157.616 180.527 155.739 182.416 153.21 182.85C137.313 185.579 123.284 185.579 107.387 182.85C104.886 182.421 102.045 180.499 101.849 178.257V145.975Z" fill="#4C8BFF"/>
<path d="M117.848 112.728C117.848 107.917 121.009 104.018 124.907 104.018H134.79C138.688 104.018 141.848 107.917 141.848 112.728V121.437C141.848 126.248 138.688 130.147 134.79 130.147H124.907C121.009 130.147 117.848 126.248 117.848 121.437V112.728Z" fill="#FFAB48"/>
<path fill-rule="evenodd" clip-rule="evenodd" d="M144.073 121.524C145.407 122.545 145.66 124.454 144.639 125.788L143.582 127.167C140.369 131.363 135.385 133.824 130.1 133.824C125.015 133.824 120.197 131.545 116.972 127.614L115.539 125.868C114.473 124.57 114.662 122.653 115.961 121.587C117.26 120.522 119.176 120.711 120.242 122.009L121.674 123.755C123.745 126.278 126.836 127.741 130.1 127.741C133.492 127.741 136.69 126.162 138.753 123.469L139.809 122.089C140.83 120.756 142.739 120.503 144.073 121.524Z" fill="#337AFF"/>
<path fill-rule="evenodd" clip-rule="evenodd" d="M105.091 135.707C105.483 135.841 105.692 136.268 105.558 136.659C103.436 142.863 103.099 150.416 103.099 157.917C103.099 158.331 102.763 158.667 102.349 158.667C101.934 158.667 101.599 158.331 101.599 157.917C101.599 150.417 101.928 142.637 104.139 136.174C104.273 135.782 104.699 135.573 105.091 135.707Z" fill="#337AFF"/>
<path fill-rule="evenodd" clip-rule="evenodd" d="M145.718 138.188C146.121 138.09 146.526 138.337 146.624 138.74C146.886 139.821 147.102 140.861 147.314 141.879C147.758 144.021 148.183 146.063 148.972 148.176C150.114 151.23 152.012 154.372 155.848 157.832C156.156 158.109 156.18 158.584 155.903 158.891C155.625 159.199 155.151 159.223 154.843 158.946C150.834 155.33 148.796 151.988 147.567 148.701C146.737 146.48 146.273 144.252 145.815 142.05C145.609 141.058 145.403 140.072 145.166 139.093C145.068 138.691 145.315 138.285 145.718 138.188Z" fill="#337AFF"/>
<path d="M144.226 166.555C142.997 165.755 142.548 164.262 143.223 163.219L150.562 151.888C151.238 150.845 152.782 150.647 154.011 151.447L170.486 162.157C175.404 165.354 175.297 170.091 172.595 174.263C169.893 178.435 165.619 180.462 160.701 177.265L144.226 166.555Z" fill="#FFAE4E"/>
<path d="M174.221 89.573C175.576 97.3554 170.112 104.807 162.018 106.216C153.923 107.625 146.263 102.459 144.908 94.6767C143.553 86.8943 149.016 79.4429 157.111 78.0336C165.206 76.6243 172.866 81.7906 174.221 89.573Z" fill="#FF9C27"/>
<path d="M119.996 94.4753C121.351 102.258 115.888 109.709 107.793 111.118C99.6985 112.528 92.0381 107.361 90.6832 99.579C89.3282 91.7967 94.7917 84.3453 102.886 82.9359C110.981 81.5266 118.641 86.693 119.996 94.4753Z" fill="#ED8000"/>
<path d="M166.192 82.8182C169.319 100.774 155.337 118.206 134.963 121.753C114.589 125.3 93.1497 111.487 99.3132 97.1752C89.509 79.278 103.267 60.2766 123.641 56.7293C144.015 53.182 163.066 64.8624 166.192 82.8182Z" fill="#FFBA68"/>
<path d="M166.452 82.838C169.594 100.883 155.242 118.454 134.396 122.084C113.549 125.713 91.6675 111.89 98.0146 97.4799C88.0434 79.5142 102.172 60.3657 123.018 56.7362C143.864 53.1067 163.311 64.7928 166.452 82.838Z" fill="#FFBA68"/>
<mask id="mask0_534_17417" style="mask-type:alpha" maskUnits="userSpaceOnUse" x="94" y="56" width="73" height="67">
<path d="M166.452 82.838C169.594 100.883 155.242 118.454 134.396 122.084C113.549 125.713 91.6675 111.89 98.0146 97.4799C88.0434 79.5142 102.172 60.3657 123.018 56.7362C143.864 53.1067 163.311 64.7928 166.452 82.838Z" fill="#FFBA68"/>
</mask>
<g mask="url(#mask0_534_17417)">
<path d="M168.435 100.061C169.757 107.654 164.382 114.931 156.43 116.316C148.477 117.7 140.959 112.668 139.637 105.075C138.315 97.4826 143.69 90.2052 151.643 88.8206C159.595 87.436 167.113 92.4686 168.435 100.061Z" fill="#FF9A24"/>
<path d="M113.83 107.299C115.152 114.892 109.777 122.169 101.825 123.554C93.8722 124.939 86.3538 119.906 85.0319 112.313C83.71 104.721 89.085 97.4435 97.0374 96.0589C104.99 94.6743 112.508 99.7069 113.83 107.299Z" fill="#FF9A24"/>
</g>
<path d="M125.344 99.6917C125.486 100.508 124.913 101.289 124.064 101.437C123.215 101.585 122.411 101.043 122.269 100.227C122.127 99.4107 122.7 98.6292 123.549 98.4814C124.398 98.3336 125.202 98.8754 125.344 99.6917Z" fill="black"/>
<path d="M118.092 94.0818C118.363 95.6354 117.206 97.1344 115.508 97.4301C113.81 97.7257 112.214 96.7059 111.944 95.1524C111.673 93.5988 112.83 92.0997 114.528 91.8041C116.226 91.5084 117.822 92.5282 118.092 94.0818Z" fill="black"/>
<path fill-rule="evenodd" clip-rule="evenodd" d="M115.89 90.323C116.281 90.7839 116.181 91.4601 115.668 91.8332C115.389 92.0361 114.98 92.423 114.718 92.8628C114.458 93.2997 114.424 93.6361 114.545 93.9028C114.792 94.4437 114.509 95.0793 113.913 95.3226C113.318 95.5659 112.635 95.3247 112.388 94.7838C111.891 93.6942 112.226 92.6331 112.679 91.8742C113.129 91.1181 113.777 90.5109 114.254 90.164C114.767 89.7909 115.5 89.862 115.89 90.323Z" fill="black"/>
<path d="M138.244 92.0867C138.514 93.6402 137.357 95.1393 135.659 95.435C133.961 95.7306 132.365 94.7108 132.095 93.1573C131.824 91.6037 132.982 90.1046 134.68 89.809C136.377 89.5133 137.973 90.5331 138.244 92.0867Z" fill="black"/>
<path fill-rule="evenodd" clip-rule="evenodd" d="M136.041 88.3279C136.432 88.7888 136.332 89.465 135.819 89.8381C135.54 90.0409 135.132 90.4279 134.869 90.8677C134.609 91.3046 134.575 91.6409 134.697 91.9077C134.943 92.4485 134.66 93.0842 134.065 93.3275C133.469 93.5708 132.786 93.3296 132.539 92.7887C132.042 91.6991 132.377 90.638 132.83 89.8791C133.281 89.123 133.928 88.5158 134.405 88.1689C134.919 87.7957 135.651 87.8669 136.041 88.3279Z" fill="black"/>
<path fill-rule="evenodd" clip-rule="evenodd" d="M136.429 104.017C131.211 106.626 125.31 107.653 119.508 106.963C118.885 106.889 118.473 106.387 118.589 105.842C118.704 105.297 119.303 104.915 119.926 104.989C125.217 105.619 130.599 104.682 135.357 102.303C135.917 102.023 136.611 102.179 136.907 102.653C137.203 103.126 136.989 103.737 136.429 104.017Z" fill="#A75A00"/>
<path fill-rule="evenodd" clip-rule="evenodd" d="M112.534 86.8903C111.454 87.2294 110.65 87.9274 110.265 88.43C109.906 88.9002 109.222 89.0053 108.739 88.6647C108.255 88.324 108.154 87.6668 108.514 87.1966C109.132 86.3887 110.3 85.3885 111.881 84.8921C113.51 84.3808 115.509 84.4277 117.654 85.6509C118.17 85.945 118.335 86.5892 118.024 87.0898C117.712 87.5904 117.041 87.7578 116.525 87.4638C114.916 86.5465 113.566 86.5661 112.534 86.8903Z" fill="#905A09"/>
<path fill-rule="evenodd" clip-rule="evenodd" d="M134.959 84.7233C133.863 85.0069 133.024 85.663 132.615 86.1454C132.232 86.5966 131.544 86.6666 131.078 86.3018C130.612 85.937 130.546 85.2755 130.929 84.8243C131.587 84.0489 132.805 83.1096 134.409 82.6944C136.062 82.2668 138.055 82.4156 140.136 83.7466C140.636 84.0666 140.768 84.7184 140.431 85.2025C140.095 85.6865 139.416 85.8195 138.916 85.4996C137.356 84.5014 136.007 84.4522 134.959 84.7233Z" fill="#905A09"/>
<path d="M109.802 49.6576C121.515 52.44 127.522 39.0616 149.459 51.0029C154.817 49.6377 146.956 31.7733 156.319 41.3536C163.81 49.0179 158.496 52.0462 155.022 51.8111C169.559 58.6049 178.755 88.1862 162.175 87.8002C142.064 87.3319 143.114 59.7449 138.841 66.6035C134.568 73.4621 101.533 96.6386 92.7658 94.5522C86.5943 93.0835 85.5664 85.1856 91.1569 82.1903C90.3277 81.4858 86.4142 82.627 84.5385 77.2877C82.6628 71.9484 94.5066 60.6656 99.7699 57.6341C99.0102 51.7965 97.4146 46.7152 109.802 49.6576Z" fill="black"/>
<path d="M70.237 143.522C69.5538 141.682 69.9438 139.837 71.108 139.403L83.7563 134.684C84.9205 134.249 86.4182 135.389 87.1013 137.23L96.2549 161.891C98.9876 169.253 96.3698 173.78 91.7128 175.518C87.0559 177.255 82.1232 175.545 79.3906 168.183L70.237 143.522Z" fill="#FFAE4E"/>
<path fill-rule="evenodd" clip-rule="evenodd" d="M51.3665 122.028C50.8816 123.868 51.978 125.761 53.8153 126.256L56.1709 126.89C54.8599 127.088 53.7289 128.041 53.3687 129.407C52.8839 131.247 53.9802 133.14 55.8175 133.635L60.7639 134.968C60.5888 135.251 60.452 135.564 60.3627 135.903C59.8779 137.743 60.9742 139.636 62.8115 140.131L72.8606 142.839C73.2638 142.948 73.6691 142.98 74.0614 142.945C80.4846 144.474 86.9725 140.617 88.6665 134.188C90.136 128.612 87.5241 122.898 82.6779 120.238L78.3235 112.509C77.2374 110.581 74.945 110.109 73.2032 111.453C71.6152 112.679 71.0331 114.992 71.7655 116.852L61.0557 113.966C59.1901 113.463 57.2785 114.57 56.7862 116.439C56.3798 117.981 57.0672 119.559 58.3686 120.346L55.5711 119.593C53.7338 119.097 51.8513 120.188 51.3665 122.028Z" fill="#FFBA68"/>
<path fill-rule="evenodd" clip-rule="evenodd" d="M62.7897 134.31C62.8569 134.055 63.1178 133.904 63.3723 133.972L69.9523 135.745C70.4502 135.879 70.9775 136.114 71.3802 136.544C71.8226 137.018 72.2301 137.642 72.3087 138.38C72.3901 139.142 72.1103 139.932 71.3592 140.691C71.1742 140.878 70.8724 140.878 70.685 140.692C70.4976 140.506 70.4957 140.203 70.6807 140.016C71.2731 139.417 71.4057 138.899 71.3607 138.477C71.313 138.029 71.0554 137.592 70.6861 137.197C70.4505 136.945 70.1112 136.776 69.7089 136.668L63.129 134.895C62.8744 134.827 62.7225 134.565 62.7897 134.31Z" fill="#FF9C27"/>
<path fill-rule="evenodd" clip-rule="evenodd" d="M74.0211 119.768C74.2578 119.654 74.5426 119.755 74.6572 119.993L76.4893 123.796L76.4443 123.966C76.189 124.935 76.0496 126.493 76.4599 127.98C76.8644 129.446 77.797 130.833 79.7022 131.558C79.9485 131.652 80.0733 131.927 79.981 132.174C79.8887 132.42 79.6142 132.544 79.3679 132.451C77.1274 131.598 76.0126 129.935 75.542 128.23C75.1011 126.633 75.2205 124.991 75.48 123.892L73.8 120.405C73.6854 120.167 73.7844 119.882 74.0211 119.768Z" fill="#FF9C27"/>
<path fill-rule="evenodd" clip-rule="evenodd" d="M59.1111 127.174C59.0521 127.394 59.1826 127.62 59.4027 127.679L66.8401 129.673C67.0601 129.732 67.2864 129.602 67.3454 129.382C67.4044 129.162 67.2738 128.935 67.0538 128.876L59.6163 126.882C59.3963 126.823 59.1701 126.954 59.1111 127.174Z" fill="#FF9C27"/>
<path fill-rule="evenodd" clip-rule="evenodd" d="M60.834 121.34C60.775 121.56 60.9055 121.787 61.1256 121.846L70.1567 124.267C70.3768 124.326 70.603 124.196 70.662 123.976C70.721 123.756 70.5905 123.529 70.3704 123.47L61.3392 121.049C61.1192 120.99 60.893 121.12 60.834 121.34Z" fill="#FF9C27"/>
<path fill-rule="evenodd" clip-rule="evenodd" d="M69.2346 126.13C70.4522 123.944 72.1423 122.239 73.3157 121.347C73.497 121.209 73.5322 120.95 73.3943 120.769C73.2564 120.588 72.9976 120.552 72.8163 120.69C71.5639 121.643 69.7935 123.431 68.5138 125.729C67.2326 128.029 66.4252 130.875 67.1709 133.911C67.2253 134.132 67.4487 134.268 67.6699 134.213C67.8912 134.159 68.0265 133.936 67.9721 133.714C67.2915 130.943 68.0185 128.314 69.2346 126.13Z" fill="#FF9C27"/>
<path fill-rule="evenodd" clip-rule="evenodd" d="M162.493 152.488C162.539 154.09 161.419 155.455 159.901 155.767C160.452 156.331 160.8 157.095 160.824 157.945C160.866 159.408 159.936 160.672 158.62 161.119C159.031 161.646 159.283 162.304 159.304 163.023C159.355 164.818 157.942 166.316 156.146 166.367L146.325 166.65C145.931 166.661 145.551 166.602 145.198 166.483C138.963 166.478 133.824 161.514 133.644 155.24C133.562 152.387 134.242 149.847 135.64 147.874C137.914 144.666 141.132 141.714 141.65 137.817L141.759 136.995Lnan nanL141.759 136.995C142.269 135.045 143.133 132.765 145.13 132.497C145.917 132.391 146.683 132.637 147.293 133.388C148.607 135.005 148.015 138.437 147.293 140.601C146.572 142.765 152.668 143.037 152.668 143.037L158.312 142.875C160.136 142.823 161.656 144.258 161.709 146.082C161.752 147.598 160.767 148.904 159.386 149.332C161.075 149.405 162.444 150.772 162.493 152.488Z" fill="#FFBA68"/>
<path fill-rule="evenodd" clip-rule="evenodd" d="M159.602 149.703C159.595 149.455 159.387 149.259 159.139 149.266L151.415 149.488C151.014 149.5 150.539 149.573 150.136 149.862C149.7 150.175 149.242 150.665 149.021 151.341C148.795 152.029 148.834 152.856 149.306 153.793C149.418 154.015 149.689 154.104 149.911 153.992C150.133 153.88 150.223 153.609 150.111 153.387C149.732 152.636 149.734 152.055 149.877 151.621C150.023 151.174 150.335 150.828 150.661 150.594C150.85 150.458 151.113 150.398 151.441 150.388L159.165 150.167C159.413 150.159 159.609 149.952 159.602 149.703Z" fill="#FF9C27"/>
<path fill-rule="evenodd" clip-rule="evenodd" d="M156.932 143.516C156.925 143.267 156.717 143.071 156.469 143.079L149.527 143.278C149.093 143.29 148.565 143.376 148.146 143.729C147.756 144.057 147.368 144.549 147.19 145.207C147.01 145.873 147.058 146.667 147.474 147.569C147.578 147.795 147.846 147.894 148.072 147.789C148.298 147.685 148.396 147.417 148.292 147.192C147.953 146.458 147.942 145.88 148.06 145.442C148.18 144.997 148.446 144.654 148.726 144.418C148.913 144.26 149.193 144.189 149.553 144.178L156.495 143.979C156.743 143.972 156.939 143.765 156.932 143.516Z" fill="#FF9C27"/>
<path fill-rule="evenodd" clip-rule="evenodd" d="M157.405 161.056C157.398 160.807 157.191 160.612 156.942 160.619L150.515 160.803C150.029 160.817 149.494 160.917 149.032 161.224C148.524 161.561 148.016 162.045 147.785 162.704C147.547 163.386 147.635 164.172 148.163 165.033C148.293 165.245 148.57 165.312 148.782 165.182C148.994 165.052 149.061 164.775 148.931 164.562C148.515 163.883 148.504 163.379 148.636 163.001C148.776 162.601 149.106 162.256 149.53 161.975C149.801 161.795 150.148 161.715 150.541 161.704L156.968 161.519C157.217 161.512 157.412 161.305 157.405 161.056Z" fill="#FF9C27"/>
<path fill-rule="evenodd" clip-rule="evenodd" d="M147.251 146.601C147.058 146.445 146.774 146.475 146.618 146.668L144.117 149.759L144.122 149.926C144.149 150.872 143.943 152.333 143.247 153.609C142.56 154.866 141.405 155.936 139.497 156.184C139.25 156.216 139.076 156.442 139.108 156.689C139.14 156.935 139.366 157.109 139.613 157.077C141.857 156.785 143.239 155.503 144.038 154.04C144.786 152.67 145.028 151.135 145.025 150.069L147.318 147.235C147.474 147.042 147.444 146.758 147.251 146.601Z" fill="#FF9C27"/>
<path fill-rule="evenodd" clip-rule="evenodd" d="M159.336 155.481C159.329 155.232 159.122 155.036 158.873 155.043L150.598 155.281C150.162 155.294 149.674 155.383 149.252 155.668C148.775 155.992 148.246 156.491 148.01 157.148C147.76 157.845 147.869 158.637 148.525 159.434C148.683 159.626 148.967 159.654 149.159 159.496C149.351 159.338 149.378 159.054 149.22 158.862C148.741 158.279 148.727 157.815 148.858 157.453C149.002 157.05 149.357 156.686 149.758 156.414C149.983 156.261 150.279 156.191 150.624 156.181L158.899 155.944C159.147 155.937 159.343 155.729 159.336 155.481Z" fill="#FF9C27"/>
<path d="M48.3508 110.516C48.1989 110.122 47.7567 109.926 47.363 110.078C46.9694 110.23 46.7734 110.672 46.9253 111.066L48.5754 115.342C48.7273 115.736 49.1695 115.932 49.5632 115.78C49.9569 115.628 50.1529 115.186 50.001 114.792L48.3508 110.516Z" fill="#C4C4C4"/>
<path d="M50.826 116.93C50.6742 116.536 50.2319 116.34 49.8382 116.492C49.4446 116.644 49.2486 117.086 49.4005 117.48L50.2255 119.618C50.3774 120.012 50.8197 120.208 51.2134 120.056C51.607 119.904 51.803 119.462 51.6511 119.068L50.826 116.93Z" fill="#C4C4C4"/>
<path d="M70.1721 101.277C69.2608 98.9147 66.6072 97.7388 64.2453 98.6501L49.9896 104.151C47.6276 105.062 46.4516 107.715 47.363 110.077L58.9139 140.014C59.8253 142.376 62.4788 143.552 64.8408 142.641L79.0965 137.141C81.4584 136.229 82.6344 133.576 81.723 131.214L70.1721 101.277Z" fill="#EAEAEA"/>
<path d="M69.4019 103.886C68.634 101.896 66.4997 100.866 64.6347 101.586L53.3785 105.929C51.5135 106.648 50.6241 108.845 51.3919 110.835L61.1239 136.058C61.8917 138.048 64.0261 139.078 65.8911 138.358L77.1473 134.015C79.0123 133.295 79.9017 131.099 79.1339 129.109L69.4019 103.886Z" fill="#595959"/>
<path d="M66.2012 120.419C66.3162 120.821 66.0835 121.241 65.6812 121.356C65.279 121.471 64.8596 121.238 64.7445 120.836C64.6294 120.433 64.8622 120.014 65.2644 119.899C65.6667 119.784 66.0861 120.017 66.2012 120.419Z" fill="white"/>
<path fill-rule="evenodd" clip-rule="evenodd" d="M60.302 119.494C59.8974 119.678 59.6183 119.995 59.4934 120.215C59.3765 120.421 59.1149 120.493 58.9091 120.376C58.7032 120.259 58.6311 119.998 58.7479 119.792C58.9487 119.438 59.3548 118.983 59.9471 118.713C60.5573 118.436 61.34 118.368 62.2389 118.77C62.455 118.867 62.5518 119.12 62.4552 119.336C62.3586 119.552 62.1051 119.649 61.889 119.552C61.2149 119.251 60.6889 119.318 60.302 119.494Z" fill="white"/>
<path fill-rule="evenodd" clip-rule="evenodd" d="M68.4694 116.771C68.0648 116.955 67.7857 117.273 67.6607 117.493C67.5439 117.699 67.2823 117.771 67.0764 117.654C66.8706 117.537 66.7984 117.276 66.9153 117.07C67.1161 116.716 67.5221 116.261 68.1145 115.991C68.7246 115.714 69.5074 115.646 70.4062 116.048C70.6223 116.144 70.7192 116.398 70.6226 116.614C70.5259 116.83 70.2724 116.927 70.0563 116.83C69.3823 116.529 68.8562 116.595 68.4694 116.771Z" fill="white"/>
<path fill-rule="evenodd" clip-rule="evenodd" d="M66.9091 123.531C67.3888 123.262 67.6998 122.842 67.831 122.558C67.9536 122.292 68.2686 122.176 68.5346 122.298C68.8005 122.421 68.9167 122.736 68.794 123.002C68.5833 123.459 68.1301 124.062 67.4278 124.456C66.7045 124.862 65.7465 125.027 64.5965 124.625C64.3201 124.528 64.1743 124.226 64.2709 123.949C64.3675 123.673 64.67 123.527 64.9465 123.624C65.8088 123.925 66.4505 123.788 66.9091 123.531Z" fill="white"/>
</svg>
