<svg width="30" height="30" viewBox="0 0 30 30" fill="none" xmlns="http://www.w3.org/2000/svg">
<path d="M15.5 5C9.70225 5 5 9.60113 5 15.2761C5 19.8164 8.00825 23.6683 12.1811 25.0273C12.7052 25.1223 12.875 24.8038 12.875 24.5332V22.6201C9.95425 23.2418 9.34613 21.4075 9.34613 21.4075C8.86838 20.2198 8.17975 19.9038 8.17975 19.9038C7.22688 19.2658 8.25238 19.2795 8.25238 19.2795C9.30675 19.3514 9.8615 20.3388 9.8615 20.3388C10.7978 21.9093 12.3176 21.4555 12.917 21.1926C13.0106 20.5289 13.2828 20.075 13.5838 19.819C11.2519 19.5578 8.80012 18.6766 8.80012 14.74C8.80012 13.6174 9.2105 12.7011 9.88163 11.9818C9.77313 11.7223 9.4135 10.6767 9.984 9.26201C9.984 9.26201 10.866 8.98627 12.8724 10.3153C13.7098 10.0875 14.6075 9.97363 15.5 9.96935C16.3925 9.97363 17.2911 10.0875 18.1302 10.3153C20.1349 8.98627 21.0151 9.26201 21.0151 9.26201C21.5865 10.6775 21.2269 11.7231 21.1184 11.9818C21.7921 12.7011 22.199 13.6182 22.199 14.74C22.199 18.6869 19.7429 19.5561 17.4049 19.8104C17.7811 20.129 18.125 20.7541 18.125 21.7132V24.5332C18.125 24.8063 18.293 25.1275 18.8259 25.0264C22.9952 23.6657 26 19.8147 26 15.2761C26 9.60113 21.2986 5 15.5 5Z" fill="black"/>
</svg>
