<svg width="24" height="24" viewBox="0 0 24 24" fill="none" xmlns="http://www.w3.org/2000/svg">
<path d="M9.49639 11.0199L8.2866 12.2297C7.83478 12.6815 7.57495 13.2963 7.5797 13.9424C7.58445 14.5885 7.83859 15.207 8.31185 15.6657C8.77047 16.1389 9.38912 16.3931 10.0351 16.3978C10.6959 16.4027 11.2961 16.1575 11.7479 15.7057L12.9577 14.4959M14.503 12.9802L15.7128 11.7704C16.1646 11.3185 16.4244 10.7038 16.4197 10.0577C16.4149 9.41156 16.1608 8.79304 15.6875 8.33439C15.229 7.87588 14.6105 7.62172 13.9644 7.61697C13.3183 7.61222 12.7034 7.8573 12.2516 8.30914L11.0418 9.51893M10.1651 13.8022L13.7945 10.1729" stroke="#B3B3B3" stroke-linecap="round" stroke-linejoin="round"/>
</svg>
