<svg width="24" height="24" viewBox="0 0 24 24" fill="none" xmlns="http://www.w3.org/2000/svg">
<path fill-rule="evenodd" clip-rule="evenodd" d="M13.3982 3C13.8278 3 14.1915 3.30224 14.2495 3.70764L14.484 5.34479C14.5354 5.70377 14.7798 6.00159 15.1063 6.15936C15.3394 6.27199 15.5649 6.3969 15.7818 6.5332C16.0738 6.71675 16.4343 6.77075 16.7557 6.64562L18.4173 5.99883C18.8151 5.84401 19.2718 5.99275 19.4867 6.34708L20.8848 8.65292C21.0996 9.00725 21.0066 9.45823 20.6669 9.7088L19.2904 10.7242C18.9929 10.9436 18.8473 11.3091 18.866 11.6783C18.8715 11.7849 18.8742 11.8921 18.8742 12C18.8742 12.1079 18.8715 12.2151 18.866 12.3217C18.8473 12.6909 18.9929 13.0564 19.2904 13.2758L20.6669 14.2912C20.7094 14.3225 20.7479 14.3569 20.7826 14.394C21.025 14.653 21.0728 15.037 20.8848 15.3471L19.4867 17.6529C19.2718 18.0073 18.8151 18.156 18.4173 18.0012L16.7557 17.3544C16.4343 17.2293 16.0738 17.2833 15.7818 17.4668C15.5649 17.6031 15.3394 17.728 15.1064 17.8406C14.7798 17.9984 14.5354 18.2962 14.484 18.6552L14.2495 20.2924C14.1915 20.6978 13.8278 21 13.3982 21H10.6018C10.1721 21 9.8085 20.6978 9.75044 20.2924L9.51599 18.6552C9.46458 18.2962 9.22019 17.9984 8.89363 17.8406C8.66054 17.728 8.4351 17.6031 8.21825 17.4668C7.92616 17.2833 7.56571 17.2293 7.24423 17.3544L5.58263 18.0012C5.18488 18.156 4.72818 18.0073 4.51332 17.6529L3.11518 15.3471C2.90033 14.9927 2.9934 14.5418 3.33309 14.2912L4.70966 13.2758C5.00713 13.0563 5.15268 12.6909 5.13392 12.3217C5.1285 12.2151 5.12576 12.1079 5.12576 12C5.12576 11.8921 5.1285 11.7849 5.13392 11.6783C5.15268 11.3091 5.00712 10.9437 4.70965 10.7242L3.33309 9.7088C2.9934 9.45823 2.90033 9.00725 3.11518 8.65292L4.51332 6.34708C4.72817 5.99275 5.18488 5.84401 5.58263 5.99883L7.24425 6.64562C7.56571 6.77075 7.92616 6.71674 8.21823 6.53319C8.4351 6.3969 8.66055 6.27199 8.89366 6.15937C9.2202 6.0016 9.46457 5.70376 9.51599 5.34476L9.75044 3.70764C9.8085 3.30224 10.1721 3 10.6018 3H13.3982ZM15.0074 12C15.0074 13.5815 13.6609 14.8636 11.9999 14.8636C10.339 14.8636 8.99251 13.5815 8.99251 12C8.99251 10.4185 10.339 9.13636 11.9999 9.13636C13.6609 9.13636 15.0074 10.4185 15.0074 12Z" stroke="#666666" stroke-width="2" stroke-linejoin="round"/>
</svg>
