<svg width="20" height="20" viewBox="0 0 20 20" fill="none" xmlns="http://www.w3.org/2000/svg">
<path fill-rule="evenodd" clip-rule="evenodd" d="M11.3982 1C11.8278 1 12.1915 1.30224 12.2495 1.70764L12.484 3.34479C12.5354 3.70377 12.7798 4.00159 13.1063 4.15936C13.3394 4.27199 13.5649 4.3969 13.7818 4.5332C14.0738 4.71675 14.4343 4.77075 14.7557 4.64562L16.4173 3.99883C16.8151 3.84401 17.2718 3.99275 17.4867 4.34708L18.8848 6.65292C19.0996 7.00725 19.0066 7.45823 18.6669 7.7088L17.2904 8.72421C16.9929 8.94365 16.8473 9.30911 16.866 9.67829C16.8715 9.78488 16.8742 9.89214 16.8742 10C16.8742 10.1079 16.8715 10.2151 16.866 10.3217C16.8473 10.6909 16.9929 11.0564 17.2904 11.2758L18.6669 12.2912C18.7094 12.3225 18.7479 12.3569 18.7826 12.394C19.025 12.653 19.0728 13.037 18.8848 13.3471L17.4867 15.6529C17.2718 16.0073 16.8151 16.156 16.4173 16.0012L14.7557 15.3544C14.4343 15.2293 14.0738 15.2833 13.7818 15.4668C13.5649 15.6031 13.3394 15.728 13.1064 15.8406C12.7798 15.9984 12.5354 16.2962 12.484 16.6552L12.2495 18.2924C12.1915 18.6978 11.8278 19 11.3982 19H8.60182C8.17214 19 7.8085 18.6978 7.75044 18.2924L7.51599 16.6552C7.46458 16.2962 7.22019 15.9984 6.89363 15.8406C6.66054 15.728 6.4351 15.6031 6.21825 15.4668C5.92616 15.2833 5.56571 15.2293 5.24423 15.3544L3.58263 16.0012C3.18488 16.156 2.72818 16.0073 2.51332 15.6529L1.11518 13.3471C0.900333 12.9927 0.993402 12.5418 1.33309 12.2912L2.70966 11.2758C3.00713 11.0563 3.15268 10.6909 3.13392 10.3217C3.1285 10.2151 3.12576 10.1079 3.12576 10C3.12576 9.89213 3.1285 9.78487 3.13392 9.67827C3.15268 9.3091 3.00712 8.94365 2.70965 8.72422L1.33309 7.7088C0.993402 7.45823 0.900333 7.00725 1.11518 6.65292L2.51332 4.34708C2.72817 3.99275 3.18488 3.84401 3.58263 3.99883L5.24425 4.64562C5.56571 4.77075 5.92616 4.71674 6.21823 4.53319C6.4351 4.3969 6.66055 4.27199 6.89366 4.15937C7.2202 4.0016 7.46457 3.70376 7.51599 3.34476L7.75044 1.70764C7.8085 1.30224 8.17214 1 8.60182 1H11.3982ZM13.0074 10C13.0074 11.5815 11.6609 12.8636 9.99995 12.8636C8.33896 12.8636 6.99251 11.5815 6.99251 10C6.99251 8.41845 8.33896 7.13636 9.99995 7.13636C11.6609 7.13636 13.0074 8.41845 13.0074 10Z" stroke="#0059FF" stroke-width="2" stroke-linejoin="round"/>
</svg>
