<svg width="20" height="20" viewBox="0 0 20 20" fill="none" xmlns="http://www.w3.org/2000/svg">
<path d="M10.0033 0C5.82836 0 4.60736 0.00430806 4.37002 0.024002C3.51325 0.0952388 2.98012 0.230173 2.39931 0.519429C1.9517 0.741755 1.59869 0.999469 1.25029 1.36073C0.615799 2.01956 0.231256 2.83009 0.0920511 3.79355C0.0243715 4.26128 0.00468288 4.35668 0.000683632 6.7458C-0.00085454 7.54218 0.000683632 8.59027 0.000683632 9.99608C0.000683632 14.1687 0.00529815 15.3888 0.0252944 15.6258C0.0945121 16.4597 0.225257 16.9844 0.502128 17.5583C1.03126 18.6568 2.04184 19.4815 3.23238 19.7892C3.64461 19.8954 4.09991 19.9538 4.68442 19.9815C4.93206 19.9923 7.4562 20 9.98188 20C12.5076 20 15.0332 19.9969 15.2747 19.9846C15.9515 19.9528 16.3445 19.9 16.7791 19.7877C17.3694 19.6362 17.9195 19.3577 18.3911 18.9716C18.8627 18.5855 19.2443 18.101 19.5093 17.5521C19.7808 16.9921 19.9185 16.4474 19.9808 15.657C19.9943 15.4847 20 12.7372 20 9.99346C20 7.24923 19.9938 4.50684 19.9803 4.33452C19.9172 3.53138 19.7796 2.99133 19.4993 2.42051C19.2694 1.95324 19.014 1.60429 18.6433 1.24749C17.9819 0.615437 17.1728 0.230789 16.2086 0.0917001C15.7414 0.0241559 15.6484 0.0041542 13.258 0H10.0033Z" fill="url(#paint0_radial_882_4476)"/>
<path d="M10.0005 3C8.09941 3 7.86082 3.00831 7.11415 3.04229C6.36893 3.07642 5.86026 3.1944 5.41517 3.3675C4.95477 3.54629 4.56422 3.78546 4.17514 4.17469C3.78576 4.56377 3.54659 4.95431 3.36721 5.41456C3.19367 5.85979 3.07554 6.3686 3.042 7.11352C3.00875 7.86019 3 8.09892 3 10C3 11.9011 3.00846 12.1389 3.04229 12.8856C3.07656 13.6308 3.19454 14.1395 3.3675 14.5846C3.54644 15.045 3.78561 15.4355 4.17485 15.8246C4.56379 16.214 4.95433 16.4537 5.41444 16.6325C5.85982 16.8056 6.36864 16.9236 7.11371 16.9577C7.86038 16.9917 8.09882 17 9.99978 17C11.901 17 12.1389 16.9917 12.8856 16.9577C13.6308 16.9236 14.14 16.8056 14.5854 16.6325C15.0457 16.4537 15.4356 16.214 15.8246 15.8246C16.214 15.4355 16.4531 15.045 16.6325 14.5847C16.8046 14.1395 16.9227 13.6307 16.9577 12.8857C16.9912 12.1391 17 11.9011 17 10C17 8.09892 16.9912 7.86033 16.9577 7.11367C16.9227 6.36846 16.8046 5.85979 16.6325 5.41471C16.4531 4.95431 16.214 4.56377 15.8246 4.17469C15.4352 3.78531 15.0458 3.54615 14.585 3.3675C14.1387 3.1944 13.6298 3.07642 12.8845 3.04229C12.1379 3.00831 11.9002 3 9.99847 3H10.0005ZM9.37255 4.26146C9.55892 4.26117 9.76688 4.26146 10.0005 4.26146C11.8695 4.26146 12.0911 4.26817 12.8291 4.30171C13.5116 4.33292 13.882 4.44696 14.1288 4.54277C14.4555 4.66965 14.6884 4.82131 14.9332 5.06631C15.1782 5.31131 15.3299 5.54465 15.4571 5.87131C15.5529 6.11777 15.6671 6.48819 15.6981 7.17069C15.7317 7.9086 15.739 8.13027 15.739 9.9984C15.739 11.8665 15.7317 12.0882 15.6981 12.8261C15.6669 13.5086 15.5529 13.879 15.4571 14.1255C15.3302 14.4521 15.1782 14.6847 14.9332 14.9296C14.6882 15.1746 14.4556 15.3263 14.1288 15.4531C13.8823 15.5494 13.5116 15.6631 12.8291 15.6944C12.0912 15.7279 11.8695 15.7352 10.0005 15.7352C8.13134 15.7352 7.90982 15.7279 7.1719 15.6944C6.48939 15.6629 6.11897 15.5488 5.87207 15.453C5.5454 15.3261 5.31207 15.1745 5.06706 14.9295C4.82206 14.6845 4.67039 14.4517 4.54322 14.1249C4.44741 13.8784 4.33322 13.508 4.30216 12.8255C4.26862 12.0876 4.26191 11.8659 4.26191 9.99665C4.26191 8.12735 4.26862 7.90685 4.30216 7.16894C4.33337 6.48644 4.44741 6.11602 4.54322 5.86927C4.6701 5.5426 4.82206 5.30927 5.06706 5.06427C5.31207 4.81927 5.5454 4.6676 5.87207 4.54044C6.11882 4.44419 6.48939 4.33044 7.1719 4.29908C7.81765 4.26992 8.06791 4.26117 9.37255 4.25971V4.26146ZM13.7371 5.42375C13.5709 5.42375 13.4085 5.47302 13.2704 5.56534C13.1322 5.65765 13.0246 5.78886 12.961 5.94236C12.8974 6.09587 12.8808 6.26478 12.9132 6.42773C12.9457 6.59068 13.0257 6.74036 13.1432 6.85782C13.2607 6.97529 13.4104 7.05527 13.5734 7.08765C13.7364 7.12002 13.9053 7.10335 14.0588 7.03973C14.2122 6.9761 14.3434 6.86839 14.4357 6.73022C14.5279 6.59204 14.5772 6.42961 14.5771 6.26346C14.5771 5.79971 14.2008 5.42375 13.7371 5.42375ZM10.0005 6.40521C8.01526 6.40521 6.40568 8.01477 6.40568 10C6.40568 11.9852 8.01526 13.5941 10.0005 13.5941C11.9858 13.5941 13.5949 11.9852 13.5949 10C13.5949 8.01477 11.9858 6.40521 10.0005 6.40521ZM10.0005 7.66667C11.2891 7.66667 12.3339 8.71127 12.3339 10C12.3339 11.2886 11.2891 12.3333 10.0005 12.3333C8.71177 12.3333 7.66715 11.2886 7.66715 10C7.66715 8.71127 8.71177 7.66667 10.0005 7.66667Z" fill="white"/>
<defs>
<radialGradient id="paint0_radial_882_4476" cx="0" cy="0" r="1" gradientUnits="userSpaceOnUse" gradientTransform="translate(-3.35011 1.44077) rotate(78.6806) scale(8.86028 36.5225)">
<stop stop-color="#3771C8"/>
<stop offset="0.128" stop-color="#3771C8"/>
<stop offset="1" stop-color="#6600FF" stop-opacity="0"/>
</radialGradient>
</defs>
</svg>
