<svg width="21" height="21" viewBox="0 0 21 21" fill="none" xmlns="http://www.w3.org/2000/svg">
<path d="M10.5 0C4.70225 0 0 4.60113 0 10.2761C0 14.8164 3.00825 18.6683 7.18112 20.0273C7.70525 20.1223 7.875 19.8038 7.875 19.5332V17.6201C4.95425 18.2418 4.34613 16.4075 4.34613 16.4075C3.86838 15.2198 3.17975 14.9038 3.17975 14.9038C2.22688 14.2658 3.25238 14.2795 3.25238 14.2795C4.30675 14.3514 4.8615 15.3388 4.8615 15.3388C5.79775 16.9093 7.31763 16.4555 7.917 16.1926C8.01062 15.5289 8.28275 15.075 8.58375 14.819C6.25188 14.5578 3.80012 13.6766 3.80012 9.74003C3.80012 8.61737 4.2105 7.70108 4.88163 6.98176C4.77313 6.72229 4.4135 5.67669 4.984 4.26201C4.984 4.26201 5.866 3.98627 7.87237 5.31532C8.70975 5.08753 9.6075 4.97363 10.5 4.96935C11.3925 4.97363 12.2911 5.08753 13.1302 5.31532C15.1349 3.98627 16.0151 4.26201 16.0151 4.26201C16.5865 5.67755 16.2269 6.72314 16.1184 6.98176C16.7921 7.70108 17.199 8.61823 17.199 9.74003C17.199 13.6869 14.7429 14.5561 12.4049 14.8104C12.7811 15.129 13.125 15.7541 13.125 16.7132V19.5332C13.125 19.8063 13.293 20.1275 13.8259 20.0264C17.9952 18.6657 21 14.8147 21 10.2761C21 4.60113 16.2986 0 10.5 0Z" fill="black"/>
</svg>
