<svg width="24" height="24" viewBox="0 0 24 24" fill="none" xmlns="http://www.w3.org/2000/svg">
<path fill-rule="evenodd" clip-rule="evenodd" d="M24 12C24 18.6274 18.6274 24 12 24C5.37258 24 0 18.6274 0 12C0 5.37258 5.37258 0 12 0C18.6274 0 24 5.37258 24 12ZM12.6622 6.15818C13.0004 6.15818 13.2718 6.43765 13.2619 6.77578L13.0727 13.2253C13.0632 13.5497 12.7975 13.8078 12.473 13.8078H11.5324C11.208 13.8078 10.9423 13.55 10.9326 13.2258L10.7386 6.77622C10.7284 6.43794 10.9999 6.15818 11.3383 6.15818H12.6622ZM12.0029 18.0895C11.6232 18.0895 11.2972 17.9554 11.0249 17.6869C10.7526 17.4145 10.6183 17.0886 10.6222 16.7089C10.6183 16.3331 10.7526 16.0109 11.0249 15.7424C11.2972 15.474 11.6232 15.3397 12.0029 15.3397C12.3672 15.3397 12.6875 15.474 12.9636 15.7424C13.2397 16.0109 13.3798 16.3331 13.3836 16.7089C13.3798 16.962 13.3126 17.1941 13.1822 17.405C13.0556 17.612 12.8888 17.779 12.6817 17.9054C12.4746 18.0282 12.2483 18.0895 12.0029 18.0895Z" fill="#4D4D4D"/>
</svg>
