<svg width="22" height="22" viewBox="0 0 22 22" fill="none" xmlns="http://www.w3.org/2000/svg">
<path fill-rule="evenodd" clip-rule="evenodd" d="M11 21.4999C16.799 21.4999 21.5 16.7989 21.5 11C21.5 5.20099 16.799 0.5 11 0.5C5.20101 0.5 0.5 5.20099 0.5 11C0.5 16.7989 5.20101 21.4999 11 21.4999ZM9.95003 14.675C9.95003 15.2549 10.4201 15.725 11 15.725C11.5798 15.725 12.05 15.2549 12.05 14.675V12.05H14.675C15.2548 12.05 15.725 11.5799 15.725 11C15.725 10.4201 15.2548 9.94998 14.675 9.94998H12.05V7.32498C12.05 6.74509 11.5798 6.27498 11 6.27498C10.4201 6.27498 9.95003 6.74509 9.95003 7.32498V9.94998H7.32498C6.74509 9.94998 6.27499 10.4201 6.27499 11C6.27499 11.5799 6.74509 12.05 7.32498 12.05H9.95003V14.675Z" fill="#999999"/>
</svg>
