<svg width="12" height="12" viewBox="0 0 12 12" fill="none" xmlns="http://www.w3.org/2000/svg">
<path fill-rule="evenodd" clip-rule="evenodd" d="M6.00001 11.5C9.03755 11.5 11.5 9.03752 11.5 5.99999C11.5 2.96243 9.03755 0.5 6.00001 0.5C2.96243 0.5 0.5 2.96243 0.5 5.99999C0.5 9.03752 2.96243 11.5 6.00001 11.5ZM5.45001 7.92498C5.45001 8.22874 5.69625 8.47498 6.00001 8.47498C6.30372 8.47498 6.55001 8.22874 6.55001 7.92498V6.54998H7.92501C8.22872 6.54998 8.47501 6.30375 8.47501 5.99999C8.47501 5.69622 8.22872 5.44999 7.92501 5.44999H6.55001V4.07499C6.55001 3.77124 6.30372 3.52499 6.00001 3.52499C5.69625 3.52499 5.45001 3.77124 5.45001 4.07499V5.44999H4.07499C3.77124 5.44999 3.52499 5.69622 3.52499 5.99999C3.52499 6.30375 3.77124 6.54998 4.07499 6.54998H5.45001V7.92498Z" fill="#999999"/>
</svg>
