<svg width="10" height="12" viewBox="0 0 10 12" fill="none" xmlns="http://www.w3.org/2000/svg">
<path d="M0.78125 11.6562V0.34375H5.10938C7.5625 0.34375 8.78125 1.59375 8.78125 3.28125C8.78125 4.65625 7.90625 5.42188 6.79688 5.6875V5.79688C8 5.85938 9.21875 6.85938 9.21875 8.57812C9.21875 10.3438 7.95312 11.6562 5.35938 11.6562H0.78125ZM5.04688 9.95312C6.53125 9.95312 7.15625 9.3125 7.15625 8.42188C7.15625 7.40625 6.35938 6.625 5.09375 6.625H2.8125V9.95312H5.04688ZM4.85938 5.15625C5.9375 5.15625 6.75 4.53125 6.75 3.53125C6.75 2.65625 6.125 2.03125 4.90625 2.03125H2.8125V5.15625H4.85938Z" fill="#0059FF"/>
</svg>
