<svg width="24" height="24" viewBox="0 0 24 24" fill="none" xmlns="http://www.w3.org/2000/svg">
<path d="M7.45312 18V6.6875H11.9531C14.4531 6.6875 15.7031 7.89062 15.7031 9.59375C15.7031 10.9219 14.8438 11.75 13.6719 12.0156V12.125C14.9531 12.1875 16.1562 13.2031 16.1562 14.875C16.1562 16.6719 14.8125 18 12.25 18H7.45312ZM11.7812 16.0625C13.1406 16.0625 13.7188 15.5 13.7188 14.6562C13.7188 13.7031 13 13.0312 11.8438 13.0312H9.79688V16.0625H11.7812ZM11.6094 11.4219C12.5938 11.4219 13.3281 10.875 13.3281 9.96875C13.3281 9.15625 12.7344 8.59375 11.6562 8.59375H9.79688V11.4219H11.6094Z" fill="#0059FF"/>
</svg>
