<svg width="19" height="21" viewBox="0 0 19 21" fill="none" xmlns="http://www.w3.org/2000/svg">
<path fill-rule="evenodd" clip-rule="evenodd" d="M3.29265 9.35166C3.29265 5.75539 5.93217 3 8.99969 3C10.0842 3 11.1158 3.33832 12.0004 3.93317C12.0164 3.20428 12.2922 2.53945 12.7391 2.02773C11.6362 1.37426 10.3655 1 8.99969 1C4.66066 1 1.2955 4.82427 1.29265 9.34591L1.2683 11.5258L1.26824 11.5258V11.537C1.26824 12.7902 0.79239 13.8473 0.283349 14.5818C-0.0795794 15.1055 -0.0452548 15.727 0.116728 16.1571C0.272436 16.5705 0.71025 17.1818 1.50732 17.1818H16.493C17.2773 17.1818 17.7167 16.5882 17.8769 16.1757C18.043 15.7482 18.0799 15.1372 17.7332 14.6155C17.2459 13.8823 16.7825 12.8148 16.7811 11.5426L16.8055 9.4717H16.8055V9.45995C16.8055 8.48811 16.6522 7.5481 16.3688 6.67009C15.9583 6.88098 15.4929 7 14.9997 7C14.7749 7 14.5559 6.97527 14.3452 6.92839C14.6401 7.69847 14.8048 8.55025 14.8055 9.45423L14.7812 11.5252L14.7811 11.5252V11.537C14.7811 12.998 15.2202 14.2435 15.7392 15.1818H2.26873C2.80918 14.2454 3.26703 13.0024 3.26824 11.5428L3.29259 9.36283L3.29265 9.36283V9.35166ZM6.95718 18.3096C6.52568 17.9649 5.89643 18.0352 5.55172 18.4667C5.20701 18.8982 5.27737 19.5275 5.70887 19.8722C6.59621 20.5811 7.75153 21 8.99969 21C10.2478 21 11.4032 20.5811 12.2905 19.8722C12.722 19.5275 12.7924 18.8982 12.4477 18.4667C12.1029 18.0352 11.4737 17.9649 11.0422 18.3096C10.5142 18.7314 9.80047 19 8.99969 19C8.1989 19 7.48518 18.7314 6.95718 18.3096Z" fill="#030303"/>
<circle cx="15" cy="4" r="4" fill="#0059FF"/>
</svg>
