<svg width="164" height="36" viewBox="0 0 164 36" fill="none" xmlns="http://www.w3.org/2000/svg">
<path opacity="0.5" d="M97.8667 7.32324L89.7549 7.32324V27.8902H97.8667V7.32324Z" fill="#0059FF"/>
<path opacity="0.5" d="M110.766 21.8403L89.7549 21.8403V27.8718L110.766 27.8718V21.8403Z" fill="#0059FF"/>
<path opacity="0.5" d="M13.1088 7.37866H27.0163V21.0908H13.0519C9.16149 21.0908 6 18.03 6 14.2635C6 10.4645 9.18475 7.37866 13.1088 7.37866Z" fill="#0059FF"/>
<path opacity="0.5" d="M19.9647 27.9468L6.00034 27.9468V14.2346L19.9078 14.2346C23.8319 14.2371 27.0166 17.3204 27.0166 21.1195C27.0166 24.8885 23.8551 27.9468 19.9647 27.9468Z" fill="#0059FF"/>
<path opacity="0.5" d="M38.2485 7.37866H30.1367V27.9456H38.2485V7.37866Z" fill="#0059FF"/>
<path opacity="0.5" d="M51.1478 7.37866H30.1367V13.4101H51.1478V7.37866Z" fill="#0059FF"/>
<path opacity="0.5" d="M46.3629 15.7085H30.1367V21.6398H46.3629V15.7085Z" fill="#0059FF"/>
<path opacity="0.5" d="M47.9326 27.9456H58.495V7.37866L47.9326 27.9456Z" fill="#0059FF"/>
<path opacity="0.72" d="M58.4951 27.9456H69.0601L58.4951 7.37866V27.9456Z" fill="#0059FF"/>
<path opacity="0.5" d="M72.3405 25.1069C74.2612 26.8963 76.8643 28 79.7388 28C82.8202 28 85.5887 26.7286 87.5378 24.7065L80.1447 17.5488L72.3379 25.1069H72.3405Z" fill="#0059FF"/>
<path opacity="0.5" d="M79.7397 7.32251C76.9246 7.32251 74.3706 8.38615 72.4629 10.1105L80.1482 17.5509L87.4328 10.4984C85.4888 8.54381 82.7642 7.32251 79.7423 7.32251L79.7397 7.32251Z" fill="#0059FF"/>
<path opacity="0.72" d="M72.4624 10.1094C70.3737 11.9965 69.0605 14.6768 69.0605 17.66C69.0605 20.6432 70.322 23.2259 72.3409 25.1054L80.1477 17.5474L72.4624 10.1069V10.1094Z" fill="#0059FF"/>
<path opacity="0.5" d="M158 17.3367C158 18.717 157.726 20.0839 157.193 21.3592C156.661 22.6344 155.88 23.7932 154.896 24.7692C153.912 25.7453 152.743 26.5195 151.457 27.0478C150.171 27.576 148.793 27.8479 147.401 27.8479C146.01 27.8479 144.631 27.576 143.345 27.0478C142.06 26.5195 140.891 25.7453 139.907 24.7692C138.923 23.7932 138.142 22.6344 137.61 21.3592C137.077 20.0839 136.803 18.717 136.803 17.3367L147.401 17.3367L158 17.3367Z" fill="#0059FF"/>
<path opacity="0.5" d="M147.66 27.8451C146.234 27.8451 144.822 27.5797 143.505 27.0641C142.188 26.5484 140.991 25.7926 139.983 24.8398C138.975 23.887 138.175 22.7558 137.629 21.5109C137.084 20.266 136.803 18.9317 136.803 17.5842C136.803 16.2367 137.084 14.9024 137.629 13.6575C138.175 12.4126 138.975 11.2814 139.983 10.3286C140.991 9.37579 142.188 8.61997 143.505 8.10431C144.822 7.58865 146.234 7.32324 147.66 7.32324L147.66 17.5842L147.66 27.8451Z" fill="#0059FF"/>
<path opacity="0.5" d="M133.959 17.2598C133.959 18.6401 133.685 20.007 133.152 21.2822C132.62 22.5575 131.839 23.7163 130.855 24.6923C129.87 25.6684 128.702 26.4426 127.416 26.9709C126.13 27.4991 124.752 27.771 123.36 27.771C121.968 27.771 120.59 27.4991 119.304 26.9709C118.019 26.4426 116.85 25.6684 115.866 24.6923C114.882 23.7163 114.101 22.5575 113.568 21.2822C113.036 20.007 112.762 18.6401 112.762 17.2598L123.36 17.2598H133.959Z" fill="#0059FF"/>
<path opacity="0.5" d="M133.959 17.261C133.959 15.2315 133.337 13.2477 132.173 11.5603C131.008 9.87287 129.353 8.5577 127.416 7.78107C125.48 7.00445 123.349 6.80124 121.293 7.19717C119.237 7.59309 117.348 8.57035 115.866 10.0054C114.384 11.4404 113.374 13.2687 112.965 15.2591C112.556 17.2496 112.766 19.3127 113.568 21.1876C114.371 23.0626 115.729 24.6651 117.472 25.7926C119.215 26.9201 121.264 27.5219 123.36 27.5219V17.261H133.959Z" fill="#0059FF"/>
</svg>
