<svg width="15" height="15" viewBox="0 0 15 15" fill="none" xmlns="http://www.w3.org/2000/svg">
<path d="M10.6706 0H4.32941C1.93846 0 0 1.93846 0 4.32941V10.6706C0 13.0615 1.93846 15 4.32941 15H10.6706C13.0615 15 15 13.0615 15 10.6706V4.32941C15.0011 1.93846 13.0626 0 10.6706 0ZM13.6192 10.7821C13.6192 12.369 12.3329 13.6564 10.7449 13.6564H4.25506C2.66818 13.6564 1.38082 12.3701 1.38082 10.7821V4.29224C1.38082 2.70535 2.66712 1.418 4.25506 1.418H10.7449C12.3318 1.418 13.6192 2.70429 13.6192 4.29224V10.7821Z" fill="#808080"/>
<path d="M7.49922 3.6438C5.34938 3.6438 3.60742 5.38682 3.60742 7.5356C3.60742 9.68437 5.35045 11.4274 7.49922 11.4274C9.648 11.4274 11.391 9.68437 11.391 7.5356C11.391 5.38682 9.648 3.6438 7.49922 3.6438ZM7.49922 10.0593C6.10565 10.0593 4.97656 8.92917 4.97656 7.53666C4.97656 6.14415 6.10671 5.014 7.49922 5.014C8.89173 5.014 10.0219 6.14415 10.0219 7.53666C10.0219 8.92917 8.89173 10.0593 7.49922 10.0593Z" fill="#808080"/>
<path d="M11.5223 4.4033C12.0233 4.4033 12.4294 3.99718 12.4294 3.49621C12.4294 2.99523 12.0233 2.58911 11.5223 2.58911C11.0214 2.58911 10.6152 2.99523 10.6152 3.49621C10.6152 3.99718 11.0214 4.4033 11.5223 4.4033Z" fill="#808080"/>
</svg>
