<svg width="35" height="35" viewBox="0 0 35 35" fill="none" xmlns="http://www.w3.org/2000/svg">
<circle cx="17.5" cy="17.5" r="17.5" fill="#333333"/>
<path fill-rule="evenodd" clip-rule="evenodd" d="M23.3601 22.6717C24.0055 22.4911 24.5137 21.9584 24.6862 21.2823H24.6865C25 20.0568 25 17.5 25 17.5C25 17.5 25 14.9432 24.6865 13.7177C24.514 13.0416 24.0057 12.5089 23.3604 12.3283C22.1904 12 17.5 12 17.5 12C17.5 12 12.8093 12 11.6396 12.3283C10.9943 12.5089 10.486 13.0416 10.3135 13.7177C10 14.9432 10 17.5 10 17.5C10 17.5 10 20.0568 10.3133 21.2823C10.4858 21.9584 10.994 22.4911 11.6393 22.6717C12.8093 23 17.4997 23 17.4997 23C17.4997 23 22.1904 23 23.3601 22.6717ZM15.9668 19.8222V15.1793L19.8873 17.5006L15.9668 19.8222Z" fill="#808080"/>
</svg>
