<svg width="35" height="35" viewBox="0 0 35 35" fill="none" xmlns="http://www.w3.org/2000/svg">
<circle cx="17.5" cy="17.5" r="17.5" fill="#333333"/>
<path d="M20.6706 10H14.3294C11.9385 10 10 11.9385 10 14.3294V20.6706C10 23.0615 11.9385 25 14.3294 25H20.6706C23.0615 25 25 23.0615 25 20.6706V14.3294C25.0011 11.9385 23.0626 10 20.6706 10ZM23.6192 20.7821C23.6192 22.369 22.3329 23.6564 20.7449 23.6564H14.2551C12.6682 23.6564 11.3808 22.3701 11.3808 20.7821V14.2922C11.3808 12.7054 12.6671 11.418 14.2551 11.418H20.7449C22.3318 11.418 23.6192 12.7043 23.6192 14.2922V20.7821Z" fill="#808080"/>
<path d="M17.4992 13.6438C15.3494 13.6438 13.6074 15.3868 13.6074 17.5356C13.6074 19.6844 15.3504 21.4274 17.4992 21.4274C19.648 21.4274 21.391 19.6844 21.391 17.5356C21.391 15.3868 19.648 13.6438 17.4992 13.6438ZM17.4992 20.0593C16.1057 20.0593 14.9766 18.9292 14.9766 17.5367C14.9766 16.1442 16.1067 15.014 17.4992 15.014C18.8917 15.014 20.0219 16.1442 20.0219 17.5367C20.0219 18.9292 18.8917 20.0593 17.4992 20.0593Z" fill="#808080"/>
<path d="M21.5223 14.4033C22.0233 14.4033 22.4294 13.9972 22.4294 13.4962C22.4294 12.9952 22.0233 12.5891 21.5223 12.5891C21.0214 12.5891 20.6152 12.9952 20.6152 13.4962C20.6152 13.9972 21.0214 14.4033 21.5223 14.4033Z" fill="#808080"/>
</svg>
