<svg width="15" height="11" viewBox="0 0 15 11" fill="none" xmlns="http://www.w3.org/2000/svg">
<path fill-rule="evenodd" clip-rule="evenodd" d="M13.3601 10.6717C14.0055 10.4911 14.5137 9.95844 14.6862 9.28233H14.6865C15 8.05681 15 5.5 15 5.5C15 5.5 15 2.94319 14.6865 1.71767C14.514 1.04156 14.0057 0.508939 13.3604 0.328277C12.1904 0 7.5 0 7.5 0C7.5 0 2.80929 0 1.63959 0.328277C0.994285 0.508939 0.48603 1.04156 0.313525 1.71767C0 2.94319 0 5.5 0 5.5C0 5.5 0 8.05681 0.313261 9.28233C0.485766 9.95844 0.994021 10.4911 1.63933 10.6717C2.80929 11 7.49973 11 7.49973 11C7.49973 11 12.1904 11 13.3601 10.6717ZM5.9668 7.82222V3.17927L9.88732 5.50061L5.9668 7.82222Z" fill="#808080"/>
</svg>
