<svg width="25" height="23" viewBox="0 0 25 23" fill="none" xmlns="http://www.w3.org/2000/svg">
<path d="M12.4817 0.439941C5.85244 0.439941 0.480469 4.68596 0.480469 9.92662C0.480469 13.3361 2.75669 16.3273 6.17345 17.998C5.92297 18.9342 5.26393 21.3928 5.13261 21.9181C4.96968 22.5698 5.37093 22.5625 5.63357 22.3875C5.84028 22.2488 8.92145 20.1526 10.2517 19.2504C10.9739 19.3574 11.7181 19.4133 12.4793 19.4133C19.1061 19.4133 24.4805 15.1673 24.4805 9.92662C24.4805 4.68596 19.1085 0.439941 12.4817 0.439941Z" fill="#371D1E"/>
<path d="M4.109 8.18064H5.34438C5.34438 8.18064 5.35167 11.5731 5.34438 12.3634C5.34438 12.9398 6.6284 12.9471 6.6284 12.3707L6.63326 8.22442C6.63326 8.22442 7.04668 8.22685 7.86135 8.22685C8.62982 8.22685 8.62982 7.01821 7.86135 7.01821C6.99561 7.01821 4.10413 6.9939 4.10413 6.9939C3.37944 6.9939 3.38187 8.17821 4.10413 8.17821" fill="#FAE100"/>
<mask id="mask0_882_4477" style="mask-type:luminance" maskUnits="userSpaceOnUse" x="3" y="6" width="6" height="7">
<path d="M4.109 8.18064H5.34438C5.34438 8.18064 5.35167 11.5731 5.34438 12.3634C5.34438 12.9398 6.6284 12.9471 6.6284 12.3707L6.63326 8.22442C6.63326 8.22442 7.04668 8.22685 7.86135 8.22685C8.62982 8.22685 8.62982 7.01821 7.86135 7.01821C6.99561 7.01821 4.10413 6.9939 4.10413 6.9939C3.37944 6.9939 3.38187 8.17821 4.10413 8.17821" fill="white"/>
</mask>
<g mask="url(#mask0_882_4477)">
<path d="M8.63222 6.99634H3.38184V12.9495H8.63222V6.99634Z" fill="#FAE100"/>
</g>
<path d="M10.0209 8.39962L10.7091 10.5542H9.27673L10.0209 8.39962ZM9.24998 7.39039C8.94599 8.05916 7.84923 11.2206 7.48445 12.0596C7.22181 12.6651 8.35748 13.1588 8.62013 12.5532L8.86817 11.6899H11.1274C11.1274 11.6899 11.0495 11.7264 11.3487 12.5167C11.5919 13.1588 12.7664 12.7137 12.5208 12.0717C12.1731 11.1549 10.9742 7.85731 10.7553 7.39039C10.6556 7.17396 10.2932 7.02075 9.94305 7.02075C9.65366 7.02075 9.36914 7.12775 9.24998 7.39039Z" fill="#FAE100"/>
<mask id="mask1_882_4477" style="mask-type:luminance" maskUnits="userSpaceOnUse" x="7" y="7" width="6" height="6">
<path d="M10.0209 8.39962L10.7091 10.5542H9.27673L10.0209 8.39962ZM9.24998 7.39039C8.94599 8.05916 7.84923 11.2206 7.48445 12.0596C7.22181 12.6651 8.35748 13.1588 8.62013 12.5532L8.86817 11.6899H11.1274C11.1274 11.6899 11.0495 11.7264 11.3487 12.5167C11.5919 13.1588 12.7664 12.7137 12.5208 12.0717C12.1731 11.1549 10.9742 7.85731 10.7553 7.39039C10.6556 7.17396 10.2932 7.02075 9.94305 7.02075C9.65366 7.02075 9.36914 7.12775 9.24998 7.39039Z" fill="white"/>
</mask>
<g mask="url(#mask1_882_4477)">
<path d="M12.7687 7.02075H7.22168V13.1612H12.7687V7.02075Z" fill="#FAE100"/>
</g>
<path d="M12.9561 7.58981C12.9561 8.66469 12.9634 12.1277 12.9634 12.1277C12.9634 12.1277 12.8636 12.8159 13.4546 12.8159C14.0455 12.8159 15.3539 12.8086 15.9351 12.8086C16.5163 12.8086 16.5114 11.5732 15.9326 11.5732C15.3539 11.5732 14.2936 11.5659 14.2936 11.5659C14.2936 11.5659 14.2984 8.36314 14.296 7.58494C14.296 7.208 13.9604 7.02075 13.6272 7.02075C13.2941 7.02075 12.9585 7.21044 12.9585 7.58737" fill="#FAE100"/>
<mask id="mask2_882_4477" style="mask-type:luminance" maskUnits="userSpaceOnUse" x="12" y="7" width="5" height="6">
<path d="M12.9561 7.58981C12.9561 8.66469 12.9634 12.1277 12.9634 12.1277C12.9634 12.1277 12.8636 12.8159 13.4546 12.8159C14.0455 12.8159 15.3539 12.8086 15.9351 12.8086C16.5163 12.8086 16.5114 11.5732 15.9326 11.5732C15.3539 11.5732 14.2936 11.5659 14.2936 11.5659C14.2936 11.5659 14.2984 8.36314 14.296 7.58494C14.296 7.208 13.9604 7.02075 13.6272 7.02075C13.2941 7.02075 12.9585 7.21044 12.9585 7.58737" fill="white"/>
</mask>
<g mask="url(#mask2_882_4477)">
<path d="M16.5135 7.02075H12.8633V12.8134H16.5135V7.02075Z" fill="#FAE100"/>
</g>
<path d="M16.6699 7.41715C16.682 7.88893 16.6553 12.1471 16.6553 12.4633C16.6553 12.9618 17.9247 12.9594 17.9223 12.4633C17.9223 11.8845 17.9223 10.7877 17.9223 10.7877L18.2943 10.4886L19.9237 12.7113C20.252 13.1466 21.288 12.3611 20.9597 11.9258L19.2306 9.64717C19.2306 9.64717 20.4052 8.37774 20.8672 7.91812C21.1372 7.65061 20.3006 6.80676 20.0307 7.07669C19.7681 7.3369 17.9296 9.17782 17.9296 9.17782C17.9296 9.17782 17.9466 8.02269 17.9296 7.38311C17.9223 7.13992 17.6256 7.02319 17.3216 7.02319C16.9957 7.02319 16.6626 7.15695 16.6699 7.41715Z" fill="#FAE100"/>
<mask id="mask3_882_4477" style="mask-type:luminance" maskUnits="userSpaceOnUse" x="16" y="7" width="6" height="6">
<path d="M16.6699 7.41715C16.682 7.88893 16.6553 12.1471 16.6553 12.4633C16.6553 12.9618 17.9247 12.9594 17.9223 12.4633C17.9223 11.8845 17.9223 10.7877 17.9223 10.7877L18.2943 10.4886L19.9237 12.7113C20.252 13.1466 21.288 12.3611 20.9597 11.9258L19.2306 9.64717C19.2306 9.64717 20.4052 8.37774 20.8672 7.91812C21.1372 7.65061 20.3006 6.80676 20.0307 7.07669C19.7681 7.3369 17.9296 9.17782 17.9296 9.17782C17.9296 9.17782 17.9466 8.02269 17.9296 7.38311C17.9223 7.13992 17.6256 7.02319 17.3216 7.02319C16.9957 7.02319 16.6626 7.15695 16.6699 7.41715Z" fill="white"/>
</mask>
<g mask="url(#mask3_882_4477)">
<path d="M21.2904 6.80908H16.6553V13.1441H21.2904V6.80908Z" fill="#FAE100"/>
</g>
</svg>
