<svg width="48" height="48" viewBox="0 0 48 48" fill="none" xmlns="http://www.w3.org/2000/svg">
<circle cx="24" cy="24" r="23.75" stroke="#CCCCCC" stroke-width="0.5"/>
<path d="M28.7294 10.1455C28.8441 11.6442 28.3702 13.1287 27.4081 14.2836C26.9474 14.8566 26.3627 15.3175 25.6981 15.6318C25.0334 15.946 24.3061 16.1054 23.571 16.0978C23.5241 15.3771 23.6197 14.6542 23.8523 13.9704C24.085 13.2867 24.4501 12.6555 24.9268 12.1129C25.9019 11.0023 27.2596 10.2999 28.7294 10.1455Z" fill="black"/>
<path d="M31.4104 21.0536C30.922 21.9142 30.6592 22.8844 30.6464 23.8739C30.6476 24.9869 30.9764 26.0749 31.5918 27.0023C32.2072 27.9297 33.082 28.6555 34.1071 29.089C33.7041 30.3983 33.0966 31.6356 32.3071 32.7551C31.2468 34.3412 30.1351 35.8907 28.3706 35.9194C27.5315 35.9387 26.965 35.6974 26.3748 35.446C25.7591 35.1837 25.1175 34.9104 24.1136 34.9104C23.0489 34.9104 22.3786 35.1925 21.7321 35.4646C21.1734 35.6997 20.6325 35.9273 19.8703 35.9589C18.1899 36.0212 16.9057 34.2661 15.8069 32.695C13.6107 29.4863 11.9005 23.6525 14.1932 19.683C14.7225 18.7319 15.4891 17.9341 16.4184 17.3674C17.3476 16.8006 18.4079 16.4843 19.4958 16.4491C20.4488 16.4295 21.3633 16.7969 22.1651 17.1189C22.7782 17.3652 23.3255 17.585 23.7736 17.585C24.1675 17.585 24.6995 17.3739 25.3194 17.1278C26.296 16.7402 27.4909 16.266 28.7086 16.3938C29.6419 16.423 30.5554 16.6694 31.3767 17.1134C32.1981 17.5574 32.9046 18.1869 33.4401 18.9517C32.5971 19.47 31.8989 20.193 31.4104 21.0536Z" fill="black"/>
</svg>
