<svg width="48" height="48" viewBox="0 0 48 48" fill="none" xmlns="http://www.w3.org/2000/svg">
<circle cx="24" cy="24" r="23.75" stroke="#CCCCCC" stroke-width="0.5"/>
<g clip-path="url(#clip0_630_18412)">
<path d="M24.4817 13.4399C17.8524 13.4399 12.4805 17.686 12.4805 22.9266C12.4805 26.3361 14.7567 29.3273 18.1734 30.998C17.923 31.9342 17.2639 34.3928 17.1326 34.9181C16.9697 35.5698 17.3709 35.5625 17.6336 35.3875C17.8403 35.2488 20.9214 33.1526 22.2517 32.2504C22.9739 32.3574 23.7181 32.4133 24.4793 32.4133C31.1061 32.4133 36.4805 28.1673 36.4805 22.9266C36.4805 17.686 31.1085 13.4399 24.4817 13.4399Z" fill="#371D1E"/>
<path d="M16.109 21.1806H17.3444C17.3444 21.1806 17.3517 24.5731 17.3444 25.3634C17.3444 25.9398 18.6284 25.9471 18.6284 25.3707L18.6333 21.2244C18.6333 21.2244 19.0467 21.2268 19.8614 21.2268C20.6298 21.2268 20.6298 20.0182 19.8614 20.0182C18.9956 20.0182 16.1041 19.9939 16.1041 19.9939C15.3794 19.9939 15.3819 21.1782 16.1041 21.1782" fill="#FAE100"/>
<mask id="mask0_630_18412" style="mask-type:luminance" maskUnits="userSpaceOnUse" x="15" y="19" width="6" height="7">
<path d="M16.109 21.1806H17.3444C17.3444 21.1806 17.3517 24.5731 17.3444 25.3634C17.3444 25.9398 18.6284 25.9471 18.6284 25.3707L18.6333 21.2244C18.6333 21.2244 19.0467 21.2268 19.8614 21.2268C20.6298 21.2268 20.6298 20.0182 19.8614 20.0182C18.9956 20.0182 16.1041 19.9939 16.1041 19.9939C15.3794 19.9939 15.3819 21.1782 16.1041 21.1782" fill="white"/>
</mask>
<g mask="url(#mask0_630_18412)">
<path d="M20.6322 19.9963H15.3818V25.9495H20.6322V19.9963Z" fill="#FAE100"/>
</g>
<path d="M22.0209 21.3996L22.7091 23.5542H21.2767L22.0209 21.3996ZM21.25 20.3904C20.946 21.0592 19.8492 24.2206 19.4844 25.0596C19.2218 25.6651 20.3575 26.1588 20.6201 25.5532L20.8682 24.6899H23.1274C23.1274 24.6899 23.0495 24.7264 23.3487 25.5167C23.5919 26.1588 24.7664 25.7137 24.5208 25.0717C24.1731 24.1549 22.9742 20.8573 22.7553 20.3904C22.6556 20.174 22.2932 20.0208 21.9431 20.0208C21.6537 20.0208 21.3691 20.1278 21.25 20.3904Z" fill="#FAE100"/>
<mask id="mask1_630_18412" style="mask-type:luminance" maskUnits="userSpaceOnUse" x="19" y="20" width="6" height="6">
<path d="M22.0209 21.3996L22.7091 23.5542H21.2767L22.0209 21.3996ZM21.25 20.3904C20.946 21.0592 19.8492 24.2206 19.4844 25.0596C19.2218 25.6651 20.3575 26.1588 20.6201 25.5532L20.8682 24.6899H23.1274C23.1274 24.6899 23.0495 24.7264 23.3487 25.5167C23.5919 26.1588 24.7664 25.7137 24.5208 25.0717C24.1731 24.1549 22.9742 20.8573 22.7553 20.3904C22.6556 20.174 22.2932 20.0208 21.9431 20.0208C21.6537 20.0208 21.3691 20.1278 21.25 20.3904Z" fill="white"/>
</mask>
<g mask="url(#mask1_630_18412)">
<path d="M24.7687 20.0208H19.2217V26.1612H24.7687V20.0208Z" fill="#FAE100"/>
</g>
<path d="M24.9561 20.5898C24.9561 21.6647 24.9634 25.1277 24.9634 25.1277C24.9634 25.1277 24.8636 25.8159 25.4546 25.8159C26.0455 25.8159 27.3539 25.8086 27.9351 25.8086C28.5163 25.8086 28.5114 24.5732 27.9326 24.5732C27.3539 24.5732 26.2936 24.5659 26.2936 24.5659C26.2936 24.5659 26.2984 21.3631 26.296 20.5849C26.296 20.208 25.9604 20.0208 25.6272 20.0208C25.2941 20.0208 24.9585 20.2104 24.9585 20.5874" fill="#FAE100"/>
<mask id="mask2_630_18412" style="mask-type:luminance" maskUnits="userSpaceOnUse" x="24" y="20" width="5" height="6">
<path d="M24.9561 20.5898C24.9561 21.6647 24.9634 25.1277 24.9634 25.1277C24.9634 25.1277 24.8636 25.8159 25.4546 25.8159C26.0455 25.8159 27.3539 25.8086 27.9351 25.8086C28.5163 25.8086 28.5114 24.5732 27.9326 24.5732C27.3539 24.5732 26.2936 24.5659 26.2936 24.5659C26.2936 24.5659 26.2984 21.3631 26.296 20.5849C26.296 20.208 25.9604 20.0208 25.6272 20.0208C25.2941 20.0208 24.9585 20.2104 24.9585 20.5874" fill="white"/>
</mask>
<g mask="url(#mask2_630_18412)">
<path d="M28.5135 20.0208H24.8633V25.8134H28.5135V20.0208Z" fill="#FAE100"/>
</g>
<path d="M28.6699 20.4172C28.682 20.8889 28.6553 25.1471 28.6553 25.4633C28.6553 25.9618 29.9247 25.9594 29.9223 25.4633C29.9223 24.8845 29.9223 23.7877 29.9223 23.7877L30.2943 23.4886L31.9237 25.7113C32.252 26.1466 33.288 25.3611 32.9597 24.9258L31.2306 22.6472C31.2306 22.6472 32.4052 21.3777 32.8672 20.9181C33.1372 20.6506 32.3006 19.8068 32.0307 20.0767C31.7681 20.3369 29.9296 22.1778 29.9296 22.1778C29.9296 22.1778 29.9466 21.0227 29.9296 20.3831C29.9223 20.1399 29.6256 20.0232 29.3216 20.0232C28.9957 20.0232 28.6626 20.1569 28.6699 20.4172Z" fill="#FAE100"/>
<mask id="mask3_630_18412" style="mask-type:luminance" maskUnits="userSpaceOnUse" x="28" y="20" width="6" height="6">
<path d="M28.6699 20.4172C28.682 20.8889 28.6553 25.1471 28.6553 25.4633C28.6553 25.9618 29.9247 25.9594 29.9223 25.4633C29.9223 24.8845 29.9223 23.7877 29.9223 23.7877L30.2943 23.4886L31.9237 25.7113C32.252 26.1466 33.288 25.3611 32.9597 24.9258L31.2306 22.6472C31.2306 22.6472 32.4052 21.3777 32.8672 20.9181C33.1372 20.6506 32.3006 19.8068 32.0307 20.0767C31.7681 20.3369 29.9296 22.1778 29.9296 22.1778C29.9296 22.1778 29.9466 21.0227 29.9296 20.3831C29.9223 20.1399 29.6256 20.0232 29.3216 20.0232C28.9957 20.0232 28.6626 20.1569 28.6699 20.4172Z" fill="white"/>
</mask>
<g mask="url(#mask3_630_18412)">
<path d="M33.2904 19.8091H28.6553V26.1441H33.2904V19.8091Z" fill="#FAE100"/>
</g>
</g>
<defs>
<clipPath id="clip0_630_18412">
<rect width="24" height="22.0497" fill="white" transform="translate(12.4805 13.4399)"/>
</clipPath>
</defs>
</svg>
