<svg width="22" height="26" viewBox="0 0 22 26" fill="none" xmlns="http://www.w3.org/2000/svg">
<path d="M15.7294 0.145508C15.8441 1.64424 15.3702 3.12868 14.4081 4.28358C13.9474 4.85655 13.3627 5.31753 12.6981 5.63178C12.0334 5.94604 11.3061 6.10538 10.571 6.09781C10.5241 5.37709 10.6197 4.65419 10.8523 3.97044C11.085 3.28669 11.4501 2.6555 11.9268 2.11294C12.9019 1.00235 14.2596 0.299881 15.7294 0.145508Z" fill="black"/>
<path d="M18.4104 11.0536C17.922 11.9142 17.6592 12.8844 17.6464 13.8739C17.6476 14.9869 17.9764 16.0749 18.5918 17.0023C19.2072 17.9297 20.082 18.6555 21.1071 19.089C20.7041 20.3983 20.0966 21.6356 19.3071 22.7551C18.2468 24.3412 17.1351 25.8907 15.3706 25.9194C14.5315 25.9387 13.965 25.6974 13.3748 25.446C12.7591 25.1837 12.1175 24.9104 11.1136 24.9104C10.0489 24.9104 9.37855 25.1925 8.73208 25.4646C8.17341 25.6997 7.63254 25.9273 6.87027 25.9589C5.1899 26.0212 3.90571 24.2661 2.80688 22.6949C0.610661 19.4863 -1.09946 13.6525 1.1932 9.68299C1.72248 8.73189 2.4891 7.93411 3.41837 7.36738C4.34765 6.80065 5.40788 6.4843 6.49576 6.44915C7.4488 6.42954 8.3633 6.79687 9.16507 7.11892C9.77823 7.36521 10.3255 7.58501 10.7736 7.58501C11.1675 7.58501 11.6995 7.37388 12.3194 7.12783C13.296 6.74024 14.4909 6.26598 15.7086 6.3938C16.6419 6.423 17.5554 6.6694 18.3767 7.11342C19.1981 7.55745 19.9046 8.18687 20.4401 8.95169C19.5971 9.46995 18.8989 10.193 18.4104 11.0536Z" fill="black"/>
</svg>
