<svg width="17" height="18" viewBox="0 0 17 18" fill="none" xmlns="http://www.w3.org/2000/svg">
<path fill-rule="evenodd" clip-rule="evenodd" d="M1.85146 0.0378092C2.9184 0.0378092 12.0916 8.44633e-06 12.0916 8.44633e-06C12.3269 -0.000949884 12.6872 0.0797629 12.897 0.180281C12.897 0.180281 12.7603 0.0334437 12.952 0.231925C13.1238 0.409748 16.7398 4.14085 16.8105 4.21602C16.8813 4.29131 16.8361 4.25138 16.8361 4.25138C16.9345 4.46508 17 4.83489 17 5.07032V15.2512C17 16.0054 16.0973 17.0207 15.2351 17.0207C14.3728 17.0207 2.61333 16.9855 1.75222 16.9855C0.891107 16.9855 0.0485213 16.3178 0.0106141 15.2711C-0.0272932 14.2242 0.0485212 2.67833 0.0485212 1.7693C0.0485212 0.860377 0.784519 0.0378092 1.85146 0.0378092ZM1.65575 1.93882L1.67172 14.823C1.67204 15.0571 1.86339 15.2493 2.09892 15.2506L14.9365 15.3185C14.9924 15.3189 15.0478 15.3082 15.0995 15.2871C15.1512 15.266 15.1983 15.2348 15.2379 15.1954C15.2775 15.156 15.3089 15.1091 15.3303 15.0574C15.3516 15.0058 15.3626 14.9505 15.3624 14.8946L15.3472 5.27253C15.3471 5.15561 15.2781 4.99397 15.1933 4.91177L12.0805 1.89654C11.9952 1.81392 11.9268 1.84298 11.9268 1.96054V5.7025C11.9268 6.05804 11.4333 6.67574 10.9863 6.67574H4.55502C4.0652 6.67574 3.53706 6.17379 3.53706 5.7025C3.53706 5.23121 3.53557 1.96075 3.53557 1.96075C3.53557 1.8432 3.44058 1.74673 3.32346 1.74534L1.86743 1.72884C1.8397 1.72855 1.81219 1.73378 1.78649 1.74421C1.76079 1.75464 1.73742 1.77007 1.71772 1.78961C1.69803 1.80914 1.68242 1.83238 1.67178 1.858C1.66114 1.88361 1.65569 1.91108 1.65575 1.93882ZM5.12086 1.98567V4.94638C5.12086 5.06351 5.21626 5.15945 5.33382 5.15945H10.0936C10.2121 5.15945 10.3066 5.06404 10.3066 4.94638V1.98578C10.3065 1.92929 10.2841 1.87514 10.2442 1.83518C10.2043 1.79522 10.1501 1.77271 10.0936 1.7726H5.33393C5.21531 1.7726 5.12096 1.86801 5.12096 1.98578L5.12086 1.98567Z" fill="#4D4D4D"/>
</svg>
