<svg width="19" height="19" viewBox="0 0 19 19" fill="none" xmlns="http://www.w3.org/2000/svg">
<path d="M8.44961 17.9001H3.1996C2.0398 17.9 1.0996 16.9598 1.09961 15.8L1.09969 3.20009C1.0997 2.04029 2.0399 1.1001 3.19969 1.1001H12.6499C13.8097 1.1001 14.7499 2.0403 14.7499 3.2001V7.4001M14.2246 14.1805V14.1252M4.77494 5.3001H11.0749M4.77494 8.4501H11.0749M4.77494 11.6001H7.92494M17.8996 14.2251C17.8996 14.2251 17.028 16.7973 14.2246 16.7524C11.4212 16.7074 10.5496 14.2251 10.5496 14.2251C10.5496 14.2251 11.3859 11.608 14.2246 11.608C17.0633 11.608 17.8996 14.2251 17.8996 14.2251Z" stroke="#4D4D4D" stroke-width="2" stroke-linecap="round" stroke-linejoin="round"/>
</svg>
