<svg width="22" height="22" viewBox="0 0 22 22" fill="none" xmlns="http://www.w3.org/2000/svg">
<path d="M9.20926 15.1999H11.1245M11.1245 15.1999H13.1285M11.1245 15.1999V6.7999M11.1245 6.7999H8.00039C7.66902 6.7999 7.40039 7.06853 7.40039 7.3999V8.28225M11.1245 6.7999H14.0004C14.3318 6.7999 14.6004 7.06853 14.6004 7.3999V8.52931M3.80039 20.5999H18.2004C19.5259 20.5999 20.6004 19.5254 20.6004 18.1999V3.7999C20.6004 2.47442 19.5259 1.3999 18.2004 1.3999H3.80039C2.47491 1.3999 1.40039 2.47442 1.40039 3.7999V18.1999C1.40039 19.5254 2.47491 20.5999 3.80039 20.5999Z" stroke="#999999" stroke-width="2" stroke-linecap="round" stroke-linejoin="round"/>
</svg>
