<svg width="18" height="12" viewBox="0 0 18 12" fill="none" xmlns="http://www.w3.org/2000/svg">
<path d="M14.3594 11.7246C12.3086 11.7246 10.8457 10.6172 10.791 9.00391H12.3223C12.377 9.87891 13.2383 10.4258 14.3457 10.4258C15.5352 10.4258 16.4102 9.76953 16.4102 8.8125C16.4102 7.8418 15.5898 7.13086 14.1816 7.13086H13.334V5.90039H14.1816C15.3027 5.90039 16.0957 5.27148 16.0957 4.32812C16.0957 3.42578 15.4258 2.81055 14.373 2.81055C13.375 2.81055 12.5 3.35742 12.459 4.25977H11.0098C11.0508 2.64648 12.541 1.55273 14.3867 1.55273C16.3281 1.55273 17.5586 2.7832 17.5449 4.24609C17.5586 5.36719 16.8613 6.1875 15.7949 6.44727V6.51562C17.1484 6.70703 17.9277 7.60938 17.9277 8.86719C17.9277 10.5215 16.4102 11.7246 14.3594 11.7246Z" fill="#0059FF"/>
<path d="M0.0722656 11.5879V0.275391H1.79102V5.18164H7.41602V0.275391H9.13477V11.5879H7.41602V6.65039H1.79102V11.5879H0.0722656Z" fill="#0059FF"/>
</svg>
