<svg width="24" height="24" viewBox="0 0 24 24" fill="none" xmlns="http://www.w3.org/2000/svg">
<path d="M3.15625 18V6.6875H4.875V11.5938H10.5V6.6875H12.2188V18H10.5V13.0625H4.875V18H3.15625ZM17.4437 18.1367C15.3929 18.1367 13.93 17.0293 13.8753 15.416H15.4066C15.4613 16.291 16.3226 16.8379 17.43 16.8379C18.6195 16.8379 19.4945 16.1816 19.4945 15.2246C19.4945 14.2539 18.6741 13.543 17.2659 13.543H16.4183V12.3125H17.2659C18.387 12.3125 19.18 11.6836 19.18 10.7402C19.18 9.83789 18.5101 9.22266 17.4573 9.22266C16.4593 9.22266 15.5843 9.76953 15.5433 10.6719H14.0941C14.1351 9.05859 15.6253 7.96484 17.471 7.96484C19.4124 7.96484 20.6429 9.19531 20.6292 10.6582C20.6429 11.7793 19.9456 12.5996 18.8792 12.8594V12.9277C20.2327 13.1191 21.012 14.0215 21.012 15.2793C21.012 16.9336 19.4945 18.1367 17.4437 18.1367Z" fill="#808080"/>
</svg>
