<svg width="39" height="29" viewBox="0 0 39 29" fill="none" xmlns="http://www.w3.org/2000/svg">
<path d="M13.2048 18.1483C13.2048 21.6191 10.3911 24.4328 6.92026 24.4328C3.44942 24.4328 0.635742 21.6191 0.635742 18.1483C0.635742 14.6774 3.44942 11.8638 6.92026 11.8638C10.3911 11.8638 13.2048 14.6774 13.2048 18.1483Z" fill="#FF9C27"/>
<path d="M38.8649 18.1483C38.8649 21.6191 36.0513 24.4328 32.5804 24.4328C29.1096 24.4328 26.2959 21.6191 26.2959 18.1483C26.2959 14.6774 29.1096 11.8638 32.5804 11.8638C36.0513 11.8638 38.8649 14.6774 38.8649 18.1483Z" fill="#FF9C27"/>
<path d="M35.5687 14.5032C35.5687 22.5115 28.4865 29.0035 19.7501 29.0035C11.0138 29.0035 3.93164 22.5115 3.93164 14.5032C3.93164 6.49493 11.0138 0.00292965 19.7501 0.00292961C28.4865 0.00292956 35.5687 6.49493 35.5687 14.5032Z" fill="#FFBA68"/>
<mask id="mask0_630_33925" style="mask-type:alpha" maskUnits="userSpaceOnUse" x="3" y="0" width="33" height="30">
<path d="M35.5687 14.5003C35.5687 22.5086 28.4865 29.0006 19.7501 29.0006C11.0138 29.0006 3.93164 22.5086 3.93164 14.5003C3.93164 6.492 11.0138 -3.53478e-08 19.7501 -7.89515e-08C28.4865 -1.22555e-07 35.5687 6.492 35.5687 14.5003Z" fill="#FFAB49"/>
</mask>
<g mask="url(#mask0_630_33925)">
<path d="M14.2887 21.9498C14.2887 25.336 11.5244 28.0811 8.11454 28.0811C4.70468 28.0811 1.94043 25.336 1.94043 21.9498C1.94043 18.5637 4.70468 15.8186 8.11454 15.8186C11.5244 15.8186 14.2887 18.5637 14.2887 21.9498Z" fill="#FF9A24"/>
<path d="M37.3043 21.9498C37.3043 25.336 34.54 28.0811 31.1302 28.0811C27.7203 28.0811 24.9561 25.336 24.9561 21.9498C24.9561 18.5637 27.7203 15.8186 31.1302 15.8186C34.54 15.8186 37.3043 18.5637 37.3043 21.9498Z" fill="#FF9A24"/>
</g>
<path d="M20.409 19.1139C20.409 19.478 20.1139 19.773 19.7499 19.773C19.3859 19.773 19.0908 19.478 19.0908 19.1139C19.0908 18.7499 19.3859 18.4548 19.7499 18.4548C20.1139 18.4548 20.409 18.7499 20.409 19.1139Z" fill="#1A1A1A"/>
<path d="M16.4548 16.5413C16.4548 17.2341 15.8646 17.7958 15.1366 17.7958C14.4085 17.7958 13.8184 17.2341 13.8184 16.5413C13.8184 15.8484 14.4085 15.2868 15.1366 15.2868C15.8646 15.2868 16.4548 15.8484 16.4548 16.5413Z" fill="#1A1A1A"/>
<path fill-rule="evenodd" clip-rule="evenodd" d="M15.8107 14.7483C15.9397 14.9773 15.8494 15.2625 15.6088 15.3853C15.478 15.4521 15.2799 15.5887 15.1389 15.7593C14.9988 15.9288 14.9603 16.0719 14.9916 16.1965C15.0551 16.4492 14.8913 16.703 14.6257 16.7634C14.3602 16.8238 14.0935 16.6679 14.03 16.4153C13.9021 15.9062 14.1185 15.4721 14.3618 15.1777C14.6041 14.8845 14.9177 14.6704 15.1414 14.5562C15.3819 14.4334 15.6816 14.5194 15.8107 14.7483Z" fill="#1A1A1A"/>
<path d="M25.6823 16.541C25.6823 17.2339 25.0921 17.7955 24.3641 17.7955C23.6361 17.7955 23.0459 17.2339 23.0459 16.541C23.0459 15.8482 23.6361 15.2865 24.3641 15.2865C25.0921 15.2865 25.6823 15.8482 25.6823 16.541Z" fill="#1A1A1A"/>
<path fill-rule="evenodd" clip-rule="evenodd" d="M25.0382 14.7481C25.1673 14.977 25.0769 15.2622 24.8363 15.3851C24.7056 15.4518 24.5074 15.5885 24.3664 15.7591C24.2264 15.9286 24.1878 16.0716 24.2191 16.1962C24.2826 16.4489 24.1188 16.7028 23.8533 16.7632C23.5878 16.8236 23.321 16.6677 23.2576 16.415C23.1297 15.9059 23.346 15.4719 23.5893 15.1775C23.8317 14.8842 24.1452 14.6702 24.3689 14.556C24.6095 14.4332 24.9091 14.5192 25.0382 14.7481Z" fill="#1A1A1A"/>
<path fill-rule="evenodd" clip-rule="evenodd" d="M19.7495 22.4097L16.1215 21.2795C15.8679 21.2004 15.7337 20.9522 15.822 20.725C15.9102 20.4977 16.1874 20.3776 16.4411 20.4566L19.7495 21.4873L23.0579 20.4566C23.3116 20.3776 23.5887 20.4977 23.677 20.725C23.7652 20.9522 23.6311 21.2004 23.3774 21.2795L19.7495 22.4097Z" fill="#A75A00"/>
<path fill-rule="evenodd" clip-rule="evenodd" d="M15.1398 13.1748C15.6157 13.2245 16.0477 13.082 16.2837 12.9457C16.5043 12.8183 16.7865 12.8939 16.9139 13.1146C17.0413 13.3352 16.9658 13.6174 16.7451 13.7448C16.3659 13.9638 15.7408 14.1653 15.044 14.0926C14.3264 14.0177 13.5628 13.654 12.9474 12.791C12.7995 12.5836 12.8477 12.2955 13.0552 12.1475C13.2626 11.9996 13.5507 12.0478 13.6987 12.2553C14.1602 12.9024 14.6848 13.1273 15.1398 13.1748Z" fill="#905A09"/>
<path fill-rule="evenodd" clip-rule="evenodd" d="M24.4803 13.1748C24.0044 13.2245 23.5724 13.082 23.3365 12.9457C23.1158 12.8183 22.8336 12.8939 22.7062 13.1146C22.5788 13.3352 22.6544 13.6174 22.875 13.7448C23.2542 13.9638 23.8793 14.1653 24.5761 14.0926C25.2937 14.0177 26.0573 13.654 26.6727 12.791C26.8207 12.5836 26.7724 12.2955 26.565 12.1475C26.3575 11.9996 26.0694 12.0478 25.9214 12.2553C25.4599 12.9024 24.9353 13.1273 24.4803 13.1748Z" fill="#905A09"/>
</svg>
