<svg width="39" height="29" viewBox="0 0 39 29" fill="none" xmlns="http://www.w3.org/2000/svg">
<path d="M13.2048 18.1483C13.2048 21.6191 10.3911 24.4328 6.92026 24.4328C3.44942 24.4328 0.635742 21.6191 0.635742 18.1483C0.635742 14.6774 3.44942 11.8638 6.92026 11.8638C10.3911 11.8638 13.2048 14.6774 13.2048 18.1483Z" fill="#FF9C27"/>
<path d="M38.8649 18.1483C38.8649 21.6191 36.0513 24.4328 32.5804 24.4328C29.1096 24.4328 26.2959 21.6191 26.2959 18.1483C26.2959 14.6774 29.1096 11.8638 32.5804 11.8638C36.0513 11.8638 38.8649 14.6774 38.8649 18.1483Z" fill="#FF9C27"/>
<path d="M35.5687 14.5032C35.5687 22.5115 28.4865 29.0035 19.7501 29.0035C11.0138 29.0035 3.93164 22.5115 3.93164 14.5032C3.93164 6.49493 11.0138 0.00292965 19.7501 0.00292961C28.4865 0.00292956 35.5687 6.49493 35.5687 14.5032Z" fill="#FFBA68"/>
<mask id="mask0_630_34779" style="mask-type:alpha" maskUnits="userSpaceOnUse" x="3" y="0" width="33" height="30">
<path d="M35.5687 14.5003C35.5687 22.5086 28.4865 29.0006 19.7501 29.0006C11.0138 29.0006 3.93164 22.5086 3.93164 14.5003C3.93164 6.492 11.0138 -3.53478e-08 19.7501 -7.89515e-08C28.4865 -1.22555e-07 35.5687 6.492 35.5687 14.5003Z" fill="#FFAB49"/>
</mask>
<g mask="url(#mask0_630_34779)">
<path d="M14.2887 21.9496C14.2887 25.3358 11.5244 28.0808 8.11454 28.0808C4.70468 28.0808 1.94043 25.3358 1.94043 21.9496C1.94043 18.5634 4.70468 15.8184 8.11454 15.8184C11.5244 15.8184 14.2887 18.5634 14.2887 21.9496Z" fill="#FF9A24"/>
<path d="M37.3043 21.9496C37.3043 25.3358 34.54 28.0808 31.1302 28.0808C27.7203 28.0808 24.9561 25.3358 24.9561 21.9496C24.9561 18.5634 27.7203 15.8184 31.1302 15.8184C34.54 15.8184 37.3043 18.5634 37.3043 21.9496Z" fill="#FF9A24"/>
</g>
<path d="M20.409 19.1142C20.409 19.4782 20.1139 19.7733 19.7499 19.7733C19.3859 19.7733 19.0908 19.4782 19.0908 19.1142C19.0908 18.7502 19.3859 18.4551 19.7499 18.4551C20.1139 18.4551 20.409 18.7502 20.409 19.1142Z" fill="#1A1A1A"/>
<path d="M16.4548 16.5415C16.4548 17.2344 15.8646 17.796 15.1366 17.796C14.4085 17.796 13.8184 17.2344 13.8184 16.5415C13.8184 15.8487 14.4085 15.287 15.1366 15.287C15.8646 15.287 16.4548 15.8487 16.4548 16.5415Z" fill="#1A1A1A"/>
<path fill-rule="evenodd" clip-rule="evenodd" d="M15.8107 14.7486C15.9397 14.9775 15.8494 15.2627 15.6088 15.3855C15.478 15.4523 15.2799 15.589 15.1389 15.7596C14.9988 15.9291 14.9603 16.0721 14.9916 16.1967C15.0551 16.4494 14.8913 16.7032 14.6257 16.7637C14.3602 16.8241 14.0935 16.6682 14.03 16.4155C13.9021 15.9064 14.1185 15.4724 14.3618 15.178C14.6041 14.8847 14.9177 14.6707 15.1414 14.5565C15.3819 14.4336 15.6816 14.5197 15.8107 14.7486Z" fill="#1A1A1A"/>
<path d="M25.6823 16.5415C25.6823 17.2344 25.0921 17.796 24.3641 17.796C23.6361 17.796 23.0459 17.2344 23.0459 16.5415C23.0459 15.8487 23.6361 15.287 24.3641 15.287C25.0921 15.287 25.6823 15.8487 25.6823 16.5415Z" fill="#1A1A1A"/>
<path fill-rule="evenodd" clip-rule="evenodd" d="M25.0382 14.7486C25.1673 14.9775 25.0769 15.2627 24.8363 15.3855C24.7056 15.4523 24.5074 15.589 24.3664 15.7596C24.2264 15.9291 24.1878 16.0721 24.2191 16.1967C24.2826 16.4494 24.1188 16.7032 23.8533 16.7637C23.5878 16.8241 23.321 16.6682 23.2576 16.4155C23.1297 15.9064 23.346 15.4724 23.5893 15.178C23.8317 14.8847 24.1452 14.6707 24.3689 14.5565C24.6095 14.4336 24.9091 14.5197 25.0382 14.7486Z" fill="#1A1A1A"/>
<path fill-rule="evenodd" clip-rule="evenodd" d="M19.7495 22.4097L16.1215 21.2795C15.8679 21.2004 15.7337 20.9522 15.822 20.725C15.9102 20.4977 16.1874 20.3776 16.4411 20.4566L19.7495 21.4873L23.0579 20.4566C23.3116 20.3776 23.5887 20.4977 23.677 20.725C23.7652 20.9522 23.6311 21.2004 23.3774 21.2795L19.7495 22.4097Z" fill="#A75A00"/>
<path fill-rule="evenodd" clip-rule="evenodd" d="M15.1398 13.1748C15.6157 13.2245 16.0477 13.082 16.2837 12.9457C16.5043 12.8183 16.7865 12.8939 16.9139 13.1146C17.0413 13.3352 16.9658 13.6174 16.7451 13.7448C16.3659 13.9638 15.7408 14.1653 15.044 14.0926C14.3264 14.0177 13.5628 13.654 12.9474 12.791C12.7995 12.5836 12.8477 12.2955 13.0552 12.1475C13.2626 11.9996 13.5507 12.0478 13.6987 12.2553C14.1602 12.9024 14.6848 13.1273 15.1398 13.1748Z" fill="#905A09"/>
<path fill-rule="evenodd" clip-rule="evenodd" d="M24.4803 13.1748C24.0044 13.2245 23.5724 13.082 23.3365 12.9457C23.1158 12.8183 22.8336 12.8939 22.7062 13.1146C22.5788 13.3352 22.6544 13.6174 22.875 13.7448C23.2542 13.9638 23.8793 14.1653 24.5761 14.0926C25.2937 14.0177 26.0573 13.654 26.6727 12.791C26.8207 12.5836 26.7724 12.2955 26.565 12.1475C26.3575 11.9996 26.0694 12.0478 25.9214 12.2553C25.4599 12.9024 24.9353 13.1273 24.4803 13.1748Z" fill="#905A09"/>
</svg>
