<svg width="18" height="14" viewBox="0 0 18 14" fill="none" xmlns="http://www.w3.org/2000/svg">
<path d="M6.0893 8.6218C6.0893 10.1652 4.83809 11.4164 3.29465 11.4164C1.75121 11.4164 0.5 10.1652 0.5 8.6218C0.5 7.07836 1.75121 5.82715 3.29465 5.82715C4.83809 5.82715 6.0893 7.07836 6.0893 8.6218Z" fill="#FF9C27"/>
<path d="M17.5004 8.6218C17.5004 10.1652 16.2492 11.4164 14.7058 11.4164C13.1623 11.4164 11.9111 10.1652 11.9111 8.6218C11.9111 7.07836 13.1623 5.82715 14.7058 5.82715C16.2492 5.82715 17.5004 7.07836 17.5004 8.6218Z" fill="#FF9C27"/>
<path d="M16.0344 7.00035C16.0344 10.5615 12.8851 13.4485 9.00012 13.4485C5.11518 13.4485 1.96582 10.5615 1.96582 7.00035C1.96582 3.43916 5.11518 0.552246 9.00012 0.552246C12.8851 0.552246 16.0344 3.43916 16.0344 7.00035Z" fill="#FFBA68"/>
<mask id="mask0_630_9457" style="mask-type:alpha" maskUnits="userSpaceOnUse" x="1" y="0" width="16" height="14">
<path d="M16.0344 6.99938C16.0344 10.5606 12.8851 13.4475 9.00012 13.4475C5.11518 13.4475 1.96582 10.5606 1.96582 6.99938C1.96582 3.43819 5.11518 0.55127 9.00012 0.551269C12.8851 0.551269 16.0344 3.43819 16.0344 6.99938Z" fill="#FFAB49"/>
</mask>
<g mask="url(#mask0_630_9457)">
<path d="M6.57119 10.3119C6.57119 11.8177 5.34196 13.0384 3.82563 13.0384C2.3093 13.0384 1.08008 11.8177 1.08008 10.3119C1.08008 8.80614 2.3093 7.58545 3.82563 7.58545C5.34196 7.58545 6.57119 8.80614 6.57119 10.3119Z" fill="#FF9A24"/>
<path d="M16.8065 10.3119C16.8065 11.8177 15.5773 13.0384 14.061 13.0384C12.5447 13.0384 11.3154 11.8177 11.3154 10.3119C11.3154 8.80614 12.5447 7.58545 14.061 7.58545C15.5773 7.58545 16.8065 8.80614 16.8065 10.3119Z" fill="#FF9A24"/>
</g>
<path d="M9.29322 9.05091C9.29322 9.21278 9.162 9.344 9.00013 9.344C8.83825 9.344 8.70703 9.21278 8.70703 9.05091C8.70703 8.88904 8.83825 8.75781 9.00013 8.75781C9.162 8.75781 9.29322 8.88904 9.29322 9.05091Z" fill="black"/>
<path d="M8.37787 11.1739C8.32164 11.0614 8.27381 10.9353 8.23519 10.7994C8.10244 10.3323 8.514 9.93039 8.99962 9.93039C9.48524 9.93039 9.8968 10.3323 9.76405 10.7994C9.72543 10.9353 9.6776 11.0614 9.62137 11.1739C9.45647 11.5037 9.23282 11.689 8.99962 11.689C8.76642 11.689 8.54277 11.5037 8.37787 11.1739Z" fill="#E16037"/>
<path d="M7.6132 11.0611L8.0061 10.2955C8.05526 10.1997 8.18642 10.1997 8.23558 10.2955L8.62849 11.061C8.67844 11.1514 8.70703 11.2563 8.70703 11.3683C8.70703 11.7073 8.44458 11.9822 8.12084 11.9822C7.7971 11.9822 7.53465 11.7073 7.53465 11.3683C7.53465 11.2563 7.56324 11.1514 7.6132 11.0611Z" fill="white"/>
<path fill-rule="evenodd" clip-rule="evenodd" d="M6.68549 9.73527C6.74466 9.63864 6.87096 9.60826 6.9676 9.66743L7.37774 9.91853C7.65459 10.088 8.00057 10.098 8.28671 9.9447C8.6774 9.73541 9.14688 9.73541 9.53757 9.9447C9.82372 10.098 10.1697 10.088 10.4465 9.91853L10.8567 9.66743C10.9533 9.60826 11.0796 9.63864 11.1388 9.73527C11.198 9.83191 11.1676 9.95821 11.0709 10.0174L10.6608 10.2685C10.2597 10.5141 9.75839 10.5285 9.3438 10.3064C9.07416 10.162 8.75012 10.162 8.48048 10.3064C8.06589 10.5285 7.56461 10.5141 7.16348 10.2685L6.75334 10.0174C6.6567 9.95821 6.62633 9.83191 6.68549 9.73527Z" fill="#A75A00"/>
<path d="M6.13194 8.74006C5.90605 8.64199 5.69818 8.49157 5.52238 8.3025C5.30194 8.0654 5.42374 7.70441 5.7129 7.55882L7.28361 6.76795C7.57277 6.62235 7.9353 6.73947 7.9945 7.05776C8.04171 7.31157 8.03876 7.56815 7.98303 7.80802C7.88588 8.22618 7.63627 8.55929 7.28912 8.73409C6.94198 8.90888 6.52572 8.91103 6.13194 8.74006Z" fill="white"/>
<path fill-rule="evenodd" clip-rule="evenodd" d="M6.42457 8.01264C6.45922 8.08467 6.5647 8.10584 6.66016 8.05992L7.3516 7.72733C7.44707 7.68141 7.49637 7.58579 7.46172 7.51375C7.42707 7.44172 7.32159 7.42055 7.22613 7.46647L6.53469 7.79906C6.43922 7.84498 6.38992 7.9406 6.42457 8.01264Z" fill="black"/>
<path d="M11.7743 8.74006C12.0002 8.64199 12.2081 8.49157 12.3839 8.3025C12.6043 8.0654 12.4825 7.70441 12.1933 7.55882L10.6226 6.76795C10.3335 6.62235 9.97095 6.73947 9.91175 7.05776C9.86454 7.31157 9.86749 7.56815 9.92322 7.80802C10.0204 8.22618 10.27 8.55929 10.6171 8.73409C10.9643 8.90888 11.3805 8.91103 11.7743 8.74006Z" fill="white"/>
<path fill-rule="evenodd" clip-rule="evenodd" d="M11.4817 8.01264C11.447 8.08467 11.3416 8.10584 11.2461 8.05992L10.5546 7.72733C10.4592 7.68141 10.4099 7.58579 10.4445 7.51375C10.4792 7.44172 10.5847 7.42055 10.6801 7.46647L11.3716 7.79906C11.467 7.84498 11.5163 7.9406 11.4817 8.01264Z" fill="black"/>
<ellipse cx="6.94765" cy="5.82691" rx="0.879287" ry="0.586192" fill="#905A09"/>
<ellipse cx="11.0512" cy="5.82691" rx="0.879287" ry="0.586192" fill="#905A09"/>
</svg>
