<svg width="19" height="18" viewBox="0 0 19 18" fill="none" xmlns="http://www.w3.org/2000/svg">
<path d="M10 17C10 16.4477 10.4478 16 11 16H17V2H11C10.4478 2 10 1.55228 10 1C10 0.447715 10.4478 0 11 0H17C18.1046 0 19 0.895432 19 2V16C19 17.1046 18.1046 18 17 18H11C10.4478 18 10 17.5523 10 17Z" fill="#1A1A1A"/>
<path d="M7.00002 5.4142L9.58578 7.99997H0.999999C0.447714 7.99997 -2.41411e-08 8.44768 0 8.99997C2.41411e-08 9.55225 0.447715 9.99997 1 9.99997H9.58578L6.99998 12.5858C6.60945 12.9763 6.60945 13.6095 6.99998 14C7.3905 14.3905 8.02367 14.3905 8.41419 14L12.7071 9.70707C12.8946 9.51954 13 9.26518 13 8.99997C13 8.73475 12.8946 8.4804 12.7071 8.29286L8.41423 3.99998C8.0237 3.60946 7.39054 3.60946 7.00002 3.99998C6.60949 4.39051 6.60949 5.02367 7.00002 5.4142Z" fill="#1A1A1A"/>
</svg>
