<svg width="18" height="18" viewBox="0 0 18 18" fill="none" xmlns="http://www.w3.org/2000/svg">
<path d="M9 1C9 1.55228 8.55228 2 8 2H2L2 16H8C8.55228 16 9 16.4477 9 17C9 17.5523 8.55228 18 8 18H2C0.89543 18 0 17.1046 0 16V2C0 0.89543 0.895432 0 2 0H8C8.55228 0 9 0.447715 9 1Z" fill="#1A1A1A"/>
<path d="M12.0001 12.5858L14.5858 10.0001H6.00005C5.44776 10.0001 5.00005 9.55238 5.00005 9.00009C5.00005 8.44781 5.44777 8.00009 6.00005 8.00009L14.5858 8.00009L12 5.41428C11.6095 5.02375 11.6095 4.39059 12 4.00006C12.3905 3.60954 13.0237 3.60954 13.4142 4.00006L17.7072 8.29298C17.8947 8.48052 18 8.73488 18 9.00009C18 9.26531 17.8947 9.51966 17.7072 9.7072L13.4143 14.0001C13.0238 14.3906 12.3906 14.3906 12.0001 14.0001C11.6096 13.6095 11.6096 12.9764 12.0001 12.5858Z" fill="#1A1A1A"/>
</svg>
