<svg width="40" height="40" viewBox="0 0 40 40" fill="none" xmlns="http://www.w3.org/2000/svg">
<rect width="40" height="40" rx="20" fill="#F3F3F3"/>
<path d="M9.40039 29.6003C9.40033 30.1526 9.84799 30.6003 10.4003 30.6004C10.9526 30.6005 11.4003 30.1528 11.4004 29.6005L9.40039 29.6003ZM10.4008 26L11.4008 26.0001L10.4008 26ZM20.6004 23.4004C21.1527 23.4004 21.6004 22.9527 21.6004 22.4004C21.6004 21.8481 21.1527 21.4004 20.6004 21.4004V23.4004ZM29.6004 24.6004C30.1527 24.6004 30.6004 24.1527 30.6004 23.6004C30.6004 23.0481 30.1527 22.6004 29.6004 22.6004V24.6004ZM24.2004 22.6004C23.6481 22.6004 23.2004 23.0481 23.2004 23.6004C23.2004 24.1527 23.6481 24.6004 24.2004 24.6004V22.6004ZM25.9004 26.3003C25.9004 26.8525 26.3481 27.3003 26.9004 27.3003C27.4527 27.3003 27.9004 26.8525 27.9004 26.3003H25.9004ZM27.9004 20.9003C27.9004 20.348 27.4527 19.9003 26.9004 19.9003C26.3481 19.9003 25.9004 20.348 25.9004 20.9003H27.9004ZM21.4004 14.0004C21.4004 15.4363 20.2363 16.6004 18.8004 16.6004V18.6004C21.3409 18.6004 23.4004 16.5409 23.4004 14.0004H21.4004ZM18.8004 16.6004C17.3644 16.6004 16.2004 15.4363 16.2004 14.0004H14.2004C14.2004 16.5409 16.2599 18.6004 18.8004 18.6004V16.6004ZM16.2004 14.0004C16.2004 12.5644 17.3644 11.4004 18.8004 11.4004V9.40039C16.2599 9.40039 14.2004 11.4599 14.2004 14.0004H16.2004ZM18.8004 11.4004C20.2363 11.4004 21.4004 12.5645 21.4004 14.0004H23.4004C23.4004 11.4599 21.3409 9.40039 18.8004 9.40039V11.4004ZM11.4004 29.6005L11.4008 26.0001L9.4008 25.9999L9.40039 29.6003L11.4004 29.6005ZM14.0008 21.4004C11.4605 21.4004 9.40108 23.4596 9.4008 25.9999L11.4008 26.0001C11.401 24.5643 12.565 23.4004 14.0008 23.4004V21.4004ZM14.0008 23.4004H20.6004V21.4004H14.0008V23.4004ZM29.6004 22.6004H26.9004V24.6004H29.6004V22.6004ZM26.9004 22.6004H24.2004V24.6004H26.9004V22.6004ZM27.9004 26.3003V23.6004H25.9004V26.3003H27.9004ZM27.9004 23.6004V20.9003H25.9004V23.6004H27.9004Z" fill="#999999"/>
</svg>
