<svg width="40" height="40" viewBox="0 0 40 40" fill="none" xmlns="http://www.w3.org/2000/svg">
<rect x="40" y="40" width="40" height="40" rx="20" transform="rotate(-180 40 40)" fill="#F3F3F3"/>
<path d="M17.5179 27.7925C17.2182 28.0785 16.7435 28.0675 16.4575 27.7679C16.1715 27.4682 16.1825 26.9935 16.4821 26.7075L24.1638 19.375L16.4821 12.0425C16.1825 11.7565 16.1715 11.2818 16.4575 10.9821C16.7435 10.6825 17.2182 10.6715 17.5179 10.9575L25.764 18.8288C25.7695 18.834 25.7749 18.8393 25.7803 18.8447C25.842 18.9063 25.8908 18.9762 25.9266 19.0509C26.0248 19.2557 26.0242 19.4952 25.9266 19.6991C25.8908 19.7738 25.842 19.8437 25.7803 19.9053C25.7749 19.9107 25.7695 19.916 25.764 19.9212L17.5179 27.7925Z" fill="#999999" stroke="#999999" stroke-width="0.5" stroke-linecap="round"/>
</svg>
