<svg width="40" height="40" viewBox="0 0 40 40" fill="none" xmlns="http://www.w3.org/2000/svg">
<rect width="40" height="40" rx="20" fill="#F3F3F3"/>
<path fill-rule="evenodd" clip-rule="evenodd" d="M11.8077 14.2056C12.7079 13.3058 13.9285 12.8002 15.2013 12.8002C16.4741 12.8002 17.6948 13.3058 18.5949 14.2056L20.0013 15.6108L21.4077 14.2056C21.8505 13.7472 22.3802 13.3815 22.9658 13.1299C23.5514 12.8784 24.1813 12.746 24.8186 12.7404C25.4559 12.7349 26.088 12.8563 26.6779 13.0977C27.2678 13.339 27.8037 13.6954 28.2544 14.1461C28.7051 14.5968 29.0615 15.1327 29.3029 15.7226C29.5442 16.3125 29.6657 16.9446 29.6601 17.5819C29.6546 18.2193 29.5222 18.8491 29.2706 19.4348C29.019 20.0204 28.6534 20.55 28.1949 20.9928L20.0013 29.1876L11.8077 20.9928C10.9079 20.0927 10.4023 18.872 10.4023 17.5992C10.4023 16.3264 10.9079 15.1058 11.8077 14.2056V14.2056Z" stroke="#999999" stroke-width="2" stroke-linejoin="round"/>
</svg>
