<svg width="32" height="32" viewBox="0 0 32 32" fill="none" xmlns="http://www.w3.org/2000/svg">
<path fill-rule="evenodd" clip-rule="evenodd" d="M5.075 8.27611C6.27518 7.0763 7.90275 6.40228 9.5998 6.40228C11.2969 6.40228 12.9244 7.0763 14.1246 8.27611L15.9998 10.1497L17.875 8.27611C18.4654 7.66484 19.1716 7.17728 19.9524 6.84186C20.7332 6.50644 21.573 6.32989 22.4228 6.32251C23.2726 6.31512 24.1154 6.47705 24.9019 6.79885C25.6884 7.12065 26.403 7.59587 27.0039 8.19678C27.6048 8.7977 28.0801 9.51227 28.4019 10.2988C28.7237 11.0853 28.8856 11.9281 28.8782 12.7779C28.8708 13.6277 28.6943 14.4675 28.3588 15.2483C28.0234 16.0291 27.5359 16.7353 26.9246 17.3257L15.9998 28.2521L5.075 17.3257C3.87519 16.1255 3.20117 14.498 3.20117 12.8009C3.20117 11.1039 3.87519 9.47629 5.075 8.27611V8.27611Z" stroke="white" stroke-width="2" stroke-linejoin="round"/>
</svg>
