<svg width="40" height="40" viewBox="0 0 40 40" fill="none" xmlns="http://www.w3.org/2000/svg">
<rect width="40" height="40" rx="20" fill="#F3F3F3"/>
<path d="M22.4821 11.2075C22.7818 10.9215 23.2565 10.9325 23.5425 11.2321C23.8285 11.5318 23.8175 12.0065 23.5179 12.2925L15.8362 19.625L23.5179 26.9575C23.8175 27.2435 23.8285 27.7182 23.5425 28.0179C23.2565 28.3175 22.7818 28.3285 22.4821 28.0425L14.236 20.1712C14.2305 20.166 14.2251 20.1607 14.2197 20.1553C14.158 20.0937 14.1092 20.0238 14.0734 19.9491C13.9753 19.7443 13.9758 19.5048 14.0734 19.3009C14.1092 19.2262 14.158 19.1563 14.2197 19.0947C14.2251 19.0893 14.2305 19.084 14.236 19.0788L22.4821 11.2075Z" fill="#999999" stroke="#999999" stroke-width="0.5" stroke-linecap="round"/>
</svg>
