<svg width="50" height="50" viewBox="0 0 50 50" fill="none" xmlns="http://www.w3.org/2000/svg">
<circle cx="25" cy="25" r="25" fill="#F5F8FF"/>
<path d="M9.5636 39.5355C12.3703 37.8762 12.877 32.76 12.7796 30.4093L11.9028 28.75L20.966 33.1057C21.4531 34.4193 21.6673 37.5443 18.6268 39.5355C14.8261 42.0244 6.05527 41.6096 9.5636 39.5355Z" fill="black"/>
<path d="M40.4403 39.5355C37.6336 37.8762 37.1269 32.76 37.2243 30.4093L38.1011 28.75L29.0379 33.1057C28.5508 34.4193 28.3366 37.5443 31.3771 39.5355C35.1778 42.0244 43.9486 41.6096 40.4403 39.5355Z" fill="black"/>
<path d="M18.7958 30.9575C18.7958 34.2488 16.1277 36.9169 12.8364 36.9169C9.54507 36.9169 6.87695 34.2488 6.87695 30.9575C6.87695 27.6662 9.54507 24.998 12.8364 24.998C16.1277 24.998 18.7958 27.6662 18.7958 30.9575Z" fill="#FF9C27"/>
<path d="M43.1278 30.9575C43.1278 34.2488 40.4597 36.9169 37.1684 36.9169C33.8771 36.9169 31.209 34.2488 31.209 30.9575C31.209 27.6662 33.8771 24.998 37.1684 24.998C40.4597 24.998 43.1278 27.6662 43.1278 30.9575Z" fill="#FF9C27"/>
<path d="M40.0024 27.5002C40.0024 35.0942 33.2865 41.2504 25.0022 41.2504C16.7178 41.2504 10.002 35.0942 10.002 27.5002C10.002 19.9062 16.7178 13.75 25.0022 13.75C33.2865 13.75 40.0024 19.9062 40.0024 27.5002Z" fill="#FFBA68"/>
<mask id="mask0_1043_67522" style="mask-type:alpha" maskUnits="userSpaceOnUse" x="10" y="13" width="31" height="29">
<path d="M40.0043 27.4982C40.0043 35.0923 33.2885 41.2484 25.0041 41.2484C16.7197 41.2484 10.0039 35.0923 10.0039 27.4982C10.0039 19.9042 16.7197 13.748 25.0041 13.748C33.2885 13.748 40.0043 19.9042 40.0043 27.4982Z" fill="#FFAB49"/>
</mask>
<g mask="url(#mask0_1043_67522)">
<path d="M19.8247 34.5641C19.8247 37.7751 17.2034 40.3781 13.97 40.3781C10.7365 40.3781 8.11523 37.7751 8.11523 34.5641C8.11523 31.353 10.7365 28.75 13.97 28.75C17.2034 28.75 19.8247 31.353 19.8247 34.5641Z" fill="#FF9A24"/>
<path d="M41.6509 34.5641C41.6509 37.7751 39.0296 40.3781 35.7961 40.3781C32.5627 40.3781 29.9414 37.7751 29.9414 34.5641C29.9414 31.353 32.5627 28.75 35.7961 28.75C39.0296 28.75 41.6509 31.353 41.6509 34.5641Z" fill="#FF9A24"/>
</g>
<path d="M25.627 31.8731C25.627 32.2182 25.3471 32.4981 25.002 32.4981C24.6568 32.4981 24.377 32.2182 24.377 31.8731C24.377 31.5279 24.6568 31.248 25.002 31.248C25.3471 31.248 25.627 31.5279 25.627 31.8731Z" fill="black"/>
<circle cx="20.627" cy="29.3731" r="1.87503" fill="black"/>
<circle cx="20.1935" cy="28.9396" r="0.865397" fill="white"/>
<circle cx="21.2042" cy="30.2393" r="0.432698" fill="white"/>
<circle cx="29.377" cy="29.3731" r="1.87503" fill="black"/>
<circle cx="28.9435" cy="28.9396" r="0.865397" fill="white"/>
<circle cx="29.9542" cy="30.2393" r="0.432698" fill="white"/>
<path fill-rule="evenodd" clip-rule="evenodd" d="M21.5637 33.9277C23.8041 34.6257 26.2038 34.6257 28.4442 33.9277V33.9277C28.6848 33.8528 28.812 33.6174 28.7283 33.4019C28.6446 33.1864 28.3818 33.0725 28.1412 33.1475V33.1475C26.0981 33.7839 23.9098 33.7839 21.8667 33.1475V33.1475C21.6261 33.0725 21.3633 33.1864 21.2796 33.4019C21.196 33.6174 21.3231 33.8528 21.5637 33.9277V33.9277Z" fill="#A75A00"/>
<path fill-rule="evenodd" clip-rule="evenodd" d="M20.5143 25.6213C20.9095 25.3983 21.1652 25.0508 21.2728 24.816C21.3734 24.5963 21.633 24.4997 21.8527 24.6003C22.0724 24.7009 22.1689 24.9606 22.0683 25.1803C21.8955 25.5577 21.5229 26.0568 20.9444 26.3833C20.3485 26.7196 19.5585 26.8578 18.6088 26.5287C18.3805 26.4496 18.2595 26.2004 18.3386 25.972C18.4178 25.7437 18.667 25.6228 18.8953 25.7019C19.6075 25.9487 20.1365 25.8345 20.5143 25.6213Z" fill="#905A09"/>
<path fill-rule="evenodd" clip-rule="evenodd" d="M29.5247 25.6213C29.1295 25.3983 28.8738 25.0508 28.7663 24.816C28.6657 24.5963 28.4061 24.4997 28.1864 24.6003C27.9667 24.7009 27.8701 24.9606 27.9707 25.1803C28.1436 25.5577 28.5162 26.0568 29.0947 26.3833C29.6906 26.7196 30.4806 26.8578 31.4303 26.5287C31.6586 26.4496 31.7795 26.2004 31.7004 25.972C31.6213 25.7437 31.3721 25.6228 31.1438 25.7019C30.4316 25.9487 29.9025 25.8345 29.5247 25.6213Z" fill="#905A09"/>
<path fill-rule="evenodd" clip-rule="evenodd" d="M40.2688 25.5651C40.9052 24.2246 41.2525 22.7767 41.2525 21.2664C41.2525 14.3538 33.977 8.75 25.0022 8.75C16.0275 8.75 8.75195 14.3538 8.75195 21.2664C8.75195 22.8779 9.14736 24.4183 9.86754 25.8331L9.45789 26.5519C9.17295 27.052 9.66974 27.6296 10.2391 27.4756C23.2233 23.9643 26.7504 20.6 27.5323 18.9506C27.5998 19.1832 27.7021 19.457 27.8501 19.7744C30.8737 26.2592 39.6085 27.8808 40.2805 27.2323C40.4378 27.0804 40.4109 26.4484 40.2688 25.5651Z" fill="black"/>
</svg>
