<svg width="50" height="50" viewBox="0 0 50 50" fill="none" xmlns="http://www.w3.org/2000/svg">
<circle cx="25" cy="25" r="25" fill="#F5F8FF"/>
<path d="M18.8359 30.2949C18.8359 33.5633 16.1863 36.2128 12.9179 36.2128C9.64955 36.2128 7 33.5633 7 30.2949C7 27.0265 9.64955 24.377 12.9179 24.377C16.1863 24.377 18.8359 27.0265 18.8359 30.2949Z" fill="#FF9C27"/>
<path d="M42.9999 30.2949C42.9999 33.5633 40.3504 36.2128 37.082 36.2128C33.8136 36.2128 31.1641 33.5633 31.1641 30.2949C31.1641 27.0265 33.8136 24.377 37.082 24.377C40.3504 24.377 42.9999 27.0265 42.9999 30.2949Z" fill="#FF9C27"/>
<path d="M39.8951 26.8615C39.8951 34.4026 33.226 40.5159 24.9993 40.5159C16.7726 40.5159 10.1035 34.4026 10.1035 26.8615C10.1035 19.3203 16.7726 13.207 24.9993 13.207C33.226 13.207 39.8951 19.3203 39.8951 26.8615Z" fill="#FFBA68"/>
<mask id="mask0_1043_67583" style="mask-type:alpha" maskUnits="userSpaceOnUse" x="10" y="13" width="30" height="28">
<path d="M39.8951 26.8595C39.8951 34.4007 33.226 40.514 24.9993 40.514C16.7726 40.514 10.1035 34.4007 10.1035 26.8595C10.1035 19.3184 16.7726 13.2051 24.9993 13.2051C33.226 13.2051 39.8951 19.3184 39.8951 26.8595Z" fill="#FFAB49"/>
</mask>
<g mask="url(#mask0_1043_67583)">
<path d="M19.8564 33.8752C19.8564 37.0638 17.2534 39.6487 14.0425 39.6487C10.8315 39.6487 8.22852 37.0638 8.22852 33.8752C8.22852 30.6865 10.8315 28.1016 14.0425 28.1016C17.2534 28.1016 19.8564 30.6865 19.8564 33.8752Z" fill="#FF9A24"/>
<path d="M41.5303 33.8752C41.5303 37.0638 38.9273 39.6487 35.7163 39.6487C32.5053 39.6487 29.9023 37.0638 29.9023 33.8752C29.9023 30.6865 32.5053 28.1016 35.7163 28.1016C38.9273 28.1016 41.5303 30.6865 41.5303 33.8752Z" fill="#FF9A24"/>
</g>
<path d="M25.6202 31.2046C25.6202 31.5474 25.3423 31.8253 24.9996 31.8253C24.6568 31.8253 24.3789 31.5474 24.3789 31.2046C24.3789 30.8619 24.6568 30.584 24.9996 30.584C25.3423 30.584 25.6202 30.8619 25.6202 31.2046Z" fill="black"/>
<path d="M21.8967 28.7809C21.8967 29.4333 21.3409 29.9622 20.6554 29.9622C19.9698 29.9622 19.4141 29.4333 19.4141 28.7809C19.4141 28.1285 19.9698 27.5996 20.6554 27.5996C21.3409 27.5996 21.8967 28.1285 21.8967 28.7809Z" fill="black"/>
<path d="M30.5861 28.7809C30.5861 29.4333 30.0304 29.9622 29.3448 29.9622C28.6593 29.9622 28.1035 29.4333 28.1035 28.7809C28.1035 28.1285 28.6593 27.5996 29.3448 27.5996C30.0304 27.5996 30.5861 28.1285 30.5861 28.7809Z" fill="black"/>
<path fill-rule="evenodd" clip-rule="evenodd" d="M21.583 33.2439C23.8078 33.9369 26.1908 33.9369 28.4156 33.2439V33.2439C28.6545 33.1694 28.7808 32.9357 28.6977 32.7217C28.6146 32.5077 28.3536 32.3946 28.1148 32.469V32.469C26.0859 33.1011 23.9128 33.1011 21.8839 32.469V32.469C21.645 32.3946 21.384 32.5077 21.3009 32.7217C21.2178 32.9357 21.3441 33.1694 21.583 33.2439V33.2439Z" fill="#A75A00"/>
<path fill-rule="evenodd" clip-rule="evenodd" d="M20.0854 25.4501C19.6397 25.5167 19.2793 25.7481 19.0961 25.9277C18.9248 26.0958 18.6498 26.0931 18.4817 25.9219C18.3137 25.7506 18.3163 25.4755 18.4876 25.3075C18.7819 25.0187 19.3047 24.6881 19.9571 24.5907C20.6291 24.4904 21.4108 24.6427 22.1748 25.2851C22.3584 25.4395 22.3821 25.7136 22.2277 25.8972C22.0733 26.0809 21.7992 26.1046 21.6156 25.9501C21.0427 25.4684 20.5115 25.3865 20.0854 25.4501Z" fill="#905A09"/>
<path fill-rule="evenodd" clip-rule="evenodd" d="M29.396 25.4501C28.9503 25.5167 28.5898 25.7481 28.4067 25.9277C28.2354 26.0958 27.9603 26.0931 27.7923 25.9219C27.6243 25.7506 27.6269 25.4755 27.7982 25.3075C28.0925 25.0187 28.6152 24.6881 29.2677 24.5907C29.9397 24.4904 30.7214 24.6427 31.4853 25.2851C31.669 25.4395 31.6927 25.7136 31.5382 25.8972C31.3838 26.0809 31.1098 26.1046 30.9261 25.9501C30.3532 25.4684 29.822 25.3865 29.396 25.4501Z" fill="#905A09"/>
<path d="M19.2154 11.8082C6.9864 10.7117 8.0178 21.7413 10.2423 24.9982L18.1211 22.987L19.7576 17.8792C20.8287 24.0745 18.8538 23.5183 40.1287 24.9984C46.2798 8.91401 22.364 5.56554 19.2154 11.8082Z" fill="black"/>
</svg>
