<svg width="50" height="50" viewBox="0 0 50 50" fill="none" xmlns="http://www.w3.org/2000/svg">
<circle cx="25" cy="25" r="25" fill="#F5F8FF"/>
<path d="M18.6524 32.752C18.6524 36.0581 15.9722 38.7383 12.666 38.7383C9.35986 38.7383 6.67969 36.0581 6.67969 32.752C6.67969 29.4458 9.35986 26.7656 12.666 26.7656C15.9722 26.7656 18.6524 29.4458 18.6524 32.752Z" fill="#FF9C27"/>
<path d="M43.0938 32.752C43.0938 36.0581 40.4136 38.7383 37.1074 38.7383C33.8013 38.7383 31.1211 36.0581 31.1211 32.752C31.1211 29.4458 33.8013 26.7656 37.1074 26.7656C40.4136 26.7656 43.0938 29.4458 43.0938 32.752Z" fill="#FF9C27"/>
<path d="M39.9543 29.2811C39.9543 36.9094 33.2081 43.0934 24.8863 43.0934C16.5645 43.0934 9.81836 36.9094 9.81836 29.2811C9.81836 21.6527 16.5645 15.4687 24.8863 15.4687C33.2081 15.4687 39.9543 21.6527 39.9543 29.2811Z" fill="#FFBA68"/>
<mask id="mask0_1043_67552" style="mask-type:alpha" maskUnits="userSpaceOnUse" x="9" y="15" width="31" height="29">
<path d="M39.9523 29.2811C39.9523 36.9094 33.2062 43.0934 24.8844 43.0934C16.5626 43.0934 9.81641 36.9094 9.81641 29.2811C9.81641 21.6527 16.5626 15.4687 24.8844 15.4687C33.2062 15.4687 39.9523 21.6527 39.9523 29.2811Z" fill="#FFAB49"/>
</mask>
<g mask="url(#mask0_1043_67552)">
<path d="M19.862 36.3774C19.862 39.603 17.2289 42.2178 13.9808 42.2178C10.7327 42.2178 8.09961 39.603 8.09961 36.3774C8.09961 33.1519 10.7327 30.5371 13.9808 30.5371C17.2289 30.5371 19.862 33.1519 19.862 36.3774Z" fill="#FF9A24"/>
<path d="M41.6686 36.3774C41.6686 39.603 39.0355 42.2178 35.7874 42.2178C32.5393 42.2178 29.9063 39.603 29.9063 36.3774C29.9063 33.1519 32.5393 30.5371 35.7874 30.5371C39.0355 30.5371 41.6686 33.1519 41.6686 36.3774Z" fill="#FF9A24"/>
</g>
<path d="M25.5135 33.6728C25.5135 34.0195 25.2324 34.3006 24.8856 34.3006C24.5389 34.3006 24.2578 34.0195 24.2578 33.6728C24.2578 33.326 24.5389 33.0449 24.8856 33.0449C25.2324 33.0449 25.5135 33.326 25.5135 33.6728Z" fill="black"/>
<path d="M23.5542 37.1564C23.4556 37.038 23.369 36.9079 23.2955 36.7687C22.9709 36.1546 23.5656 35.5582 24.2603 35.5582L25.5118 35.5582C26.2064 35.5582 26.8012 36.1546 26.4766 36.7687C26.4031 36.9079 26.3165 37.038 26.2179 37.1564C25.8646 37.5802 25.3856 37.8184 24.886 37.8184C24.3865 37.8184 23.9074 37.5802 23.5542 37.1564Z" fill="#E16037"/>
<path fill-rule="evenodd" clip-rule="evenodd" d="M21.4323 35.7378C23.6828 36.4389 26.0934 36.4389 28.3439 35.7378V35.7378C28.5855 35.6626 28.7133 35.4261 28.6292 35.2097C28.5452 34.9932 28.2812 34.8788 28.0395 34.9541V34.9541C25.9872 35.5934 23.789 35.5934 21.7366 34.9541V34.9541C21.495 34.8788 21.231 34.9932 21.1469 35.2097C21.0629 35.4261 21.1906 35.6626 21.4323 35.7378V35.7378Z" fill="#A75A00"/>
<path fill-rule="evenodd" clip-rule="evenodd" d="M21.7819 28.9983C21.9279 29.0918 21.9706 29.2859 21.8771 29.4319L21.3761 30.215C21.2826 30.361 21.0885 30.4036 20.9424 30.3102C20.7964 30.2167 20.7538 30.0226 20.8472 29.8766L21.3483 29.0935C21.4417 28.9475 21.6359 28.9049 21.7819 28.9983Z" fill="black"/>
<path fill-rule="evenodd" clip-rule="evenodd" d="M18.4486 28.9983C18.3025 29.0918 18.2599 29.2859 18.3534 29.4319L18.8544 30.215C18.9479 30.361 19.142 30.4036 19.288 30.3102C19.4341 30.2167 19.4767 30.0226 19.3832 29.8766L18.8822 29.0935C18.7887 28.9475 18.5946 28.9049 18.4486 28.9983Z" fill="black"/>
<path fill-rule="evenodd" clip-rule="evenodd" d="M20.1772 28.6523C20.3506 28.6523 20.4911 28.7929 20.4911 28.9663V29.8452C20.4911 30.0186 20.3506 30.1591 20.1772 30.1591C20.0038 30.1591 19.8633 30.0186 19.8633 29.8452V28.9663C19.8633 28.7929 20.0038 28.6523 20.1772 28.6523Z" fill="black"/>
<path fill-rule="evenodd" clip-rule="evenodd" d="M21.8723 31.1013C20.5243 30.084 19.0546 30.6703 18.4835 31.1013C18.3451 31.2057 18.1483 31.1782 18.0438 31.0398C17.9394 30.9014 17.9669 30.7045 18.1053 30.6001C18.7899 30.0835 20.5849 29.3432 22.2505 30.6001C22.3889 30.7045 22.4164 30.9014 22.312 31.0398C22.2075 31.1782 22.0107 31.2057 21.8723 31.1013Z" fill="black"/>
<path fill-rule="evenodd" clip-rule="evenodd" d="M31.1979 28.9983C31.3439 29.0918 31.3866 29.2859 31.2931 29.4319L30.7921 30.215C30.6986 30.361 30.5045 30.4036 30.3585 30.3102C30.2124 30.2167 30.1698 30.0226 30.2632 29.8766L30.7643 29.0935C30.8577 28.9475 31.0519 28.9049 31.1979 28.9983Z" fill="black"/>
<path fill-rule="evenodd" clip-rule="evenodd" d="M27.8646 28.9983C27.7186 29.0918 27.6759 29.2859 27.7694 29.4319L28.2704 30.215C28.3639 30.361 28.558 30.4036 28.704 30.3102C28.8501 30.2167 28.8927 30.0226 28.7993 29.8766L28.2982 29.0935C28.2048 28.9475 28.0106 28.9049 27.8646 28.9983Z" fill="black"/>
<path fill-rule="evenodd" clip-rule="evenodd" d="M29.5932 28.6523C29.7666 28.6523 29.9071 28.7929 29.9071 28.9663V29.8452C29.9071 30.0186 29.7666 30.1591 29.5932 30.1591C29.4198 30.1591 29.2793 30.0186 29.2793 29.8452V28.9663C29.2793 28.7929 29.4198 28.6523 29.5932 28.6523Z" fill="black"/>
<path fill-rule="evenodd" clip-rule="evenodd" d="M31.2883 31.1013C29.9403 30.084 28.4706 30.6703 27.8995 31.1013C27.7611 31.2057 27.5643 31.1782 27.4598 31.0398C27.3554 30.9014 27.3829 30.7045 27.5213 30.6001C28.2059 30.0835 30.0009 29.3432 31.6665 30.6001C31.8049 30.7045 31.8324 30.9014 31.728 31.0398C31.6236 31.1782 31.4267 31.2057 31.2883 31.1013Z" fill="black"/>
<ellipse cx="20.4929" cy="26.7713" rx="1.8835" ry="1.25566" fill="#905A09"/>
<ellipse cx="29.2819" cy="26.7713" rx="1.8835" ry="1.25566" fill="#905A09"/>
<path fill-rule="evenodd" clip-rule="evenodd" d="M29.796 7.25686C31.6187 5.85419 34.2524 7.15863 34.2524 9.46403C34.2524 11.0602 35.9154 12.1069 37.3467 11.4117L38.0563 11.067C40.3073 9.97369 42.7732 12.1035 42.032 14.501L41.7877 15.2911C41.4609 16.3483 42.248 17.4208 43.3508 17.4208C45.2555 17.4208 46.2999 19.6468 45.0869 21.1208L42.2383 24.5822C42.0261 24.84 41.8741 25.1421 41.7933 25.4665L41.7253 25.7397C41.0352 28.5104 37.1329 28.5676 36.3626 25.8182C36.3304 25.7033 36.2893 25.5924 36.2399 25.4865C27.3964 18.9234 17.9708 22.5538 13.8296 25.5683C13.6326 25.8681 13.4693 26.1936 13.3424 26.5375C12.7158 28.2356 11.6695 29.2559 10.5481 29.2793C9.39969 29.3032 8.44397 28.2885 7.99836 26.5282C7.90361 26.1539 7.80339 25.7942 7.69407 25.4567C7.59159 25.1404 7.42575 24.8424 7.21938 24.5621L4.61498 21.0252C3.51622 19.5329 4.57748 17.4208 6.42603 17.4208C7.5202 17.4208 8.30631 16.364 7.99547 15.311L7.85288 14.8279C7.19002 12.5822 9.55521 10.6485 11.6119 11.7545L11.7892 11.8498C13.1852 12.6005 14.8744 11.5853 14.8744 9.99554V9.65353C14.8744 7.24948 17.6025 5.87134 19.5259 7.30379L22.3679 9.42037C23.7567 10.4547 25.6603 10.4396 27.0327 9.38347L29.796 7.25686Z" fill="#98AF3D"/>
</svg>
