<svg width="50" height="50" viewBox="0 0 50 50" fill="none" xmlns="http://www.w3.org/2000/svg">
<circle cx="25" cy="25" r="25" fill="#F5F8FF"/>
<path d="M18.5997 30.8418C18.5997 34.1534 15.9151 36.8379 12.6035 36.8379C9.29197 36.8379 6.60742 34.1534 6.60742 30.8418C6.60742 27.5303 9.29197 24.8457 12.6035 24.8457C15.9151 24.8457 18.5997 27.5303 18.5997 30.8418Z" fill="#FF9C27"/>
<path d="M43.0821 30.8418C43.0821 34.1534 40.3975 36.8379 37.086 36.8379C33.7744 36.8379 31.0898 34.1534 31.0898 30.8418C31.0898 27.5303 33.7744 24.8457 37.086 24.8457C40.3975 24.8457 43.0821 27.5303 43.0821 30.8418Z" fill="#FF9C27"/>
<path d="M39.9371 27.3642C39.9371 35.0049 33.1799 41.199 24.8445 41.199C16.5091 41.199 9.75195 35.0049 9.75195 27.3642C9.75195 19.7234 16.5091 13.5293 24.8445 13.5293C33.1799 13.5293 39.9371 19.7234 39.9371 27.3642Z" fill="#FFBA68"/>
<mask id="mask0_1043_67497" style="mask-type:alpha" maskUnits="userSpaceOnUse" x="9" y="13" width="31" height="29">
<path d="M39.9371 27.3622C39.9371 35.003 33.1799 41.1971 24.8445 41.1971C16.5091 41.1971 9.75195 35.003 9.75195 27.3622C9.75195 19.7214 16.5091 13.5273 24.8445 13.5273C33.1799 13.5273 39.9371 19.7214 39.9371 27.3622Z" fill="#FFAB49"/>
</mask>
<g mask="url(#mask0_1043_67497)">
<path d="M19.6331 34.471C19.6331 37.7018 16.9957 40.3208 13.7423 40.3208C10.489 40.3208 7.85156 37.7018 7.85156 34.471C7.85156 31.2402 10.489 28.6211 13.7423 28.6211C16.9957 28.6211 19.6331 31.2402 19.6331 34.471Z" fill="#FF9A24"/>
<path d="M41.5941 34.471C41.5941 37.7018 38.9567 40.3208 35.7033 40.3208C32.4499 40.3208 29.8125 37.7018 29.8125 34.471C29.8125 31.2402 32.4499 28.6211 35.7033 28.6211C38.9567 28.6211 41.5941 31.2402 41.5941 34.471Z" fill="#FF9A24"/>
</g>
<path d="M25.4726 31.7636C25.4726 32.1109 25.191 32.3925 24.8437 32.3925C24.4964 32.3925 24.2148 32.1109 24.2148 31.7636C24.2148 31.4163 24.4964 31.1348 24.8437 31.1348C25.191 31.1348 25.4726 31.4163 25.4726 31.7636Z" fill="black"/>
<path fill-rule="evenodd" clip-rule="evenodd" d="M19.8793 33.2319C20.0062 33.0246 20.2772 32.9594 20.4846 33.0863L21.3646 33.6251C21.9586 33.9888 22.7009 34.0101 23.3148 33.6812C24.1531 33.2322 25.1604 33.2322 25.9986 33.6812C26.6126 34.0101 27.3549 33.9888 27.9489 33.6251L28.8289 33.0863C29.0362 32.9594 29.3072 33.0246 29.4341 33.2319C29.5611 33.4392 29.4959 33.7102 29.2886 33.8372L28.4086 34.3759C27.5479 34.9029 26.4724 34.9338 25.5829 34.4573C25.0043 34.1474 24.3091 34.1474 23.7306 34.4573C22.841 34.9338 21.7655 34.9029 20.9049 34.3759L20.0249 33.8372C19.8175 33.7102 19.7523 33.4392 19.8793 33.2319Z" fill="#A75A00"/>
<path d="M28.6253 32.6413L26.0153 31.7151C25.6887 31.5992 25.3815 31.8887 25.4777 32.2215L26.247 34.882C26.3294 35.2039 26.494 35.5128 26.741 35.775C27.4894 36.5692 28.7108 36.6339 29.4691 35.9194C30.2275 35.2049 30.2356 33.9818 29.4873 33.1875C29.2402 32.9254 28.9417 32.7427 28.6253 32.6413Z" fill="white"/>
<path d="M17.2988 29.1211C18.1242 29.2884 20.1601 29.4222 21.7008 28.6191" stroke="#905A09" stroke-width="0.880412" stroke-linecap="round"/>
<path d="M32.3906 29.1211C31.5652 29.2884 29.5293 29.4222 27.9886 28.6191" stroke="#905A09" stroke-width="0.880412" stroke-linecap="round"/>
<path fill-rule="evenodd" clip-rule="evenodd" d="M29.0806 10.033C29.3261 8.74034 30.5886 7.7739 31.9005 7.87436C33.0573 7.96294 33.8662 8.85155 33.873 9.94669C34.8798 9.64766 36.049 9.96342 36.7288 10.7926C37.4925 11.7243 37.3737 12.981 36.5009 13.7361C39.0259 15.9782 40.5639 18.9519 40.5639 22.2144C40.5639 24.1334 40.0319 25.9524 39.0798 27.5814C38.4607 26.5219 37.6639 25.5428 36.7203 24.6689C36.1353 25.2385 35.3384 25.6115 34.4102 25.6825C32.5326 25.8263 30.7143 24.689 29.9301 23.0168C29.0062 23.9338 27.7071 24.4738 26.3783 24.372C24.2508 24.2091 22.8131 22.46 23.0361 20.3934C17.5204 20.9005 12.8721 23.7021 10.6051 27.5811C9.65312 25.9522 9.12109 24.1333 9.12109 22.2144C9.12109 15.2351 16.1598 9.57721 24.8425 9.57721C26.3104 9.57721 27.7312 9.7389 29.079 10.0413L29.0806 10.033Z" fill="#8C5F36"/>
</svg>
