<svg width="24" height="24" viewBox="0 0 24 24" fill="none" xmlns="http://www.w3.org/2000/svg">
<path d="M9.08632 5.52381C9.08632 4.68223 9.79963 4 10.6796 4C11.5595 4 12.2728 4.68223 12.2728 5.52381V9.33451L18.0868 10.481C19.1973 10.7 19.9941 11.6352 19.9941 12.7197V13.1429H20C20 16.93 16.6652 20 12.5516 20C9.62711 20 7.09626 18.4483 5.87745 16.1905C5.85327 16.1457 5.8296 16.1006 5.80646 16.0552L4.11149 12.8185C4.00205 12.6095 3.97202 12.3706 4.02655 12.1428C4.31082 10.9551 5.87261 10.5614 6.73206 11.4607L8.18556 12.9816C8.28374 13.0843 8.42256 13.1429 8.56808 13.1429C8.85429 13.1429 9.08632 12.9209 9.08632 12.6472V5.52381Z" stroke="#1A1A1A" stroke-width="1.5"/>
</svg>
