<svg width="5" height="20" viewBox="0 0 5 20" fill="none" xmlns="http://www.w3.org/2000/svg">
<path d="M5 2.5C5 1.125 3.875 -4.91753e-08 2.5 -1.09278e-07C1.125 -1.69382e-07 9.04499e-07 1.125 8.44396e-07 2.5C7.84293e-07 3.875 1.125 5 2.5 5C3.875 5 5 3.875 5 2.5ZM5 17.5C5 16.125 3.875 15 2.5 15C1.125 15 2.48828e-07 16.125 1.88725e-07 17.5C1.28622e-07 18.875 1.125 20 2.5 20C3.875 20 5 18.875 5 17.5ZM5 10C5 8.625 3.875 7.5 2.5 7.5C1.125 7.5 5.76664e-07 8.625 5.1656e-07 10C4.56457e-07 11.375 1.125 12.5 2.5 12.5C3.875 12.5 5 11.375 5 10Z" fill="#CCCCCC"/>
</svg>
