<svg width="18" height="13" viewBox="0 0 18 13" fill="none" xmlns="http://www.w3.org/2000/svg">
<path d="M11 6.5L16 6.5C16.2652 6.5 16.5196 6.60536 16.7071 6.79289C16.8946 6.98043 17 7.23478 17 7.5L17 11C17 11.2652 16.8946 11.5196 16.7071 11.7071C16.5196 11.8946 16.2652 12 16 12L12 12C11.7348 12 11.4804 11.8946 11.2929 11.7071C11.1054 11.5196 11 11.2652 11 11L11 6.5ZM11 6.5C11 4 12 2.5 15 1M1 6.5L6 6.5C6.26522 6.5 6.51957 6.60536 6.70711 6.79289C6.89464 6.98043 7 7.23478 7 7.5L7 11C7 11.2652 6.89464 11.5196 6.70711 11.7071C6.51957 11.8946 6.26522 12 6 12L2 12C1.73478 12 1.48043 11.8946 1.29289 11.7071C1.10536 11.5196 1 11.2652 1 11L1 6.5ZM1 6.5C1 4 2 2.5 5 0.999999" stroke="#808080" stroke-width="1.5" stroke-linecap="round"/>
</svg>
