<svg width="21" height="18" viewBox="0 0 21 18" fill="none" xmlns="http://www.w3.org/2000/svg">
<path d="M13.9476 6.60156L9.07258 3.35156C8.98075 3.29029 8.874 3.25512 8.76374 3.2498C8.65347 3.24448 8.54383 3.26922 8.44653 3.32136C8.34923 3.37351 8.26793 3.4511 8.21129 3.54586C8.15466 3.64062 8.12484 3.74898 8.125 3.85938V10.3594C8.12484 10.4698 8.15466 10.5781 8.21129 10.6729C8.26793 10.7676 8.34923 10.8452 8.44653 10.8974C8.54383 10.9495 8.65347 10.9743 8.76374 10.9689C8.874 10.9636 8.98075 10.9285 9.07258 10.8672L13.9476 7.61719C14.0314 7.5616 14.1001 7.48614 14.1477 7.39754C14.1952 7.30893 14.2201 7.20993 14.2201 7.10938C14.2201 7.00882 14.1952 6.90982 14.1477 6.82121C14.1001 6.73261 14.0314 6.65715 13.9476 6.60156ZM9.34375 9.22086V4.99789L12.5105 7.10938L9.34375 9.22086ZM19.2969 0H1.42188C1.04477 0 0.683111 0.149804 0.416458 0.416458C0.149804 0.683111 0 1.04477 0 1.42188V12.7969C0 13.174 0.149804 13.5356 0.416458 13.8023C0.683111 14.0689 1.04477 14.2188 1.42188 14.2188H19.2969C19.674 14.2188 20.0356 14.0689 20.3023 13.8023C20.5689 13.5356 20.7188 13.174 20.7188 12.7969V1.42188C20.7188 1.04477 20.5689 0.683111 20.3023 0.416458C20.0356 0.149804 19.674 0 19.2969 0ZM19.5 12.7969C19.5 12.8507 19.4786 12.9024 19.4405 12.9405C19.4024 12.9786 19.3507 13 19.2969 13H1.42188C1.368 13 1.31634 12.9786 1.27824 12.9405C1.24015 12.9024 1.21875 12.8507 1.21875 12.7969V1.42188C1.21875 1.368 1.24015 1.31634 1.27824 1.27824C1.31634 1.24015 1.368 1.21875 1.42188 1.21875H19.2969C19.3507 1.21875 19.4024 1.24015 19.4405 1.27824C19.4786 1.31634 19.5 1.368 19.5 1.42188V12.7969ZM20.7188 16.8594C20.7188 17.021 20.6545 17.176 20.5403 17.2903C20.426 17.4045 20.271 17.4688 20.1094 17.4688H0.609375C0.447759 17.4688 0.292762 17.4045 0.178482 17.2903C0.0642017 17.176 0 17.021 0 16.8594C0 16.6978 0.0642017 16.5428 0.178482 16.4285C0.292762 16.3142 0.447759 16.25 0.609375 16.25H20.1094C20.271 16.25 20.426 16.3142 20.5403 16.4285C20.6545 16.5428 20.7188 16.6978 20.7188 16.8594Z" fill="#808080"/>
</svg>
