<svg width="18" height="18" viewBox="0 0 18 18" fill="none" xmlns="http://www.w3.org/2000/svg">
<path d="M16.6596 0H1.34043C0.984923 0 0.64398 0.141223 0.392602 0.392602C0.141223 0.64398 0 0.984923 0 1.34043V16.6596C0 17.0151 0.141223 17.356 0.392602 17.6074C0.64398 17.8588 0.984923 18 1.34043 18H16.6596C17.0151 18 17.356 17.8588 17.6074 17.6074C17.8588 17.356 18 17.0151 18 16.6596V1.34043C18 0.984923 17.8588 0.64398 17.6074 0.392602C17.356 0.141223 17.0151 0 16.6596 0ZM1.14894 16.6596V1.34043C1.14894 1.28964 1.16911 1.24093 1.20502 1.20502C1.24093 1.16911 1.28964 1.14894 1.34043 1.14894H16.6596C16.7104 1.14894 16.7591 1.16911 16.795 1.20502C16.8309 1.24093 16.8511 1.28964 16.8511 1.34043V9.21064L14.1606 6.52021C14.0362 6.39573 13.8884 6.29698 13.7258 6.22961C13.5631 6.16224 13.3888 6.12756 13.2128 6.12756C13.0367 6.12756 12.8624 6.16224 12.6998 6.22961C12.5371 6.29698 12.3894 6.39573 12.2649 6.52021L1.93404 16.8511H1.34043C1.28964 16.8511 1.24093 16.8309 1.20502 16.795C1.16911 16.7591 1.14894 16.7104 1.14894 16.6596ZM16.6596 16.8511H3.55883L13.0768 7.33309C13.0946 7.31528 13.1157 7.30116 13.139 7.29152C13.1622 7.28188 13.1871 7.27692 13.2123 7.27692C13.2375 7.27692 13.2624 7.28188 13.2856 7.29152C13.3089 7.30116 13.33 7.31528 13.3478 7.33309L16.8511 10.8354V16.6596C16.8511 16.7104 16.8309 16.7591 16.795 16.795C16.7591 16.8309 16.7104 16.8511 16.6596 16.8511ZM5.93617 8.04255C6.35277 8.04255 6.76002 7.91902 7.10641 7.68756C7.45281 7.45611 7.72279 7.12714 7.88221 6.74225C8.04164 6.35736 8.08336 5.93383 8.00208 5.52524C7.9208 5.11664 7.72019 4.74132 7.42561 4.44673C7.13103 4.15215 6.7557 3.95154 6.34711 3.87026C5.93851 3.78899 5.51498 3.8307 5.13009 3.99013C4.7452 4.14955 4.41623 4.41953 4.18478 4.76593C3.95332 5.11232 3.82979 5.51957 3.82979 5.93617C3.82979 6.49482 4.05171 7.03058 4.44673 7.42561C4.84176 7.82063 5.37752 8.04255 5.93617 8.04255ZM5.93617 4.97872C6.12554 4.97872 6.31065 5.03488 6.4681 5.14008C6.62555 5.24529 6.74827 5.39482 6.82074 5.56977C6.8932 5.74472 6.91216 5.93723 6.87522 6.12296C6.83828 6.30869 6.74709 6.47929 6.61319 6.61319C6.47929 6.74709 6.30869 6.83828 6.12296 6.87522C5.93723 6.91216 5.74472 6.8932 5.56977 6.82074C5.39482 6.74827 5.24529 6.62555 5.14008 6.4681C5.03488 6.31065 4.97872 6.12554 4.97872 5.93617C4.97872 5.68224 5.0796 5.43871 5.25915 5.25915C5.43871 5.0796 5.68224 4.97872 5.93617 4.97872Z" fill="#808080"/>
</svg>
