<svg width="22" height="11" viewBox="0 0 22 11" fill="none" xmlns="http://www.w3.org/2000/svg">
<path d="M8.69231 10H5.61538C4.39131 10 3.21737 9.52589 2.35182 8.68198C1.48626 7.83807 1 6.69347 1 5.5C1 4.30653 1.48626 3.16193 2.35182 2.31802C3.21737 1.47411 4.39131 1 5.61538 1H8.69231M13.3077 1H16.3846C17.6087 1 18.7826 1.47411 19.6482 2.31802C20.5137 3.16193 21 4.30653 21 5.5C21 6.69347 20.5137 7.83807 19.6482 8.68198C18.7826 9.52589 17.6087 10 16.3846 10H13.3077M6.54279 5.5H15.5534" stroke="#808080" stroke-width="1.5" stroke-linecap="round" stroke-linejoin="round"/>
</svg>
