<svg width="24" height="24" viewBox="0 0 24 24" fill="none" xmlns="http://www.w3.org/2000/svg">
<path d="M22.2128 0H1.78723C1.31323 0 0.85864 0.188297 0.523469 0.523469C0.188297 0.85864 0 1.31323 0 1.78723V22.2128C0 22.6868 0.188297 23.1414 0.523469 23.4765C0.85864 23.8117 1.31323 24 1.78723 24H22.2128C22.6868 24 23.1414 23.8117 23.4765 23.4765C23.8117 23.1414 24 22.6868 24 22.2128V1.78723C24 1.31323 23.8117 0.85864 23.4765 0.523469C23.1414 0.188297 22.6868 0 22.2128 0ZM1.53191 22.2128V1.78723C1.53191 1.71952 1.55881 1.65458 1.6067 1.6067C1.65458 1.55881 1.71952 1.53191 1.78723 1.53191H22.2128C22.2805 1.53191 22.3454 1.55881 22.3933 1.6067C22.4412 1.65458 22.4681 1.71952 22.4681 1.78723V12.2809L18.8809 8.69362C18.7149 8.52764 18.5179 8.39598 18.301 8.30615C18.0842 8.21632 17.8517 8.17008 17.617 8.17008C17.3823 8.17008 17.1499 8.21632 16.933 8.30615C16.7162 8.39598 16.5192 8.52764 16.3532 8.69362L2.57872 22.4681H1.78723C1.71952 22.4681 1.65458 22.4412 1.6067 22.3933C1.55881 22.3454 1.53191 22.2805 1.53191 22.2128ZM22.2128 22.4681H4.74511L17.4357 9.77745C17.4595 9.75371 17.4876 9.73488 17.5186 9.72203C17.5496 9.70918 17.5828 9.70257 17.6164 9.70257C17.6499 9.70257 17.6832 9.70918 17.7142 9.72203C17.7451 9.73488 17.7733 9.75371 17.797 9.77745L22.4681 14.4472V22.2128C22.4681 22.2805 22.4412 22.3454 22.3933 22.3933C22.3454 22.4412 22.2805 22.4681 22.2128 22.4681ZM7.91489 10.7234C8.47036 10.7234 9.01336 10.5587 9.47522 10.2501C9.93707 9.94148 10.297 9.50285 10.5096 8.98966C10.7222 8.47648 10.7778 7.91178 10.6694 7.36698C10.5611 6.82218 10.2936 6.32175 9.90081 5.92898C9.50803 5.5362 9.0076 5.26871 8.46281 5.16035C7.91801 5.05198 7.35331 5.1076 6.84012 5.32017C6.32693 5.53274 5.88831 5.89271 5.5797 6.35457C5.2711 6.81643 5.10638 7.35942 5.10638 7.91489C5.10638 8.65976 5.40228 9.37411 5.92898 9.90081C6.45568 10.4275 7.17003 10.7234 7.91489 10.7234ZM7.91489 6.6383C8.16738 6.6383 8.4142 6.71317 8.62413 6.85344C8.83407 6.99372 8.99769 7.19309 9.09431 7.42636C9.19094 7.65963 9.21622 7.91631 9.16696 8.16395C9.1177 8.41158 8.99612 8.63905 8.81758 8.81758C8.63905 8.99612 8.41158 9.1177 8.16395 9.16696C7.91631 9.21622 7.65963 9.19094 7.42636 9.09431C7.19309 8.99769 6.99372 8.83407 6.85344 8.62413C6.71317 8.4142 6.6383 8.16738 6.6383 7.91489C6.6383 7.57632 6.7728 7.25161 7.0122 7.0122C7.25161 6.7728 7.57632 6.6383 7.91489 6.6383Z" fill="#0059FF"/>
</svg>
