<svg width="24" height="24" viewBox="0 0 24 24" fill="none" xmlns="http://www.w3.org/2000/svg">
<circle cx="12" cy="12" r="12" fill="#F8F8F9"/>
<path d="M9.04254 14.5418C9.04254 16.1106 7.77076 17.3824 6.20193 17.3824C4.63311 17.3824 3.36133 16.1106 3.36133 14.5418C3.36133 12.973 4.63311 11.7012 6.20193 11.7012C7.77076 11.7012 9.04254 12.973 9.04254 14.5418Z" fill="#FF9C27"/>
<path d="M20.6402 14.5418C20.6402 16.1106 19.3684 17.3824 17.7996 17.3824C16.2308 17.3824 14.959 16.1106 14.959 14.5418C14.959 12.973 16.2308 11.7012 17.7996 11.7012C19.3684 11.7012 20.6402 12.973 20.6402 14.5418Z" fill="#FF9C27"/>
<path d="M19.1515 12.894C19.1515 16.5137 15.9504 19.4481 12.0015 19.4481C8.05271 19.4481 4.85156 16.5137 4.85156 12.894C4.85156 9.27423 8.05271 6.33984 12.0015 6.33984C15.9504 6.33984 19.1515 9.27423 19.1515 12.894Z" fill="#FFBA68"/>
<mask id="mask0_630_33881" style="mask-type:alpha" maskUnits="userSpaceOnUse" x="4" y="6" width="16" height="14">
<path d="M19.1515 12.8928C19.1515 16.5125 15.9504 19.4469 12.0015 19.4469C8.05271 19.4469 4.85156 16.5125 4.85156 12.8928C4.85156 9.27301 8.05271 6.33862 12.0015 6.33862C15.9504 6.33862 19.1515 9.27301 19.1515 12.8928Z" fill="#FFAB49"/>
</mask>
<g mask="url(#mask0_630_33881)">
<path d="M9.53258 16.2601C9.53258 17.7907 8.28314 19.0314 6.74187 19.0314C5.20061 19.0314 3.95117 17.7907 3.95117 16.2601C3.95117 14.7295 5.20061 13.4888 6.74187 13.4888C8.28314 13.4888 9.53258 14.7295 9.53258 16.2601Z" fill="#FF9A24"/>
<path d="M19.9369 16.2598C19.9369 17.7904 18.6874 19.0312 17.1462 19.0312C15.6049 19.0312 14.3555 17.7904 14.3555 16.2598C14.3555 14.7293 15.6049 13.4885 17.1462 13.4885C18.6874 13.4885 19.9369 14.7293 19.9369 16.2598Z" fill="#FF9A24"/>
</g>
<path d="M12.299 14.9783C12.299 15.1429 12.1656 15.2763 12.001 15.2763C11.8365 15.2763 11.7031 15.1429 11.7031 14.9783C11.7031 14.8138 11.8365 14.6804 12.001 14.6804C12.1656 14.6804 12.299 14.8138 12.299 14.9783Z" fill="black"/>
<path d="M10.512 13.8153C10.512 14.1285 10.2452 14.3824 9.91614 14.3824C9.58708 14.3824 9.32031 14.1285 9.32031 13.8153C9.32031 13.5022 9.58708 13.2483 9.91614 13.2483C10.2452 13.2483 10.512 13.5022 10.512 13.8153Z" fill="black"/>
<path d="M14.6819 13.8153C14.6819 14.1285 14.4151 14.3824 14.0861 14.3824C13.757 14.3824 13.4902 14.1285 13.4902 13.8153C13.4902 13.5022 13.757 13.2483 14.0861 13.2483C14.4151 13.2483 14.6819 13.5022 14.6819 13.8153Z" fill="black"/>
<path fill-rule="evenodd" clip-rule="evenodd" d="M10.3606 15.957C11.4285 16.2897 12.5723 16.2897 13.6402 15.957C13.7549 15.9213 13.8155 15.8091 13.7756 15.7064C13.7357 15.6037 13.6105 15.5494 13.4958 15.5851C12.5219 15.8885 11.4788 15.8885 10.505 15.5851C10.3903 15.5494 10.265 15.6037 10.2252 15.7064C10.1853 15.8091 10.2459 15.9213 10.3606 15.957Z" fill="#A75A00"/>
<path fill-rule="evenodd" clip-rule="evenodd" d="M9.64193 12.2166C9.42801 12.2485 9.25498 12.3596 9.16708 12.4458C9.08486 12.5265 8.95283 12.5252 8.87217 12.443C8.79152 12.3608 8.79278 12.2288 8.875 12.1481C9.01627 12.0095 9.26719 11.8508 9.58035 11.8041C9.90292 11.7559 10.2781 11.829 10.6448 12.1374C10.733 12.2115 10.7444 12.343 10.6702 12.4312C10.5961 12.5193 10.4646 12.5307 10.3764 12.4566C10.1014 12.2254 9.84644 12.1861 9.64193 12.2166Z" fill="#905A09"/>
<path fill-rule="evenodd" clip-rule="evenodd" d="M14.1107 12.2166C13.8968 12.2485 13.7237 12.3596 13.6358 12.4458C13.5536 12.5265 13.4216 12.5252 13.3409 12.443C13.2603 12.3608 13.2615 12.2288 13.3438 12.1481C13.485 12.0095 13.7359 11.8508 14.0491 11.8041C14.3717 11.7559 14.7469 11.829 15.1136 12.1374C15.2017 12.2115 15.2131 12.343 15.139 12.4312C15.0649 12.5193 14.9333 12.5307 14.8452 12.4566C14.5702 12.2254 14.3152 12.1861 14.1107 12.2166Z" fill="#905A09"/>
<path d="M9.22581 5.66766C3.35589 5.14135 3.85096 10.4356 4.91874 11.9989L8.70056 11.0335L9.48605 8.58176C10.0002 11.5555 9.05224 11.2885 19.2642 11.999C22.2167 4.27846 10.7372 2.6712 9.22581 5.66766Z" fill="black"/>
</svg>
