<svg width="10" height="10" viewBox="0 0 10 10" fill="none" xmlns="http://www.w3.org/2000/svg">
<path d="M2.49639 4.01991L1.2866 5.22969C0.834777 5.68152 0.57495 6.29629 0.579698 6.9424C0.584447 7.5885 0.838588 8.20703 1.31185 8.66567C1.77047 9.13895 2.38912 9.39308 3.03513 9.39782C3.69586 9.40268 4.29609 9.15749 4.74794 8.70566L5.95772 7.49587M7.503 5.98015L8.71279 4.77037C9.16461 4.31854 9.42444 3.70377 9.41969 3.05767C9.41494 2.41156 9.1608 1.79304 8.68754 1.33439C8.22902 0.875877 7.61048 0.621721 6.96437 0.616973C6.31826 0.612225 5.70341 0.857303 5.25156 1.30914L4.04177 2.51893M3.16513 6.80225L6.79449 3.17288" stroke="#B3B3B3" stroke-linecap="round" stroke-linejoin="round"/>
</svg>
