<svg width="155" height="25" viewBox="0 0 155 25" fill="none" xmlns="http://www.w3.org/2000/svg">
<path opacity="0.5" d="M94.1663 3.04199L85.833 3.04199V24.6778H94.1663V3.04199Z" fill="#0059FF"/>
<path opacity="0.5" d="M106.725 18.7312L85.8916 18.7312V24.5562L106.725 24.5562V18.7312Z" fill="#0059FF"/>
<path opacity="0.5" d="M7.20017 3.45654H21.2863V17.7815H7.14257C3.20211 17.7815 0 14.5839 0 10.6491C0 6.68024 3.22568 3.45654 7.20017 3.45654Z" fill="#0059FF"/>
<path opacity="0.5" d="M14.1445 24.9429L0.000784918 24.9429V10.6179L14.0869 10.6179C18.0614 10.6205 21.2871 13.8416 21.2871 17.8105C21.2871 21.7479 18.085 24.9429 14.1445 24.9429Z" fill="#0059FF"/>
<path opacity="0.5" d="M32.6633 3.45679H24.4473V24.9429H32.6633V3.45679Z" fill="#0059FF"/>
<path opacity="0.5" d="M45.7283 3.45679H24.4473V9.75778H45.7283V3.45679Z" fill="#0059FF"/>
<path opacity="0.5" d="M40.882 12.158H24.4473V18.3544H40.882V12.158Z" fill="#0059FF"/>
<path opacity="0.5" d="M42.4707 24.9427H53.1688V3.45654L42.4707 24.9427Z" fill="#0059FF"/>
<path opacity="0.72" d="M53.1689 24.9427H63.8697L53.1689 3.45654V24.9427Z" fill="#0059FF"/>
<path opacity="0.5" d="M67.1921 21.9774C69.1374 23.8468 71.774 24.9998 74.6855 24.9998C77.8064 24.9998 80.6106 23.6716 82.5847 21.5591L75.0966 14.0815L67.1895 21.9774H67.1921Z" fill="#0059FF"/>
<path opacity="0.5" d="M74.6868 3.39868C71.8355 3.39868 69.2487 4.50985 67.3164 6.31125L75.1004 14.0842L82.4787 6.7165C80.5097 4.67457 77.7501 3.39868 74.6894 3.39868L74.6868 3.39868Z" fill="#0059FF"/>
<path opacity="0.72" d="M67.3157 6.31121C65.2002 8.28255 63.8701 11.0827 63.8701 14.1992C63.8701 17.3157 65.1478 20.0139 67.1927 21.9774L75.0998 14.0816L67.3157 6.30859V6.31121Z" fill="#0059FF"/>
<path opacity="0.5" d="M155.001 13.8798C155.001 15.3025 154.72 16.7112 154.176 18.0255C153.632 19.3399 152.834 20.5342 151.828 21.5401C150.822 22.5461 149.627 23.3441 148.313 23.8885C146.999 24.4329 145.59 24.7131 144.167 24.7131C142.745 24.7131 141.336 24.4329 140.022 23.8885C138.707 23.3441 137.513 22.5461 136.507 21.5401C135.501 20.5342 134.703 19.3399 134.159 18.0255C133.614 16.7112 133.334 15.3025 133.334 13.8798L144.167 13.8798L155.001 13.8798Z" fill="#0059FF"/>
<path opacity="0.5" d="M144.167 24.7131C142.745 24.7131 141.336 24.4328 140.022 23.8884C138.707 23.344 137.513 22.546 136.507 21.54C135.501 20.5341 134.703 19.3398 134.159 18.0255C133.614 16.7111 133.334 15.3024 133.334 13.8797C133.334 12.4571 133.614 11.0483 134.159 9.73398C134.703 8.41962 135.501 7.22536 136.507 6.2194C137.513 5.21343 138.707 4.41545 140.022 3.87102C141.336 3.3266 142.745 3.04639 144.167 3.04639L144.167 13.8797L144.167 24.7131Z" fill="#0059FF"/>
<path opacity="0.5" d="M119.012 5.06528L128.936 14.9748L118.938 24.958L108.974 15.008C106.198 12.2359 106.174 7.7548 108.92 5.01256C111.69 2.24663 116.212 2.26925 119.012 5.06528Z" fill="#0059FF"/>
<path opacity="0.5" d="M128.904 15.0079L118.939 24.958L108.942 14.9748L118.866 5.06523C121.667 2.27101 126.188 2.24657 128.958 5.0125C131.706 7.75656 131.68 12.2358 128.904 15.0079Z" fill="#0059FF"/>
</svg>
