<svg width="58" height="96" viewBox="0 0 58 96" fill="none" xmlns="http://www.w3.org/2000/svg">
<rect x="0.5" y="0.5" width="57" height="95" rx="4.5" stroke="#9747FF" stroke-dasharray="10 5"/>
<path d="M32.375 28.9995H29M29 28.9995H25.625M29 28.9995V32.3745M29 28.9995L29 25.6245M38 29C38 33.9706 33.9706 38 29 38C24.0294 38 20 33.9706 20 29C20 24.0294 24.0294 20 29 20C33.9706 20 38 24.0294 38 29Z" stroke="#808080" stroke-width="2" stroke-linecap="round"/>
<path d="M32.375 66.9995H29M29 66.9995H25.625M29 66.9995V70.3745M29 66.9995L29 63.6245M38 67C38 71.9706 33.9706 76 29 76C24.0294 76 20 71.9706 20 67C20 62.0294 24.0294 58 29 58C33.9706 58 38 62.0294 38 67Z" stroke="#0059FF" stroke-width="2" stroke-linecap="round"/>
</svg>
