<svg width="18" height="12" viewBox="0 0 18 12" fill="none" xmlns="http://www.w3.org/2000/svg">
<path d="M11.0577 11.6562V10.5625L14.4894 7.10352C15.5694 5.96875 16.1163 5.33984 16.1163 4.47852C16.1163 3.50781 15.3233 2.87891 14.2843 2.87891C13.1905 2.87891 12.4796 3.57617 12.4796 4.62891H11.0577C11.044 2.82422 12.4249 1.62109 14.3116 1.62109C16.2257 1.62109 17.5382 2.82422 17.5519 4.4375C17.5382 5.54492 17.0187 6.41992 15.1593 8.25195L13.1495 10.2891V10.3711H17.7159V11.6562H11.0577Z" fill="#808080"/>
<path d="M0.28418 11.6562V0.34375H2.00293V5.25H7.62793V0.34375H9.34668V11.6562H7.62793V6.71875H2.00293V11.6562H0.28418Z" fill="#808080"/>
</svg>
