<svg width="24" height="24" viewBox="0 0 24 24" fill="none" xmlns="http://www.w3.org/2000/svg">
<path d="M3.15625 18V6.6875H4.875V11.5938H10.5V6.6875H12.2188V18H10.5V13.0625H4.875V18H3.15625ZM13.93 18V16.9062L17.3616 13.4473C18.4417 12.3125 18.9886 11.6836 18.9886 10.8223C18.9886 9.85156 18.1956 9.22266 17.1566 9.22266C16.0628 9.22266 15.3519 9.91992 15.3519 10.9727H13.93C13.9163 9.16797 15.2972 7.96484 17.1839 7.96484C19.098 7.96484 20.4105 9.16797 20.4241 10.7812C20.4105 11.8887 19.8909 12.7637 18.0316 14.5957L16.0218 16.6328V16.7148H20.5882V18H13.93Z" fill="#0059FF"/>
</svg>
