<svg width="15" height="15" viewBox="0 0 15 15" fill="none" xmlns="http://www.w3.org/2000/svg">
<path fill-rule="evenodd" clip-rule="evenodd" d="M13 5.49705C13 5.17879 12.8683 4.87357 12.6339 4.64852L10.2411 2.35147C10.0067 2.12643 9.68875 2 9.35725 2H4.25C3.55964 2 3 2.53726 3 3.2V12.8C3 13.4627 3.55964 14 4.25 14H11.75C12.4404 14 13 13.4627 13 12.8V5.49705ZM10.1875 7.40001C10.5327 7.40001 10.8125 7.13139 10.8125 6.79999C10.8125 6.46863 10.5327 6.19999 10.1875 6.19999H5.8125C5.46732 6.19999 5.1875 6.46863 5.1875 6.79999C5.1875 7.13139 5.46732 7.40001 5.8125 7.40001H10.1875ZM5.8125 10.1C5.46732 10.1 5.1875 9.83139 5.1875 9.50001C5.1875 9.16863 5.46732 8.90001 5.8125 8.90001H8.9375C9.28269 8.90001 9.5625 9.16863 9.5625 9.50001C9.5625 9.83139 9.28269 10.1 8.9375 10.1H5.8125Z" fill="#4D4D4D"/>
</svg>
