<svg width="15" height="15" viewBox="0 0 15 15" fill="none" xmlns="http://www.w3.org/2000/svg">
<path d="M7.5 3.98123L7.4285 3.91515C6.81978 3.33217 6.00314 3.00396 5.1515 3C4.31662 3 3.51586 3.32424 2.925 3.90155C2.33413 4.47886 2.00146 5.26206 2 6.0792C2 7.73722 2.6215 8.52855 5.399 10.6765L6.85765 11.7846C7.23563 12.0718 7.76437 12.0718 8.14235 11.7846L9.601 10.6765C12.3785 8.52855 13 7.73722 13 6.0792C12.9985 5.26206 12.6659 4.47886 12.075 3.90155C11.4841 3.32424 10.6833 3 9.8485 3C8.99684 3.00396 8.18022 3.33217 7.5715 3.91515L7.5 3.98123Z" fill="#4D4D4D"/>
</svg>
