<svg width="15" height="15" viewBox="0 0 15 15" fill="none" xmlns="http://www.w3.org/2000/svg">
<path fill-rule="evenodd" clip-rule="evenodd" d="M14.8695 8.48631C14.1539 9.74288 11.9208 13 8 13C4.07917 13 1.8461 9.74288 1.1305 8.48631C0.956499 8.18081 0.956499 7.81919 1.1305 7.51369C1.8461 6.25713 4.07917 3 8 3C11.9208 3 14.1539 6.25714 14.8695 7.51369C15.0435 7.81919 15.0435 8.18081 14.8695 8.48631ZM10.267 8C10.267 9.20813 9.25203 10.1875 8 10.1875C6.74797 10.1875 5.733 9.20813 5.733 8C5.733 6.79188 6.74797 5.8125 8 5.8125C9.25203 5.8125 10.267 6.79188 10.267 8Z" fill="#4D4D4D"/>
</svg>
