<svg width="14" height="10" viewBox="0 0 14 10" fill="none" xmlns="http://www.w3.org/2000/svg">
<path fill-rule="evenodd" clip-rule="evenodd" d="M13.8695 5.48631C13.1539 6.74288 10.9208 10 7 10C3.07917 10 0.846097 6.74288 0.130502 5.48631C-0.0435005 5.18081 -0.0435005 4.81919 0.130502 4.51369C0.846097 3.25713 3.07917 0 7 0C10.9208 0 13.1539 3.25714 13.8695 4.51369C14.0435 4.81919 14.0435 5.18081 13.8695 5.48631ZM9.267 5C9.267 6.20813 8.25203 7.1875 7 7.1875C5.74797 7.1875 4.733 6.20813 4.733 5C4.733 3.79188 5.74797 2.8125 7 2.8125C8.25203 2.8125 9.267 3.79188 9.267 5Z" fill="#999999"/>
</svg>
