<svg width="18" height="18" viewBox="0 0 18 18" fill="none" xmlns="http://www.w3.org/2000/svg">
<path d="M6.08632 2.52381C6.08632 1.68223 6.79963 1 7.67955 1C8.55948 1 9.27279 1.68223 9.27279 2.52381V6.33451L15.0868 7.48103C16.1973 7.70002 16.9941 8.6352 16.9941 9.71966V10.1429H17C17 13.93 13.6652 17 9.55161 17C6.62711 17 4.09626 15.4483 2.87745 13.1905C2.85327 13.1457 2.8296 13.1006 2.80646 13.0552L1.11149 9.81852C1.00205 9.60953 0.972018 9.37063 1.02655 9.14279C1.31082 7.95513 2.87261 7.56138 3.73206 8.4607L5.18556 9.9816C5.28374 10.0843 5.42256 10.1429 5.56808 10.1429C5.85429 10.1429 6.08632 9.92095 6.08632 9.64721V2.52381Z" stroke="#1A1A1A" stroke-width="1.5"/>
</svg>
