<svg width="45" height="45" viewBox="0 0 45 45" fill="none" xmlns="http://www.w3.org/2000/svg">
<circle cx="22.5" cy="22.5" r="22.5" fill="white"/>
<path fill-rule="evenodd" clip-rule="evenodd" d="M27.9858 25.7524C27.2708 26.3475 26.75 27.1758 26.75 28.0973C26.75 29.0477 25.9669 29.8182 25.001 29.8182H19.999C19.033 29.8182 18.25 29.0477 18.25 28.0973C18.25 27.1758 17.7292 26.3475 17.0142 25.7524C15.1706 24.2183 14 21.9254 14 19.3636C14 14.7445 17.8056 11 22.5 11C27.1944 11 31 14.7445 31 19.3636C31 21.9254 29.8294 24.2183 27.9858 25.7524ZM22.8771 13.6256C22.2915 13.5884 21.7861 14.0253 21.7483 14.6014C21.7103 15.1776 22.1544 15.6749 22.74 15.7122C23.6437 15.7697 24.495 16.1496 25.1342 16.7808C25.7733 17.4119 26.1565 18.2509 26.2118 19.1403C26.2477 19.7166 26.7515 20.1552 27.3372 20.1199C27.9229 20.0847 28.3687 19.5889 28.3328 19.0126C28.246 17.615 27.6438 16.2967 26.6394 15.3049C25.6349 14.3131 24.2971 13.716 22.8771 13.6256Z" fill="#0059FF"/>
<path d="M19.3125 31.9091C18.7257 31.9091 18.25 32.3771 18.25 32.9545C18.25 33.5319 18.7257 34 19.3125 34H25.6875C26.2743 34 26.75 33.5319 26.75 32.9545C26.75 32.3771 26.2743 31.9091 25.6875 31.9091H19.3125Z" fill="#0059FF"/>
</svg>
