<svg width="45" height="45" viewBox="0 0 45 45" fill="none" xmlns="http://www.w3.org/2000/svg">
<circle cx="22.5" cy="22.5" r="22.5" fill="white"/>
<path fill-rule="evenodd" clip-rule="evenodd" d="M16.875 12C15.8395 12 15 12.8814 15 13.9687V14.1H13C11.8954 14.1 11 15.0402 11 16.2V19.35C11 21.6696 12.7909 23.55 15 23.55H15.6736C16.6605 25.7313 18.6405 27.3212 21 27.6756V30.9H19C18.4477 30.9 18 31.3701 18 31.95C18 32.5299 18.4477 33 19 33H25C25.5523 33 26 32.5299 26 31.95C26 31.3701 25.5523 30.9 25 30.9H23V27.6756C25.3595 27.3212 27.3395 25.7313 28.3264 23.55H29C31.2091 23.55 33 21.6696 33 19.35V16.2C33 15.0402 32.1046 14.1 31 14.1H29V13.9687C29 12.8814 28.1605 12 27.125 12H16.875ZM28.9291 21.45H29C30.1046 21.45 31 20.5098 31 19.35V16.2H29V20.4C29 20.7565 28.9758 21.1071 28.9291 21.45ZM15.0709 21.45C15.0242 21.1071 15 20.7565 15 20.4V16.2H13V19.35C13 20.5098 13.8954 21.45 15 21.45H15.0709Z" fill="#0059FF"/>
</svg>
