<svg width="45" height="45" viewBox="0 0 45 45" fill="none" xmlns="http://www.w3.org/2000/svg">
<circle cx="22.5" cy="22.5" r="22.5" fill="white"/>
<path fill-rule="evenodd" clip-rule="evenodd" d="M33 22.5C33 28.2989 28.2989 33 22.5 33C16.701 33 12 28.2989 12 22.5C12 16.701 16.701 12 22.5 12C28.2989 12 33 16.701 33 22.5ZM20.925 20.4C20.925 21.2698 20.2199 21.975 19.35 21.975C18.4801 21.975 17.775 21.2698 17.775 20.4C17.775 19.5301 18.4801 18.825 19.35 18.825C20.2199 18.825 20.925 19.5301 20.925 20.4ZM25.65 21.975C26.5198 21.975 27.225 21.2698 27.225 20.4C27.225 19.5301 26.5198 18.825 25.65 18.825C24.7802 18.825 24.075 19.5301 24.075 20.4C24.075 21.2698 24.7802 21.975 25.65 21.975ZM18.5707 25.125C19.0526 24.8024 19.6979 24.9472 20.1425 25.3195C20.7811 25.8542 21.6032 26.175 22.5 26.175C23.3968 26.175 24.2188 25.8542 24.8575 25.3195C25.3021 24.9472 25.9475 24.8024 26.4293 25.125C26.9113 25.4476 27.0462 26.1082 26.642 26.524C25.5936 27.6029 24.1254 28.275 22.5 28.275C20.8746 28.275 19.4064 27.6029 18.3579 26.524C17.9538 26.1082 18.0888 25.4476 18.5707 25.125Z" fill="#0059FF"/>
</svg>
