<svg width="45" height="45" viewBox="0 0 45 45" fill="none" xmlns="http://www.w3.org/2000/svg">
<circle cx="22.5" cy="22.5" r="22.5" fill="white"/>
<path d="M21.3021 18.5294C21.3021 20.4787 19.6931 22.0588 17.7083 22.0588C15.7236 22.0588 14.1146 20.4787 14.1146 18.5294C14.1146 16.5802 15.7236 15 17.7083 15C19.6931 15 21.3021 16.5802 21.3021 18.5294Z" fill="#0059FF"/>
<path d="M27.2917 22.0588C29.2765 22.0588 30.8854 20.4787 30.8854 18.5294C30.8854 16.5802 29.2765 15 27.2917 15C25.3069 15 23.6979 16.5802 23.6979 18.5294C23.6979 20.4787 25.3069 22.0588 27.2917 22.0588Z" fill="#0059FF"/>
<path d="M25.8205 31C26.1466 30.4463 26.3333 29.8034 26.3333 29.1176V27.3923C26.3333 26.6056 26.0833 25.7391 25.4539 25.0347C25.1186 24.6595 24.7551 24.3086 24.3668 23.9854C25.2775 23.6525 26.263 23.4706 27.2917 23.4706C29.8048 23.4706 32.0598 24.5563 33.5966 26.2763C33.8705 26.5829 34 26.9844 34 27.3923V29.1176C34 30.1573 33.1419 31 32.0833 31H25.8205Z" fill="#0059FF"/>
<path d="M24.3778 29.497C24.199 30.3547 23.4262 31 22.5 31H12.9167C11.8581 31 11 30.1573 11 29.1176V27.3923C11 26.9844 11.1295 26.5829 11.4034 26.2763C12.9403 24.5563 15.1952 23.4706 17.7083 23.4706C19.4899 23.4706 21.1418 24.0163 22.5 24.9467C23.0577 25.3288 23.566 25.7757 24.0133 26.2763C24.2872 26.5829 24.4167 26.9844 24.4167 27.3923V29.1176C24.4167 29.2476 24.4032 29.3745 24.3778 29.497Z" fill="#0059FF"/>
</svg>
