<svg width="17" height="23" viewBox="0 0 17 23" fill="none" xmlns="http://www.w3.org/2000/svg">
<path fill-rule="evenodd" clip-rule="evenodd" d="M13.9858 14.7524C13.2708 15.3475 12.75 16.1758 12.75 17.0973C12.75 18.0477 11.9669 18.8182 11.001 18.8182H5.99897C5.03304 18.8182 4.25 18.0477 4.25 17.0973C4.25 16.1758 3.72922 15.3475 3.01416 14.7524C1.17059 13.2183 0 10.9254 0 8.36364C0 3.74453 3.80558 0 8.5 0C13.1944 0 17 3.74453 17 8.36364C17 10.9254 15.8294 13.2183 13.9858 14.7524ZM8.87708 2.62563C8.29154 2.58837 7.78611 3.02525 7.74828 3.60143C7.71035 4.17762 8.15437 4.67492 8.74002 4.71218C9.64367 4.76968 10.495 5.14964 11.1342 5.78079C11.7733 6.41194 12.1565 7.2509 12.2118 8.14025C12.2477 8.71657 12.7515 9.15518 13.3372 9.11994C13.9229 9.08469 14.3687 8.58892 14.3328 8.01261C14.246 6.61504 13.6438 5.29668 12.6394 4.30488C11.6349 3.31308 10.2971 2.71598 8.87708 2.62563Z" fill="#0059FF"/>
<path d="M5.3125 20.9091C4.7257 20.9091 4.25 21.3771 4.25 21.9545C4.25 22.5319 4.7257 23 5.3125 23H11.6875C12.2743 23 12.75 22.5319 12.75 21.9545C12.75 21.3771 12.2743 20.9091 11.6875 20.9091H5.3125Z" fill="#0059FF"/>
</svg>
