<svg width="23" height="16" viewBox="0 0 23 16" fill="none" xmlns="http://www.w3.org/2000/svg">
<path d="M10.3021 3.52941C10.3021 5.47865 8.69311 7.05882 6.70833 7.05882C4.72356 7.05882 3.11458 5.47865 3.11458 3.52941C3.11458 1.58017 4.72356 0 6.70833 0C8.69311 0 10.3021 1.58017 10.3021 3.52941Z" fill="#0059FF"/>
<path d="M16.2917 7.05882C18.2765 7.05882 19.8854 5.47865 19.8854 3.52941C19.8854 1.58017 18.2765 0 16.2917 0C14.3069 0 12.6979 1.58017 12.6979 3.52941C12.6979 5.47865 14.3069 7.05882 16.2917 7.05882Z" fill="#0059FF"/>
<path d="M14.8205 16C15.1466 15.4463 15.3333 14.8034 15.3333 14.1176V12.3923C15.3333 11.6056 15.0833 10.7391 14.4539 10.0347C14.1186 9.65948 13.7551 9.30861 13.3668 8.98541C14.2775 8.65252 15.263 8.47059 16.2917 8.47059C18.8048 8.47059 21.0598 9.55633 22.5966 11.2763C22.8705 11.5829 23 11.9844 23 12.3923V14.1176C23 15.1573 22.1419 16 21.0833 16H14.8205Z" fill="#0059FF"/>
<path d="M13.3778 14.497C13.199 15.3547 12.4262 16 11.5 16H1.91667C0.858121 16 0 15.1573 0 14.1176V12.3923C0 11.9844 0.129467 11.5829 0.40337 11.2763C1.94025 9.55633 4.19518 8.47059 6.70833 8.47059C8.48993 8.47059 10.1418 9.01628 11.5 9.94673C12.0577 10.3288 12.566 10.7757 13.0133 11.2763C13.2872 11.5829 13.4167 11.9844 13.4167 12.3923V14.1176C13.4167 14.2476 13.4032 14.3745 13.3778 14.497Z" fill="#0059FF"/>
</svg>
