<svg width="22" height="21" viewBox="0 0 22 21" fill="none" xmlns="http://www.w3.org/2000/svg">
<path fill-rule="evenodd" clip-rule="evenodd" d="M5.875 0C4.83947 0 4 0.881444 4 1.96875V2.1H2C0.89543 2.1 0 3.0402 0 4.2V7.35C0 9.66955 1.79086 11.55 4 11.55H4.67363C5.6605 13.7313 7.64045 15.3212 10 15.6756V18.9H8C7.44772 18.9 7 19.3701 7 19.95C7 20.5299 7.44772 21 8 21H14C14.5523 21 15 20.5299 15 19.95C15 19.3701 14.5523 18.9 14 18.9H12V15.6756C14.3595 15.3212 16.3395 13.7313 17.3264 11.55H18C20.2091 11.55 22 9.66955 22 7.35V4.2C22 3.0402 21.1046 2.1 20 2.1H18V1.96875C18 0.881444 17.1605 0 16.125 0H5.875ZM17.9291 9.45H18C19.1046 9.45 20 8.50983 20 7.35V4.2H18V8.4C18 8.75647 17.9758 9.10707 17.9291 9.45ZM4.07089 9.45C4.02417 9.10707 4 8.75647 4 8.4V4.2H2V7.35C2 8.50983 2.89543 9.45 4 9.45H4.07089Z" fill="#0059FF"/>
</svg>
