<svg width="21" height="21" viewBox="0 0 21 21" fill="none" xmlns="http://www.w3.org/2000/svg">
<path fill-rule="evenodd" clip-rule="evenodd" d="M21 10.5C21 16.2989 16.2989 21 10.5 21C4.70101 21 0 16.2989 0 10.5C0 4.70101 4.70101 0 10.5 0C16.2989 0 21 4.70101 21 10.5ZM8.925 8.4C8.925 9.26982 8.21985 9.975 7.35 9.975C6.48015 9.975 5.775 9.26982 5.775 8.4C5.775 7.53015 6.48015 6.825 7.35 6.825C8.21985 6.825 8.925 7.53015 8.925 8.4ZM13.65 9.975C14.5198 9.975 15.225 9.26982 15.225 8.4C15.225 7.53015 14.5198 6.825 13.65 6.825C12.7802 6.825 12.075 7.53015 12.075 8.4C12.075 9.26982 12.7802 9.975 13.65 9.975ZM6.57066 13.125C7.05257 12.8024 7.69789 12.9472 8.14252 13.3195C8.78115 13.8542 9.60319 14.175 10.5 14.175C11.3968 14.175 12.2188 13.8542 12.8575 13.3195C13.3021 12.9472 13.9475 12.8024 14.4293 13.125C14.9113 13.4476 15.0462 14.1082 14.642 14.524C13.5936 15.6029 12.1254 16.275 10.5 16.275C8.8746 16.275 7.40641 15.6029 6.35794 14.524C5.95379 14.1082 6.08876 13.4476 6.57066 13.125Z" fill="#0059FF"/>
</svg>
