<svg width="24" height="24" viewBox="0 0 24 24" fill="none" xmlns="http://www.w3.org/2000/svg">
<path fill-rule="evenodd" clip-rule="evenodd" d="M12 17.5C15.0375 17.5 17.5 15.0375 17.5 12C17.5 8.96243 15.0375 6.5 12 6.5C8.96243 6.5 6.5 8.96243 6.5 12C6.5 15.0375 8.96243 17.5 12 17.5ZM11.45 13.925C11.45 14.2287 11.6962 14.475 12 14.475C12.3037 14.475 12.55 14.2287 12.55 13.925V12.55H13.925C14.2287 12.55 14.475 12.3038 14.475 12C14.475 11.6962 14.2287 11.45 13.925 11.45H12.55V10.075C12.55 9.77124 12.3037 9.52499 12 9.52499C11.6962 9.52499 11.45 9.77124 11.45 10.075V11.45H10.075C9.77124 11.45 9.52499 11.6962 9.52499 12C9.52499 12.3038 9.77124 12.55 10.075 12.55H11.45V13.925Z" fill="#999999"/>
</svg>
