<svg width="24" height="24" viewBox="0 0 24 24" fill="none" xmlns="http://www.w3.org/2000/svg">
<path fill-rule="evenodd" clip-rule="evenodd" d="M12 22.4999C17.799 22.4999 22.5 17.7989 22.5 12C22.5 6.20099 17.799 1.5 12 1.5C6.20101 1.5 1.5 6.20099 1.5 12C1.5 17.7989 6.20101 22.4999 12 22.4999ZM10.95 15.675C10.95 16.2549 11.4201 16.725 12 16.725C12.5798 16.725 13.05 16.2549 13.05 15.675V13.05H15.675C16.2548 13.05 16.725 12.5799 16.725 12C16.725 11.4201 16.2548 10.95 15.675 10.95H13.05V8.32498C13.05 7.74509 12.5798 7.27498 12 7.27498C11.4201 7.27498 10.95 7.74509 10.95 8.32498V10.95H8.32498C7.74509 10.95 7.27499 11.4201 7.27499 12C7.27499 12.5799 7.74509 13.05 8.32498 13.05H10.95V15.675Z" fill="#999999"/>
</svg>
