<svg width="25" height="24" viewBox="0 0 25 24" fill="none" xmlns="http://www.w3.org/2000/svg">
<path fill-rule="evenodd" clip-rule="evenodd" d="M22.0645 12C22.0645 17.5228 17.5873 22 12.0645 22C6.5416 22 2.06445 17.5228 2.06445 12C2.06445 6.47715 6.5416 2 12.0645 2C17.5873 2 22.0645 6.47715 22.0645 12ZM16.5646 8.99998C16.9551 9.3905 16.9551 10.0237 16.5646 10.4142L11.7717 15.2071C11.3812 15.5976 10.748 15.5976 10.3575 15.2071L8.06455 12.9142C7.67402 12.5237 7.67402 11.8905 8.06455 11.5C8.45507 11.1095 9.08824 11.1095 9.47876 11.5L11.0646 13.0858L15.1504 8.99998C15.5409 8.60945 16.1741 8.60945 16.5646 8.99998Z" fill="#0059FF"/>
</svg>
