<svg width="11" height="10" viewBox="0 0 11 10" fill="none" xmlns="http://www.w3.org/2000/svg">
<path d="M5.5 1.48123L5.4285 1.41515C4.81978 0.832171 4.00314 0.503958 3.1515 0.5C2.31662 0.5 1.51586 0.824244 0.924995 1.40155C0.334133 1.97886 0.00145619 2.76206 0 3.5792C0 5.23722 0.6215 6.02855 3.399 8.17646L4.85765 9.28463C5.23563 9.57179 5.76437 9.57179 6.14235 9.28463L7.601 8.17646C10.3785 6.02855 11 5.23722 11 3.5792C10.9985 2.76206 10.6659 1.97886 10.075 1.40155C9.48415 0.824244 8.68335 0.5 7.8485 0.5C6.99684 0.503958 6.18022 0.832171 5.5715 1.41515L5.5 1.48123Z" fill="#808080"/>
</svg>
