<svg width="14" height="13" viewBox="0 0 14 13" fill="none" xmlns="http://www.w3.org/2000/svg">
<path d="M4.49639 5.52015L3.2866 6.72994C2.83478 7.18176 2.57495 7.79653 2.5797 8.44264C2.58445 9.08875 2.83859 9.70727 3.31185 10.1659C3.77047 10.6392 4.38912 10.8933 5.03513 10.8981C5.69586 10.9029 6.29609 10.6577 6.74794 10.2059L7.95772 8.99612M9.503 7.4804L10.7128 6.27061C11.1646 5.81879 11.4244 5.20402 11.4197 4.55791C11.4149 3.9118 11.1608 3.29328 10.6875 2.83463C10.229 2.37612 9.61048 2.12197 8.96437 2.11722C8.31826 2.11247 7.70341 2.35755 7.25156 2.80938L6.04177 4.01917M5.16513 8.30249L8.79449 4.67313" stroke="#B3B3B3" stroke-linecap="round" stroke-linejoin="round"/>
</svg>
