<svg width="30" height="30" viewBox="0 0 30 30" fill="none" xmlns="http://www.w3.org/2000/svg">
<path d="M15.0033 5C10.8284 5 9.60736 5.00431 9.37002 5.024C8.51325 5.09524 7.98012 5.23017 7.39931 5.51943C6.9517 5.74176 6.59869 5.99947 6.25029 6.36073C5.6158 7.01956 5.23126 7.83009 5.09205 8.79355C5.02437 9.26128 5.00468 9.35668 5.00068 11.7458C4.99915 12.5422 5.00068 13.5903 5.00068 14.9961C5.00068 19.1687 5.0053 20.3888 5.02529 20.6258C5.09451 21.4597 5.22526 21.9844 5.50213 22.5583C6.03126 23.6568 7.04184 24.4815 8.23238 24.7892C8.64461 24.8954 9.09991 24.9538 9.68442 24.9815C9.93206 24.9923 12.4562 25 14.9819 25C17.5076 25 20.0332 24.9969 20.2747 24.9846C20.9515 24.9528 21.3445 24.9 21.7791 24.7877C22.3694 24.6362 22.9195 24.3577 23.3911 23.9716C23.8627 23.5855 24.2443 23.101 24.5093 22.5521C24.7808 21.9921 24.9185 21.4474 24.9808 20.657C24.9943 20.4847 25 17.7372 25 14.9935C25 12.2492 24.9938 9.50684 24.9803 9.33452C24.9172 8.53138 24.7796 7.99133 24.4993 7.42051C24.2694 6.95324 24.014 6.60429 23.6433 6.24749C22.9819 5.61544 22.1728 5.23079 21.2086 5.0917C20.7414 5.02416 20.6484 5.00415 18.258 5H15.0033Z" fill="url(#paint0_radial_1686_3278)"/>
<path d="M15.0033 5C10.8284 5 9.60736 5.00431 9.37002 5.024C8.51325 5.09524 7.98012 5.23017 7.39931 5.51943C6.9517 5.74176 6.59869 5.99947 6.25029 6.36073C5.6158 7.01956 5.23126 7.83009 5.09205 8.79355C5.02437 9.26128 5.00468 9.35668 5.00068 11.7458C4.99915 12.5422 5.00068 13.5903 5.00068 14.9961C5.00068 19.1687 5.0053 20.3888 5.02529 20.6258C5.09451 21.4597 5.22526 21.9844 5.50213 22.5583C6.03126 23.6568 7.04184 24.4815 8.23238 24.7892C8.64461 24.8954 9.09991 24.9538 9.68442 24.9815C9.93206 24.9923 12.4562 25 14.9819 25C17.5076 25 20.0332 24.9969 20.2747 24.9846C20.9515 24.9528 21.3445 24.9 21.7791 24.7877C22.3694 24.6362 22.9195 24.3577 23.3911 23.9716C23.8627 23.5855 24.2443 23.101 24.5093 22.5521C24.7808 21.9921 24.9185 21.4474 24.9808 20.657C24.9943 20.4847 25 17.7372 25 14.9935C25 12.2492 24.9938 9.50684 24.9803 9.33452C24.9172 8.53138 24.7796 7.99133 24.4993 7.42051C24.2694 6.95324 24.014 6.60429 23.6433 6.24749C22.9819 5.61544 22.1728 5.23079 21.2086 5.0917C20.7414 5.02416 20.6484 5.00415 18.258 5H15.0033Z" fill="url(#paint1_radial_1686_3278)"/>
<path d="M15.0005 8C13.0994 8 12.8608 8.00831 12.1141 8.04229C11.3689 8.07642 10.8603 8.1944 10.4152 8.3675C9.95477 8.54629 9.56422 8.78546 9.17514 9.17469C8.78576 9.56377 8.54659 9.95431 8.36721 10.4146C8.19367 10.8598 8.07554 11.3686 8.042 12.1135C8.00875 12.8602 8 13.0989 8 15C8 16.9011 8.00846 17.1389 8.04229 17.8856C8.07656 18.6308 8.19454 19.1395 8.3675 19.5846C8.54644 20.045 8.78561 20.4355 9.17485 20.8246C9.56379 21.214 9.95433 21.4537 10.4144 21.6325C10.8598 21.8056 11.3686 21.9236 12.1137 21.9577C12.8604 21.9917 13.0988 22 14.9998 22C16.901 22 17.1389 21.9917 17.8856 21.9577C18.6308 21.9236 19.14 21.8056 19.5854 21.6325C20.0457 21.4537 20.4356 21.214 20.8246 20.8246C21.214 20.4355 21.4531 20.045 21.6325 19.5847C21.8046 19.1395 21.9227 18.6307 21.9577 17.8857C21.9912 17.1391 22 16.9011 22 15C22 13.0989 21.9912 12.8603 21.9577 12.1137C21.9227 11.3685 21.8046 10.8598 21.6325 10.4147C21.4531 9.95431 21.214 9.56377 20.8246 9.17469C20.4352 8.78531 20.0458 8.54615 19.585 8.3675C19.1387 8.1944 18.6298 8.07642 17.8845 8.04229C17.1379 8.00831 16.9002 8 14.9985 8H15.0005ZM14.3725 9.26146C14.5589 9.26117 14.7669 9.26146 15.0005 9.26146C16.8695 9.26146 17.0911 9.26817 17.8291 9.30171C18.5116 9.33292 18.882 9.44696 19.1288 9.54277C19.4555 9.66965 19.6884 9.82131 19.9332 10.0663C20.1782 10.3113 20.3299 10.5446 20.4571 10.8713C20.5529 11.1178 20.6671 11.4882 20.6981 12.1707C20.7317 12.9086 20.739 13.1303 20.739 14.9984C20.739 16.8665 20.7317 17.0882 20.6981 17.8261C20.6669 18.5086 20.5529 18.879 20.4571 19.1255C20.3302 19.4521 20.1782 19.6847 19.9332 19.9296C19.6882 20.1746 19.4556 20.3263 19.1288 20.4531C18.8823 20.5494 18.5116 20.6631 17.8291 20.6944C17.0912 20.7279 16.8695 20.7352 15.0005 20.7352C13.1313 20.7352 12.9098 20.7279 12.1719 20.6944C11.4894 20.6629 11.119 20.5488 10.8721 20.453C10.5454 20.3261 10.3121 20.1745 10.0671 19.9295C9.82206 19.6845 9.67039 19.4517 9.54322 19.1249C9.44741 18.8784 9.33322 18.508 9.30216 17.8255C9.26862 17.0876 9.26191 16.8659 9.26191 14.9966C9.26191 13.1274 9.26862 12.9069 9.30216 12.1689C9.33337 11.4864 9.44741 11.116 9.54322 10.8693C9.6701 10.5426 9.82206 10.3093 10.0671 10.0643C10.3121 9.81927 10.5454 9.6676 10.8721 9.54044C11.1188 9.44419 11.4894 9.33044 12.1719 9.29908C12.8177 9.26992 13.0679 9.26117 14.3725 9.25971V9.26146ZM18.7371 10.4237C18.5709 10.4237 18.4085 10.473 18.2704 10.5653C18.1322 10.6576 18.0246 10.7889 17.961 10.9424C17.8974 11.0959 17.8808 11.2648 17.9132 11.4277C17.9457 11.5907 18.0257 11.7404 18.1432 11.8578C18.2607 11.9753 18.4104 12.0553 18.5734 12.0876C18.7364 12.12 18.9053 12.1033 19.0588 12.0397C19.2122 11.9761 19.3434 11.8684 19.4357 11.7302C19.5279 11.592 19.5772 11.4296 19.5771 11.2635C19.5771 10.7997 19.2008 10.4237 18.7371 10.4237ZM15.0005 11.4052C13.0153 11.4052 11.4057 13.0148 11.4057 15C11.4057 16.9852 13.0153 18.5941 15.0005 18.5941C16.9858 18.5941 18.5949 16.9852 18.5949 15C18.5949 13.0148 16.9858 11.4052 15.0005 11.4052ZM15.0005 12.6667C16.2891 12.6667 17.3339 13.7113 17.3339 15C17.3339 16.2886 16.2891 17.3333 15.0005 17.3333C13.7118 17.3333 12.6672 16.2886 12.6672 15C12.6672 13.7113 13.7118 12.6667 15.0005 12.6667Z" fill="white"/>
<defs>
<radialGradient id="paint0_radial_1686_3278" cx="0" cy="0" r="1" gradientUnits="userSpaceOnUse" gradientTransform="translate(10.3125 26.5404) rotate(-90) scale(19.8215 18.4355)">
<stop stop-color="#FFDD55"/>
<stop offset="0.1" stop-color="#FFDD55"/>
<stop offset="0.5" stop-color="#FF543E"/>
<stop offset="1" stop-color="#C837AB"/>
</radialGradient>
<radialGradient id="paint1_radial_1686_3278" cx="0" cy="0" r="1" gradientUnits="userSpaceOnUse" gradientTransform="translate(1.64989 6.44077) rotate(78.6806) scale(8.86028 36.5225)">
<stop stop-color="#3771C8"/>
<stop offset="0.128" stop-color="#3771C8"/>
<stop offset="1" stop-color="#6600FF" stop-opacity="0"/>
</radialGradient>
</defs>
</svg>
