<svg width="31" height="30" viewBox="0 0 31 30" fill="none" xmlns="http://www.w3.org/2000/svg">
<path d="M16 5C10.2023 5 5.5 9.60113 5.5 15.2761C5.5 19.8164 8.50825 23.6683 12.6811 25.0273C13.2052 25.1223 13.375 24.8038 13.375 24.5332V22.6201C10.4542 23.2418 9.84613 21.4075 9.84613 21.4075C9.36838 20.2198 8.67975 19.9038 8.67975 19.9038C7.72688 19.2658 8.75238 19.2795 8.75238 19.2795C9.80675 19.3514 10.3615 20.3388 10.3615 20.3388C11.2978 21.9093 12.8176 21.4555 13.417 21.1926C13.5106 20.5289 13.7828 20.075 14.0838 19.819C11.7519 19.5578 9.30012 18.6766 9.30012 14.74C9.30012 13.6174 9.7105 12.7011 10.3816 11.9818C10.2731 11.7223 9.9135 10.6767 10.484 9.26201C10.484 9.26201 11.366 8.98627 13.3724 10.3153C14.2098 10.0875 15.1075 9.97363 16 9.96935C16.8925 9.97363 17.7911 10.0875 18.6302 10.3153C20.6349 8.98627 21.5151 9.26201 21.5151 9.26201C22.0865 10.6775 21.7269 11.7231 21.6184 11.9818C22.2921 12.7011 22.699 13.6182 22.699 14.74C22.699 18.6869 20.2429 19.5561 17.9049 19.8104C18.2811 20.129 18.625 20.7541 18.625 21.7132V24.5332C18.625 24.8063 18.793 25.1275 19.3259 25.0264C23.4952 23.6657 26.5 19.8147 26.5 15.2761C26.5 9.60113 21.7986 5 16 5Z" fill="black"/>
</svg>
