<svg width="11" height="9" viewBox="0 0 11 9" fill="none" xmlns="http://www.w3.org/2000/svg">
<path d="M5.5 0.981229L5.4285 0.915148C4.81978 0.332171 4.00314 0.00395795 3.1515 0C2.31662 0 1.51586 0.324244 0.924995 0.901552C0.334133 1.47886 0.00145619 2.26206 0 3.0792C0 4.73722 0.6215 5.52855 3.399 7.67646L4.85765 8.78463C5.23563 9.07179 5.76437 9.07179 6.14235 8.78463L7.601 7.67646C10.3785 5.52855 11 4.73722 11 3.0792C10.9985 2.26206 10.6659 1.47886 10.075 0.901552C9.48415 0.324244 8.68335 0 7.8485 0C6.99684 0.00395795 6.18022 0.332171 5.5715 0.915148L5.5 0.981229Z" fill="#4D4D4D"/>
</svg>
