<svg width="10" height="12" viewBox="0 0 10 12" fill="none" xmlns="http://www.w3.org/2000/svg">
<path fill-rule="evenodd" clip-rule="evenodd" d="M10 3.49705C10 3.17879 9.86831 2.87357 9.63387 2.64852L7.24113 0.351474C7.00669 0.126426 6.68875 0 6.35725 0H1.25C0.559644 0 0 0.537257 0 1.2V10.8C0 11.4627 0.559644 12 1.25 12H8.75C9.44038 12 10 11.4627 10 10.8V3.49705ZM7.1875 5.40001C7.53269 5.40001 7.8125 5.13139 7.8125 4.79999C7.8125 4.46863 7.53269 4.19999 7.1875 4.19999H2.8125C2.46732 4.19999 2.1875 4.46863 2.1875 4.79999C2.1875 5.13139 2.46732 5.40001 2.8125 5.40001H7.1875ZM2.8125 8.10001C2.46732 8.10001 2.1875 7.83139 2.1875 7.50001C2.1875 7.16863 2.46732 6.90001 2.8125 6.90001H5.9375C6.28269 6.90001 6.5625 7.16863 6.5625 7.50001C6.5625 7.83139 6.28269 8.10001 5.9375 8.10001H2.8125Z" fill="#4D4D4D"/>
</svg>
