<svg width="24" height="24" viewBox="0 0 24 24" fill="none" xmlns="http://www.w3.org/2000/svg">
<path d="M9.6 9.6V8.85C9.18578 8.85 8.85 9.18578 8.85 9.6H9.6ZM9.67969 9.6H10.4297C10.4297 9.18578 10.0939 8.85 9.67969 8.85V9.6ZM14.4 9.6V8.85C13.9858 8.85 13.65 9.18578 13.65 9.6H14.4ZM14.4708 9.6H15.2208C15.2208 9.18578 14.8851 8.85 14.4708 8.85V9.6ZM9.67969 9.66406V10.4141C10.0939 10.4141 10.4297 10.0783 10.4297 9.66406H9.67969ZM9.6 9.66406H8.85C8.85 10.0783 9.18578 10.4141 9.6 10.4141V9.66406ZM14.4708 9.66406V10.4141C14.8851 10.4141 15.2208 10.0783 15.2208 9.66406H14.4708ZM14.4 9.66406H13.65C13.65 10.0783 13.9858 10.4141 14.4 10.4141V9.66406ZM9.86434 14.0379C9.64632 13.6857 9.18408 13.5769 8.83188 13.7949C8.47968 14.0129 8.3709 14.4752 8.58891 14.8274L9.86434 14.0379ZM15.4111 14.8274C15.6291 14.4752 15.5203 14.0129 15.1681 13.7949C14.8159 13.5769 14.3537 13.6857 14.1357 14.0379L15.4111 14.8274ZM19.25 12C19.25 16.0041 16.0041 19.25 12 19.25V20.75C16.8325 20.75 20.75 16.8325 20.75 12H19.25ZM12 19.25C7.99593 19.25 4.75 16.0041 4.75 12H3.25C3.25 16.8325 7.16751 20.75 12 20.75V19.25ZM4.75 12C4.75 7.99593 7.99593 4.75 12 4.75V3.25C7.16751 3.25 3.25 7.16751 3.25 12H4.75ZM12 4.75C16.0041 4.75 19.25 7.99593 19.25 12H20.75C20.75 7.16751 16.8325 3.25 12 3.25V4.75ZM9.6 10.35H9.67969V8.85H9.6V10.35ZM14.4 10.35H14.4708V8.85H14.4V10.35ZM8.92969 9.6V9.66406H10.4297V9.6H8.92969ZM9.67969 8.91406H9.6V10.4141H9.67969V8.91406ZM10.35 9.66406V9.6H8.85V9.66406H10.35ZM13.7208 9.6V9.66406H15.2208V9.6H13.7208ZM14.4708 8.91406H14.4V10.4141H14.4708V8.91406ZM15.15 9.66406V9.6H13.65V9.66406H15.15ZM12 15.25C11.1111 15.25 10.3203 14.7744 9.86434 14.0379L8.58891 14.8274C9.29956 15.9754 10.557 16.75 12 16.75V15.25ZM14.1357 14.0379C13.6797 14.7744 12.8889 15.25 12 15.25V16.75C13.443 16.75 14.7004 15.9754 15.4111 14.8274L14.1357 14.0379Z" fill="#1A1A1A"/>
</svg>
