<svg width="27" height="27" viewBox="0 0 27 27" fill="none" xmlns="http://www.w3.org/2000/svg">
<path d="M22.2128 3H1.78723C1.31323 3 0.85864 3.1883 0.523469 3.52347C0.188297 3.85864 0 4.31323 0 4.78723V25.2128C0 25.6868 0.188297 26.1414 0.523469 26.4765C0.85864 26.8117 1.31323 27 1.78723 27H22.2128C22.6868 27 23.1414 26.8117 23.4765 26.4765C23.8117 26.1414 24 25.6868 24 25.2128V4.78723C24 4.31323 23.8117 3.85864 23.4765 3.52347C23.1414 3.1883 22.6868 3 22.2128 3ZM1.53191 25.2128V4.78723C1.53191 4.71952 1.55881 4.65458 1.6067 4.6067C1.65458 4.55881 1.71952 4.53191 1.78723 4.53191H22.2128C22.2805 4.53191 22.3454 4.55881 22.3933 4.6067C22.4412 4.65458 22.4681 4.71952 22.4681 4.78723V15.2809L18.8809 11.6936C18.7149 11.5276 18.5179 11.396 18.301 11.3061C18.0842 11.2163 17.8517 11.1701 17.617 11.1701C17.3823 11.1701 17.1499 11.2163 16.933 11.3061C16.7162 11.396 16.5192 11.5276 16.3532 11.6936L2.57872 25.4681H1.78723C1.71952 25.4681 1.65458 25.4412 1.6067 25.3933C1.55881 25.3454 1.53191 25.2805 1.53191 25.2128ZM22.2128 25.4681H4.74511L17.4357 12.7774C17.4595 12.7537 17.4876 12.7349 17.5186 12.722C17.5496 12.7092 17.5828 12.7026 17.6164 12.7026C17.6499 12.7026 17.6832 12.7092 17.7142 12.722C17.7451 12.7349 17.7733 12.7537 17.797 12.7774L22.4681 17.4472V25.2128C22.4681 25.2805 22.4412 25.3454 22.3933 25.3933C22.3454 25.4412 22.2805 25.4681 22.2128 25.4681ZM7.91489 13.7234C8.47036 13.7234 9.01336 13.5587 9.47522 13.2501C9.93707 12.9415 10.297 12.5029 10.5096 11.9897C10.7222 11.4765 10.7778 10.9118 10.6694 10.367C10.5611 9.82218 10.2936 9.32175 9.90081 8.92898C9.50803 8.5362 9.0076 8.26871 8.46281 8.16035C7.91801 8.05198 7.35331 8.1076 6.84012 8.32017C6.32693 8.53274 5.88831 8.89271 5.5797 9.35457C5.2711 9.81643 5.10638 10.3594 5.10638 10.9149C5.10638 11.6598 5.40228 12.3741 5.92898 12.9008C6.45568 13.4275 7.17003 13.7234 7.91489 13.7234ZM7.91489 9.6383C8.16738 9.6383 8.4142 9.71317 8.62413 9.85344C8.83407 9.99372 8.99769 10.1931 9.09431 10.4264C9.19094 10.6596 9.21622 10.9163 9.16696 11.1639C9.1177 11.4116 8.99612 11.639 8.81758 11.8176C8.63905 11.9961 8.41158 12.1177 8.16395 12.167C7.91631 12.2162 7.65963 12.1909 7.42636 12.0943C7.19309 11.9977 6.99372 11.8341 6.85344 11.6241C6.71317 11.4142 6.6383 11.1674 6.6383 10.9149C6.6383 10.5763 6.7728 10.2516 7.0122 10.0122C7.25161 9.7728 7.57632 9.6383 7.91489 9.6383Z" fill="#0059FF"/>
<rect x="18" width="9" height="9" rx="4.5" fill="#0059FF"/>
<path d="M21.7676 7.53125V5.33984H19.5762V3.875H21.7676V1.68359H23.2324V3.875H25.4238V5.33984H23.2324V7.53125H21.7676Z" fill="white"/>
</svg>
