<svg width="24" height="24" viewBox="0 0 24 24" fill="none" xmlns="http://www.w3.org/2000/svg">
<path d="M7.54688 18V6.6875H11.875C14.3281 6.6875 15.5469 7.9375 15.5469 9.625C15.5469 11 14.6719 11.7656 13.5625 12.0312V12.1406C14.7656 12.2031 15.9844 13.2031 15.9844 14.9219C15.9844 16.6875 14.7188 18 12.125 18H7.54688ZM11.8125 16.2969C13.2969 16.2969 13.9219 15.6562 13.9219 14.7656C13.9219 13.75 13.125 12.9688 11.8594 12.9688H9.57812V16.2969H11.8125ZM11.625 11.5C12.7031 11.5 13.5156 10.875 13.5156 9.875C13.5156 9 12.8906 8.375 11.6719 8.375H9.57812V11.5H11.625Z" fill="#808080"/>
</svg>
