<svg width="24" height="25" viewBox="0 0 24 25" fill="none" xmlns="http://www.w3.org/2000/svg">
<path d="M13.3768 12.0014L23.7153 1.65281C23.8977 1.46952 24 1.22142 23.9998 0.96284C23.9996 0.704265 23.897 0.456298 23.7144 0.273249C23.3488 -0.0904708 22.7049 -0.0923074 22.3357 0.275086L12 10.6236L1.66064 0.27233C1.29325 -0.0904707 0.64939 -0.0886339 0.283833 0.274167C0.193098 0.36454 0.121271 0.472079 0.0725426 0.590509C0.0238144 0.708939 -0.000838692 0.835889 2.17718e-05 0.963949C2.17718e-05 1.2248 0.101055 1.46911 0.283833 1.65006L10.6223 12.0004L0.284752 22.3518C0.102327 22.5353 0.00016785 22.7838 0.000684416 23.0426C0.00120098 23.3014 0.104352 23.5494 0.287507 23.7322C0.464775 23.9077 0.71552 24.0087 0.974533 24.0087H0.980044C1.23997 24.0078 1.49072 23.9058 1.66431 23.7286L12 13.38L22.3394 23.7313C22.5222 23.9132 22.7665 24.0142 23.0255 24.0142C23.1536 24.0146 23.2804 23.9896 23.3988 23.9408C23.5172 23.8919 23.6248 23.8202 23.7154 23.7296C23.8059 23.639 23.8777 23.5315 23.9266 23.4131C23.9754 23.2947 24.0004 23.1678 24 23.0397C24 22.7798 23.899 22.5345 23.7153 22.3536L13.3768 12.0014Z" fill="#333333"/>
</svg>
