<svg width="24" height="24" viewBox="0 0 24 24" fill="none" xmlns="http://www.w3.org/2000/svg">
<path d="M9.4 18V17.36L11.656 17.12H11.992L14.248 17.36V18H9.4ZM11.016 18C11.064 16.384 11.064 14.72 11.064 13.04V12.256C11.064 10.608 11.064 8.944 11.016 7.296H12.632C12.584 8.912 12.584 10.576 12.584 12.256V13.04C12.584 14.688 12.584 16.352 12.632 18H11.016ZM7.32 10.16L7.432 7.296H16.216L16.328 10.16H15.416L14.904 7.296L15.656 8.112H7.992L8.744 7.296L8.232 10.16H7.32Z" fill="#808080"/>
<path d="M7 13.44H16.664V14.24H7V13.44Z" fill="#808080"/>
</svg>
