<svg width="16" height="16" viewBox="0 0 16 16" fill="none" xmlns="http://www.w3.org/2000/svg">
<path d="M14.2222 0H1.77778C1.30628 0 0.854097 0.187301 0.520699 0.520699C0.187301 0.854097 0 1.30628 0 1.77778V14.2222C0 14.6937 0.187301 15.1459 0.520699 15.4793C0.854097 15.8127 1.30628 16 1.77778 16H14.2222C14.6937 16 15.1459 15.8127 15.4793 15.4793C15.8127 15.1459 16 14.6937 16 14.2222V1.77778C16 1.30628 15.8127 0.854097 15.4793 0.520699C15.1459 0.187301 14.6937 0 14.2222 0ZM11.2 12.4444L8 9.24444L4.8 12.4444L3.55556 11.2L6.75556 8L3.55556 4.8L4.8 3.55556L8 6.75556L11.2 3.55556L12.4444 4.8L9.24444 8L12.4444 11.2L11.2 12.4444Z" fill="#0059FF"/>
</svg>
