<svg width="24" height="22" viewBox="0 0 24 22" fill="none" xmlns="http://www.w3.org/2000/svg">
<path d="M3.15625 17V5.6875H4.875V10.5938H10.5V5.6875H12.2188V17H10.5V12.0625H4.875V17H3.15625ZM13.93 17V15.9062L17.3616 12.4473C18.4417 11.3125 18.9886 10.6836 18.9886 9.82227C18.9886 8.85156 18.1956 8.22266 17.1566 8.22266C16.0628 8.22266 15.3519 8.91992 15.3519 9.97266H13.93C13.9163 8.16797 15.2972 6.96484 17.1839 6.96484C19.098 6.96484 20.4105 8.16797 20.4241 9.78125C20.4105 10.8887 19.8909 11.7637 18.0316 13.5957L16.0218 15.6328V15.7148H20.5882V17H13.93Z" fill="#808080"/>
</svg>
