<svg width="24" height="22" viewBox="0 0 24 22" fill="none" xmlns="http://www.w3.org/2000/svg">
<path d="M3.15625 17V5.6875H4.875V10.5938H10.5V5.6875H12.2188V17H10.5V12.0625H4.875V17H3.15625ZM17.4437 17.1367C15.3929 17.1367 13.93 16.0293 13.8753 14.416H15.4066C15.4613 15.291 16.3226 15.8379 17.43 15.8379C18.6195 15.8379 19.4945 15.1816 19.4945 14.2246C19.4945 13.2539 18.6741 12.543 17.2659 12.543H16.4183V11.3125H17.2659C18.387 11.3125 19.18 10.6836 19.18 9.74023C19.18 8.83789 18.5101 8.22266 17.4573 8.22266C16.4593 8.22266 15.5843 8.76953 15.5433 9.67188H14.0941C14.1351 8.05859 15.6253 6.96484 17.471 6.96484C19.4124 6.96484 20.6429 8.19531 20.6292 9.6582C20.6429 10.7793 19.9456 11.5996 18.8792 11.8594V11.9277C20.2327 12.1191 21.012 13.0215 21.012 14.2793C21.012 15.9336 19.4945 17.1367 17.4437 17.1367Z" fill="#808080"/>
</svg>
