<svg width="24" height="24" viewBox="0 0 24 24" fill="none" xmlns="http://www.w3.org/2000/svg">
<path d="M19.6596 3H4.34043C3.98492 3 3.64398 3.14122 3.3926 3.3926C3.14122 3.64398 3 3.98492 3 4.34043V19.6596C3 20.0151 3.14122 20.356 3.3926 20.6074C3.64398 20.8588 3.98492 21 4.34043 21H19.6596C20.0151 21 20.356 20.8588 20.6074 20.6074C20.8588 20.356 21 20.0151 21 19.6596V4.34043C21 3.98492 20.8588 3.64398 20.6074 3.3926C20.356 3.14122 20.0151 3 19.6596 3ZM4.14894 19.6596V4.34043C4.14894 4.28964 4.16911 4.24093 4.20502 4.20502C4.24093 4.16911 4.28964 4.14894 4.34043 4.14894H19.6596C19.7104 4.14894 19.7591 4.16911 19.795 4.20502C19.8309 4.24093 19.8511 4.28964 19.8511 4.34043V12.2106L17.1606 9.52021C17.0362 9.39573 16.8884 9.29698 16.7258 9.22961C16.5631 9.16224 16.3888 9.12756 16.2128 9.12756C16.0367 9.12756 15.8624 9.16224 15.6998 9.22961C15.5371 9.29698 15.3894 9.39573 15.2649 9.52021L4.93404 19.8511H4.34043C4.28964 19.8511 4.24093 19.8309 4.20502 19.795C4.16911 19.7591 4.14894 19.7104 4.14894 19.6596ZM19.6596 19.8511H6.55883L16.0768 10.3331C16.0946 10.3153 16.1157 10.3012 16.139 10.2915C16.1622 10.2819 16.1871 10.2769 16.2123 10.2769C16.2375 10.2769 16.2624 10.2819 16.2856 10.2915C16.3089 10.3012 16.33 10.3153 16.3478 10.3331L19.8511 13.8354V19.6596C19.8511 19.7104 19.8309 19.7591 19.795 19.795C19.7591 19.8309 19.7104 19.8511 19.6596 19.8511ZM8.93617 11.0426C9.35277 11.0426 9.76002 10.919 10.1064 10.6876C10.4528 10.4561 10.7228 10.1271 10.8822 9.74225C11.0416 9.35736 11.0834 8.93383 11.0021 8.52524C10.9208 8.11664 10.7202 7.74132 10.4256 7.44673C10.131 7.15215 9.7557 6.95154 9.34711 6.87026C8.93851 6.78899 8.51498 6.8307 8.13009 6.99013C7.7452 7.14955 7.41623 7.41953 7.18478 7.76593C6.95332 8.11232 6.82979 8.51957 6.82979 8.93617C6.82979 9.49482 7.05171 10.0306 7.44673 10.4256C7.84176 10.8206 8.37752 11.0426 8.93617 11.0426ZM8.93617 7.97872C9.12554 7.97872 9.31065 8.03488 9.4681 8.14008C9.62555 8.24529 9.74827 8.39482 9.82074 8.56977C9.8932 8.74472 9.91216 8.93723 9.87522 9.12296C9.83828 9.30869 9.74709 9.47929 9.61319 9.61319C9.47929 9.74709 9.30869 9.83828 9.12296 9.87522C8.93723 9.91216 8.74472 9.8932 8.56977 9.82074C8.39482 9.74827 8.24529 9.62555 8.14008 9.4681C8.03488 9.31065 7.97872 9.12554 7.97872 8.93617C7.97872 8.68224 8.0796 8.43871 8.25915 8.25915C8.43871 8.0796 8.68224 7.97872 8.93617 7.97872Z" fill="#808080"/>
</svg>
