<svg width="24" height="24" viewBox="0 0 24 24" fill="none" xmlns="http://www.w3.org/2000/svg">
<path d="M9.69231 16H6.61538C5.39131 16 4.21737 15.5259 3.35182 14.682C2.48626 13.8381 2 12.6935 2 11.5C2 10.3065 2.48626 9.16193 3.35182 8.31802C4.21737 7.47411 5.39131 7 6.61538 7H9.69231M14.3077 7H17.3846C18.6087 7 19.7826 7.47411 20.6482 8.31802C21.5137 9.16193 22 10.3065 22 11.5C22 12.6935 21.5137 13.8381 20.6482 14.682C19.7826 15.5259 18.6087 16 17.3846 16H14.3077M7.54279 11.5H16.5534" stroke="#808080" stroke-width="1.5" stroke-linecap="round" stroke-linejoin="round"/>
</svg>
