<svg width="24" height="24" viewBox="0 0 24 24" fill="none" xmlns="http://www.w3.org/2000/svg">
<path fill-rule="evenodd" clip-rule="evenodd" d="M5.85146 3.03781C6.9184 3.03781 16.0916 3.00001 16.0916 3.00001C16.3269 2.99905 16.6872 3.07976 16.897 3.18028C16.897 3.18028 16.7603 3.03344 16.952 3.23192C17.1238 3.40975 20.7398 7.14085 20.8105 7.21602C20.8813 7.29131 20.8361 7.25138 20.8361 7.25138C20.9345 7.46508 21 7.83489 21 8.07032V18.2512C21 19.0054 20.0973 20.0207 19.2351 20.0207C18.3728 20.0207 6.61333 19.9855 5.75222 19.9855C4.89111 19.9855 4.04852 19.3178 4.01061 18.2711C3.97271 17.2242 4.04852 5.67833 4.04852 4.7693C4.04852 3.86038 4.78452 3.03781 5.85146 3.03781ZM5.65575 4.93882L5.67172 17.823C5.67204 18.0571 5.86339 18.2493 6.09892 18.2506L18.9365 18.3185C18.9924 18.3189 19.0478 18.3082 19.0995 18.2871C19.1512 18.266 19.1983 18.2348 19.2379 18.1954C19.2775 18.156 19.3089 18.1091 19.3303 18.0574C19.3516 18.0058 19.3626 17.9505 19.3624 17.8946L19.3472 8.27253C19.3471 8.15561 19.2781 7.99397 19.1933 7.91177L16.0805 4.89654C15.9952 4.81392 15.9268 4.84298 15.9268 4.96054V8.7025C15.9268 9.05804 15.4333 9.67574 14.9863 9.67574H8.55502C8.0652 9.67574 7.53706 9.17379 7.53706 8.7025C7.53706 8.23121 7.53557 4.96075 7.53557 4.96075C7.53557 4.8432 7.44058 4.74673 7.32346 4.74534L5.86743 4.72884C5.8397 4.72855 5.81219 4.73378 5.78649 4.74421C5.76079 4.75464 5.73742 4.77007 5.71772 4.78961C5.69803 4.80914 5.68242 4.83238 5.67178 4.858C5.66114 4.88361 5.65569 4.91108 5.65575 4.93882ZM9.12086 4.98567V7.94638C9.12086 8.06351 9.21626 8.15945 9.33382 8.15945H14.0936C14.2121 8.15945 14.3066 8.06404 14.3066 7.94638V4.98578C14.3065 4.92929 14.2841 4.87514 14.2442 4.83518C14.2043 4.79522 14.1501 4.77271 14.0936 4.7726H9.33393C9.21531 4.7726 9.12096 4.86801 9.12096 4.98578L9.12086 4.98567Z" fill="#4D4D4D"/>
<path fill-rule="evenodd" clip-rule="evenodd" d="M12.4907 10.6517C14.2131 10.6789 15.8803 12.188 15.8803 14.0301C15.8803 15.8723 14.3241 17.4143 12.5777 17.3869C10.8313 17.3593 9.09277 15.8148 9.09277 14.028C9.09277 12.2413 10.7684 10.6246 12.4907 10.6517ZM10.7702 13.9856C10.7702 15.0159 11.5885 15.7832 12.4971 15.7791C13.4058 15.7749 14.1762 15.0201 14.1808 14.0019C14.1853 12.9836 13.36 12.2608 12.4787 12.2608C11.5974 12.2608 10.7702 12.9551 10.7702 13.9855V13.9856Z" fill="#4D4D4D"/>
</svg>
