<svg width="24" height="24" viewBox="0 0 24 24" fill="none" xmlns="http://www.w3.org/2000/svg">
<path d="M15.9476 9.60156L11.0726 6.35156C10.9807 6.29029 10.874 6.25512 10.7637 6.2498C10.6535 6.24448 10.5438 6.26922 10.4465 6.32136C10.3492 6.37351 10.2679 6.4511 10.2113 6.54586C10.1547 6.64062 10.1248 6.74898 10.125 6.85938V13.3594C10.1248 13.4698 10.1547 13.5781 10.2113 13.6729C10.2679 13.7676 10.3492 13.8452 10.4465 13.8974C10.5438 13.9495 10.6535 13.9743 10.7637 13.9689C10.874 13.9636 10.9807 13.9285 11.0726 13.8672L15.9476 10.6172C16.0314 10.5616 16.1001 10.4861 16.1477 10.3975C16.1952 10.3089 16.2201 10.2099 16.2201 10.1094C16.2201 10.0088 16.1952 9.90982 16.1477 9.82121C16.1001 9.73261 16.0314 9.65715 15.9476 9.60156ZM11.3438 12.2209V7.99789L14.5105 10.1094L11.3438 12.2209ZM21.2969 3H3.42188C3.04477 3 2.68311 3.1498 2.41646 3.41646C2.1498 3.68311 2 4.04477 2 4.42188V15.7969C2 16.174 2.1498 16.5356 2.41646 16.8023C2.68311 17.0689 3.04477 17.2188 3.42188 17.2188H21.2969C21.674 17.2188 22.0356 17.0689 22.3023 16.8023C22.5689 16.5356 22.7188 16.174 22.7188 15.7969V4.42188C22.7188 4.04477 22.5689 3.68311 22.3023 3.41646C22.0356 3.1498 21.674 3 21.2969 3ZM21.5 15.7969C21.5 15.8507 21.4786 15.9024 21.4405 15.9405C21.4024 15.9786 21.3507 16 21.2969 16H3.42188C3.368 16 3.31634 15.9786 3.27824 15.9405C3.24015 15.9024 3.21875 15.8507 3.21875 15.7969V4.42188C3.21875 4.368 3.24015 4.31634 3.27824 4.27824C3.31634 4.24015 3.368 4.21875 3.42188 4.21875H21.2969C21.3507 4.21875 21.4024 4.24015 21.4405 4.27824C21.4786 4.31634 21.5 4.368 21.5 4.42188V15.7969ZM22.7188 19.8594C22.7188 20.021 22.6545 20.176 22.5403 20.2903C22.426 20.4045 22.271 20.4688 22.1094 20.4688H2.60938C2.44776 20.4688 2.29276 20.4045 2.17848 20.2903C2.0642 20.176 2 20.021 2 19.8594C2 19.6978 2.0642 19.5428 2.17848 19.4285C2.29276 19.3142 2.44776 19.25 2.60938 19.25H22.1094C22.271 19.25 22.426 19.3142 22.5403 19.4285C22.6545 19.5428 22.7188 19.6978 22.7188 19.8594Z" fill="#808080"/>
</svg>
