<svg width="24" height="24" viewBox="0 0 24 24" fill="none" xmlns="http://www.w3.org/2000/svg">
<path d="M11.4496 19.9001H6.1996C5.0398 19.9 4.0996 18.9598 4.09961 17.8L4.09969 5.20009C4.0997 4.04029 5.0399 3.1001 6.19969 3.1001H15.6499C16.8097 3.1001 17.7499 4.0403 17.7499 5.2001V9.4001M17.2246 16.1805V16.1252M7.77494 7.3001H14.0749M7.77494 10.4501H14.0749M7.77494 13.6001H10.9249M20.8996 16.2251C20.8996 16.2251 20.028 18.7973 17.2246 18.7524C14.4212 18.7074 13.5496 16.2251 13.5496 16.2251C13.5496 16.2251 14.3859 13.608 17.2246 13.608C20.0633 13.608 20.8996 16.2251 20.8996 16.2251Z" stroke="#4D4D4D" stroke-width="2" stroke-linecap="round" stroke-linejoin="round"/>
</svg>
