<svg width="24" height="24" viewBox="0 0 24 24" fill="none" xmlns="http://www.w3.org/2000/svg">
<path fill-rule="evenodd" clip-rule="evenodd" d="M6.29265 10.3517C6.29265 6.75539 8.93217 4 11.9997 4C13.0842 4 14.1158 4.33832 15.0004 4.93317C15.0164 4.20428 15.2922 3.53945 15.7391 3.02773C14.6362 2.37426 13.3655 2 11.9997 2C7.66066 2 4.2955 5.82427 4.29265 10.3459L4.2683 12.5258L4.26824 12.5258V12.537C4.26824 13.7902 3.79239 14.8473 3.28335 15.5818C2.92042 16.1055 2.95475 16.727 3.11673 17.1571C3.27244 17.5705 3.71025 18.1818 4.50732 18.1818H19.493C20.2773 18.1818 20.7167 17.5882 20.8769 17.1757C21.043 16.7482 21.0799 16.1372 20.7332 15.6155C20.2459 14.8823 19.7825 13.8148 19.7811 12.5426L19.8055 10.4717H19.8055V10.4599C19.8055 9.48811 19.6522 8.5481 19.3688 7.67009C18.9583 7.88098 18.4929 8 17.9997 8C17.7749 8 17.5559 7.97527 17.3452 7.92839C17.6401 8.69847 17.8048 9.55025 17.8055 10.4542L17.7812 12.5252L17.7811 12.5252V12.537C17.7811 13.998 18.2202 15.2435 18.7392 16.1818H5.26873C5.80918 15.2454 6.26703 14.0024 6.26824 12.5428L6.29259 10.3628L6.29265 10.3628V10.3517ZM9.95718 19.3096C9.52568 18.9649 8.89643 19.0352 8.55172 19.4667C8.20701 19.8982 8.27737 20.5275 8.70887 20.8722C9.59621 21.5811 10.7515 22 11.9997 22C13.2478 22 14.4032 21.5811 15.2905 20.8722C15.722 20.5275 15.7924 19.8982 15.4477 19.4667C15.1029 19.0352 14.4737 18.9649 14.0422 19.3096C13.5142 19.7314 12.8005 20 11.9997 20C11.1989 20 10.4852 19.7314 9.95718 19.3096Z" fill="#030303"/>
<circle cx="18" cy="5" r="4" fill="#0059FF"/>
</svg>
