<svg width="10" height="12" viewBox="0 0 10 12" fill="none" xmlns="http://www.w3.org/2000/svg">
<path d="M0.167969 6.79199H9.83197V7.59199H0.167969V6.79199Z" fill="#808080"/>
<path d="M2.56828 11.3519V10.712L4.82428 10.472H5.16028L7.41628 10.712V11.3519H2.56828ZM4.18428 11.3519C4.23228 9.73595 4.23228 8.07195 4.23228 6.39195V5.60795C4.23228 3.95995 4.23228 2.29595 4.18428 0.647949H5.80028C5.75228 2.26395 5.75228 3.92795 5.75228 5.60795V6.39195C5.75228 8.03995 5.75228 9.70395 5.80028 11.3519H4.18428ZM0.488281 3.51195L0.600281 0.647949H9.38428L9.49628 3.51195H8.58428L8.07228 0.647949L8.82428 1.46395H1.16028L1.91228 0.647949L1.40028 3.51195H0.488281Z" fill="#808080"/>
</svg>
