<svg width="36" height="33" viewBox="0 0 36 33" fill="none" xmlns="http://www.w3.org/2000/svg">
<path d="M11.8359 22.2954C11.8359 25.5638 9.18631 28.2133 5.91793 28.2133C2.64955 28.2133 4.58496e-08 25.5638 2.95369e-08 22.2954C1.32241e-08 19.027 2.64955 16.3774 5.91793 16.3774C9.18631 16.3774 11.8359 19.027 11.8359 22.2954Z" fill="#FF9C27"/>
<path d="M35.9999 22.2954C35.9999 25.5638 33.3504 28.2133 30.082 28.2133C26.8136 28.2133 24.1641 25.5638 24.1641 22.2954C24.1641 19.027 26.8136 16.3774 30.082 16.3774C33.3504 16.3774 35.9999 19.027 35.9999 22.2954Z" fill="#FF9C27"/>
<path d="M32.8951 18.8625C32.8951 26.4036 26.226 32.5169 17.9993 32.5169C9.77258 32.5169 3.10352 26.4036 3.10352 18.8625C3.10352 11.3213 9.77258 5.20801 17.9993 5.20801C26.226 5.20801 32.8951 11.3213 32.8951 18.8625Z" fill="#FFBA68"/>
<mask id="mask0_536_9150" style="mask-type:alpha" maskUnits="userSpaceOnUse" x="3" y="5" width="30" height="28">
<path d="M32.8951 18.86C32.8951 26.4012 26.226 32.5145 17.9993 32.5145C9.77258 32.5145 3.10352 26.4012 3.10352 18.86C3.10352 11.3189 9.77258 5.20557 17.9993 5.20557C26.226 5.20557 32.8951 11.3189 32.8951 18.86Z" fill="#FFAB49"/>
</mask>
<g mask="url(#mask0_536_9150)">
<path d="M12.8564 25.8752C12.8564 29.0638 10.2534 31.6487 7.04248 31.6487C3.83152 31.6487 1.22852 29.0638 1.22852 25.8752C1.22852 22.6865 3.83152 20.1016 7.04248 20.1016C10.2534 20.1016 12.8564 22.6865 12.8564 25.8752Z" fill="#FF9A24"/>
<path d="M34.5303 25.8747C34.5303 29.0633 31.9273 31.6482 28.7163 31.6482C25.5053 31.6482 22.9023 29.0633 22.9023 25.8747C22.9023 22.686 25.5053 20.1011 28.7163 20.1011C31.9273 20.1011 34.5303 22.686 34.5303 25.8747Z" fill="#FF9A24"/>
</g>
<path d="M18.6202 23.2046C18.6202 23.5474 18.3423 23.8253 17.9996 23.8253C17.6568 23.8253 17.3789 23.5474 17.3789 23.2046C17.3789 22.8619 17.6568 22.584 17.9996 22.584C18.3423 22.584 18.6202 22.8619 18.6202 23.2046Z" fill="black"/>
<path d="M14.8967 20.7819C14.8967 21.4343 14.3409 21.9632 13.6554 21.9632C12.9698 21.9632 12.4141 21.4343 12.4141 20.7819C12.4141 20.1295 12.9698 19.6006 13.6554 19.6006C14.3409 19.6006 14.8967 20.1295 14.8967 20.7819Z" fill="black"/>
<path d="M23.5861 20.7819C23.5861 21.4343 23.0304 21.9632 22.3448 21.9632C21.6593 21.9632 21.1035 21.4343 21.1035 20.7819C21.1035 20.1295 21.6593 19.6006 22.3448 19.6006C23.0304 19.6006 23.5861 20.1295 23.5861 20.7819Z" fill="black"/>
<path fill-rule="evenodd" clip-rule="evenodd" d="M14.583 25.2439C16.8078 25.9369 19.1908 25.9369 21.4156 25.2439C21.6545 25.1694 21.7808 24.9357 21.6977 24.7217C21.6146 24.5077 21.3536 24.3946 21.1148 24.469C19.0859 25.1011 16.9128 25.1011 14.8839 24.469C14.645 24.3946 14.384 24.5077 14.3009 24.7217C14.2178 24.9357 14.3441 25.1694 14.583 25.2439Z" fill="#A75A00"/>
<path fill-rule="evenodd" clip-rule="evenodd" d="M13.0854 17.4511C12.6397 17.5176 12.2793 17.7491 12.0961 17.9287C11.9248 18.0968 11.6498 18.0941 11.4817 17.9228C11.3137 17.7515 11.3163 17.4765 11.4876 17.3084C11.7819 17.0197 12.3047 16.6891 12.9571 16.5917C13.6291 16.4914 14.4108 16.6437 15.1748 17.2861C15.3584 17.4405 15.3821 17.7145 15.2277 17.8982C15.0733 18.0818 14.7992 18.1055 14.6156 17.9511C14.0427 17.4694 13.5115 17.3875 13.0854 17.4511Z" fill="#905A09"/>
<path fill-rule="evenodd" clip-rule="evenodd" d="M22.396 17.4511C21.9503 17.5176 21.5898 17.7491 21.4067 17.9287C21.2354 18.0968 20.9603 18.0941 20.7923 17.9228C20.6243 17.7515 20.6269 17.4765 20.7982 17.3084C21.0925 17.0197 21.6152 16.6891 22.2677 16.5917C22.9397 16.4914 23.7214 16.6437 24.4853 17.2861C24.669 17.4405 24.6927 17.7145 24.5382 17.8982C24.3838 18.0818 24.1098 18.1055 23.9261 17.9511C23.3532 17.4694 22.822 17.3875 22.396 17.4511Z" fill="#905A09"/>
<path d="M12.2154 3.80769C-0.0136044 2.7112 1.0178 13.7408 3.24233 16.9978L11.1211 14.9866L12.7576 9.87873C13.8287 16.074 11.8538 15.5178 33.1287 16.9979C39.2798 0.913519 15.364 -2.43494 12.2154 3.80769Z" fill="black"/>
</svg>
