<svg width="58" height="51" viewBox="0 0 58 51" fill="none" xmlns="http://www.w3.org/2000/svg">
<path d="M19.0699 34.5349C19.0699 39.8009 14.8009 44.0699 9.53494 44.0699C4.26894 44.0699 7.38727e-08 39.8009 4.75897e-08 34.5349C2.13066e-08 29.2689 4.26894 25 9.53494 25C14.8009 25 19.0699 29.2689 19.0699 34.5349Z" fill="#FF9C27"/>
<path d="M58.0015 34.5349C58.0015 39.8009 53.7326 44.0699 48.4666 44.0699C43.2006 44.0699 38.9316 39.8009 38.9316 34.5349C38.9316 29.2689 43.2006 25 48.4666 25C53.7326 25 58.0015 29.2689 58.0015 34.5349Z" fill="#FF9C27"/>
<path d="M53 29.0039C53 41.1542 42.2548 51.0039 29 51.0039C15.7452 51.0039 5 41.1542 5 29.0039C5 16.8536 15.7452 7.00391 29 7.00391C42.2548 7.00391 53 16.8536 53 29.0039Z" fill="#FFBA68"/>
<mask id="mask0_536_9146" style="mask-type:alpha" maskUnits="userSpaceOnUse" x="5" y="7" width="48" height="44">
<path d="M53 29C53 41.1503 42.2548 51 29 51C15.7452 51 5 41.1503 5 29C5 16.8497 15.7452 7 29 7C42.2548 7 53 16.8497 53 29Z" fill="#FFAB49"/>
</mask>
<g mask="url(#mask0_536_9146)">
<path d="M20.7134 40.3024C20.7134 45.4399 16.5194 49.6048 11.3459 49.6048C6.17246 49.6048 1.97852 45.4399 1.97852 40.3024C1.97852 35.1648 6.17246 31 11.3459 31C16.5194 31 20.7134 35.1648 20.7134 40.3024Z" fill="#FF9A24"/>
<path d="M55.6333 40.3024C55.6333 45.4399 51.4394 49.6048 46.2659 49.6048C41.0924 49.6048 36.8984 45.4399 36.8984 40.3024C36.8984 35.1648 41.0924 31 46.2659 31C51.4394 31 55.6333 35.1648 55.6333 40.3024Z" fill="#FF9A24"/>
</g>
<path d="M30 36C30 36.5523 29.5523 37 29 37C28.4477 37 28 36.5523 28 36C28 35.4477 28.4477 35 29 35C29.5523 35 30 35.4477 30 36Z" fill="black"/>
<path d="M24 32.0967C24 33.1479 23.1046 34 22 34C20.8954 34 20 33.1479 20 32.0967C20 31.0455 20.8954 30.1934 22 30.1934C23.1046 30.1934 24 31.0455 24 32.0967Z" fill="black"/>
<path d="M38 32.0967C38 33.1479 37.1046 34 36 34C34.8954 34 34 33.1479 34 32.0967C34 31.0455 34.8954 30.1934 36 30.1934C37.1046 30.1934 38 31.0455 38 32.0967Z" fill="black"/>
<path fill-rule="evenodd" clip-rule="evenodd" d="M23.4957 39.2855C27.0803 40.4022 30.9197 40.4022 34.5043 39.2855C34.8892 39.1656 35.0927 38.789 34.9588 38.4442C34.825 38.0995 34.4044 37.9172 34.0196 38.0371C30.7507 39.0555 27.2493 39.0555 23.9804 38.0371C23.5956 37.9172 23.175 38.0995 23.0412 38.4442C22.9073 38.789 23.1108 39.1656 23.4957 39.2855Z" fill="#A75A00"/>
<path fill-rule="evenodd" clip-rule="evenodd" d="M21.0849 26.73C20.3668 26.8372 19.786 27.21 19.491 27.4995C19.215 27.7702 18.7718 27.766 18.5011 27.49C18.2304 27.214 18.2346 26.7708 18.5106 26.5001C18.9848 26.0349 19.827 25.5022 20.8782 25.3453C21.961 25.1837 23.2204 25.429 24.4513 26.464C24.7472 26.7128 24.7854 27.1544 24.5365 27.4503C24.2877 27.7462 23.8462 27.7844 23.5503 27.5355C22.6273 26.7594 21.7714 26.6275 21.0849 26.73Z" fill="#905A09"/>
<path fill-rule="evenodd" clip-rule="evenodd" d="M36.0849 26.73C35.3668 26.8372 34.786 27.21 34.491 27.4995C34.215 27.7702 33.7718 27.766 33.5011 27.49C33.2304 27.214 33.2346 26.7708 33.5106 26.5001C33.9848 26.0349 34.827 25.5022 35.8782 25.3453C36.961 25.1837 38.2204 25.429 39.4513 26.464C39.7472 26.7128 39.7854 27.1544 39.5365 27.4503C39.2877 27.7462 38.8462 27.7844 38.5503 27.5355C37.6273 26.7594 36.7714 26.6275 36.0849 26.73Z" fill="#905A09"/>
<path d="M19.6824 4.74796C-0.0208833 2.98129 1.64091 20.7522 5.22506 25.9997L17.9193 22.7593L20.556 14.5296C22.2818 24.5114 19.0998 23.6153 53.3779 26C63.2884 0.0848757 24.7555 -5.31015 19.6824 4.74796Z" fill="black"/>
</svg>
