<svg width="18" height="16" viewBox="0 0 18 16" fill="none" xmlns="http://www.w3.org/2000/svg">
<path d="M6.04254 10.5418C6.04254 12.1106 4.77076 13.3824 3.20193 13.3824C1.63311 13.3824 0.361328 12.1106 0.361328 10.5418C0.361328 8.97295 1.63311 7.70117 3.20193 7.70117C4.77076 7.70117 6.04254 8.97295 6.04254 10.5418Z" fill="#FF9C27"/>
<path d="M17.6402 10.5418C17.6402 12.1106 16.3684 13.3824 14.7996 13.3824C13.2308 13.3824 11.959 12.1106 11.959 10.5418C11.959 8.97295 13.2308 7.70117 14.7996 7.70117C16.3684 7.70117 17.6402 8.97295 17.6402 10.5418Z" fill="#FF9C27"/>
<path d="M16.1515 8.89398C16.1515 12.5137 12.9504 15.4481 9.00153 15.4481C5.05271 15.4481 1.85156 12.5137 1.85156 8.89398C1.85156 5.27423 5.05271 2.33984 9.00153 2.33984C12.9504 2.33984 16.1515 5.27423 16.1515 8.89398Z" fill="#FFBA68"/>
<mask id="mask0_536_9169" style="mask-type:alpha" maskUnits="userSpaceOnUse" x="1" y="2" width="16" height="14">
<path d="M16.1515 8.89252C16.1515 12.5123 12.9504 15.4467 9.00153 15.4467C5.05271 15.4467 1.85156 12.5123 1.85156 8.89252C1.85156 5.27277 5.05271 2.33838 9.00153 2.33838C12.9504 2.33838 16.1515 5.27277 16.1515 8.89252Z" fill="#FFAB49"/>
</mask>
<g mask="url(#mask0_536_9169)">
<path d="M6.53258 12.2596C6.53258 13.7902 5.28314 15.0309 3.74187 15.0309C2.20061 15.0309 0.951172 13.7902 0.951172 12.2596C0.951172 10.729 2.20061 9.48828 3.74187 9.48828C5.28314 9.48828 6.53258 10.729 6.53258 12.2596Z" fill="#FF9A24"/>
<path d="M16.9369 12.2596C16.9369 13.7902 15.6874 15.0309 14.1462 15.0309C12.6049 15.0309 11.3555 13.7902 11.3555 12.2596C11.3555 10.729 12.6049 9.48828 14.1462 9.48828C15.6874 9.48828 16.9369 10.729 16.9369 12.2596Z" fill="#FF9A24"/>
</g>
<path d="M9.29896 10.9781C9.29896 11.1426 9.16557 11.276 9.00104 11.276C8.83651 11.276 8.70313 11.1426 8.70313 10.9781C8.70313 10.8136 8.83651 10.6802 9.00104 10.6802C9.16557 10.6802 9.29896 10.8136 9.29896 10.9781Z" fill="black"/>
<path d="M7.51197 9.81508C7.51197 10.1282 7.24521 10.3821 6.91614 10.3821C6.58708 10.3821 6.32031 10.1282 6.32031 9.81508C6.32031 9.50192 6.58708 9.24805 6.91614 9.24805C7.24521 9.24805 7.51197 9.50192 7.51197 9.81508Z" fill="black"/>
<path d="M11.6819 9.81508C11.6819 10.1282 11.4151 10.3821 11.0861 10.3821C10.757 10.3821 10.4902 10.1282 10.4902 9.81508C10.4902 9.50192 10.757 9.24805 11.0861 9.24805C11.4151 9.24805 11.6819 9.50192 11.6819 9.81508Z" fill="black"/>
<path fill-rule="evenodd" clip-rule="evenodd" d="M7.36055 11.9565C8.42846 12.2892 9.5723 12.2892 10.6402 11.9565C10.7549 11.9208 10.8155 11.8086 10.7756 11.7059C10.7357 11.6032 10.6105 11.5489 10.4958 11.5846C9.52193 11.888 8.47883 11.888 7.50498 11.5846C7.39032 11.5489 7.26503 11.6032 7.22515 11.7059C7.18527 11.8086 7.24589 11.9208 7.36055 11.9565Z" fill="#A75A00"/>
<path fill-rule="evenodd" clip-rule="evenodd" d="M6.64193 8.21611C6.42801 8.24804 6.25498 8.35913 6.16708 8.44536C6.08486 8.52601 5.95283 8.52475 5.87217 8.44253C5.79152 8.36031 5.79278 8.22828 5.875 8.14762C6.01627 8.00904 6.26719 7.85035 6.58035 7.8036C6.90292 7.75544 7.27814 7.82854 7.64483 8.13688C7.73298 8.211 7.74435 8.34255 7.67023 8.4307C7.59611 8.51885 7.46456 8.53022 7.37641 8.4561C7.10143 8.22488 6.84644 8.18558 6.64193 8.21611Z" fill="#905A09"/>
<path fill-rule="evenodd" clip-rule="evenodd" d="M11.1107 8.21611C10.8968 8.24804 10.7237 8.35913 10.6358 8.44536C10.5536 8.52601 10.4216 8.52475 10.3409 8.44253C10.2603 8.36031 10.2615 8.22828 10.3438 8.14762C10.485 8.00904 10.7359 7.85035 11.0491 7.8036C11.3717 7.75544 11.7469 7.82854 12.1136 8.13688C12.2017 8.211 12.2131 8.34255 12.139 8.4307C12.0649 8.51885 11.9333 8.53022 11.8452 8.4561C11.5702 8.22488 11.3152 8.18558 11.1107 8.21611Z" fill="#905A09"/>
<path d="M6.22581 1.66742C0.355892 1.1411 0.850965 6.43532 1.91874 7.99865L5.70056 7.03328L6.48605 4.58152C7.00019 7.55526 6.05224 7.28829 16.2642 7.99873C19.2167 0.278215 7.73716 -1.32905 6.22581 1.66742Z" fill="black"/>
</svg>
